<svg xmlns="http://www.w3.org/2000/svg" width="24" height="24" viewBox="0 0 24 24"><path d="M0,0H24V24H0Z" fill="none"/><path d="M7.387,2.074A3.337,3.337,0,0,1,9.31,1.459a3.374,3.374,0,0,1,2.448,1.069,3.751,3.751,0,0,1,1.014,2.58,3.79,3.79,0,0,1-.583,2.027,3.508,3.508,0,0,1-1.553,1.344,3.3,3.3,0,0,1-2,.208,3.41,3.41,0,0,1-1.772-1A3.714,3.714,0,0,1,5.915,5.82a3.832,3.832,0,0,1,.2-2.108A3.614,3.614,0,0,1,7.387,2.074ZM9.31,0A4.671,4.671,0,0,0,6.618.861,5.06,5.06,0,0,0,4.833,3.153,5.365,5.365,0,0,0,4.557,6.1,5.2,5.2,0,0,0,5.883,8.72a4.774,4.774,0,0,0,2.481,1.4,4.616,4.616,0,0,0,2.8-.291,4.911,4.911,0,0,0,2.175-1.881,5.306,5.306,0,0,0,.817-2.838A5.251,5.251,0,0,0,12.737,1.5,4.724,4.724,0,0,0,9.31,0Zm.005,14.108A.731.731,0,0,0,9.3,12.649a11.56,11.56,0,0,0-4.814,1.1,12.123,12.123,0,0,0-4,3.031.758.758,0,0,0,.042,1.031.668.668,0,0,0,.978-.045,10.734,10.734,0,0,1,3.54-2.684A10.234,10.234,0,0,1,9.315,14.108Zm6.5-3.357a.693.693,0,1,0-1.385,0v1.9h-1.8a.731.731,0,0,0,0,1.459h1.8v1.9a.693.693,0,1,0,1.385,0v-1.9h1.8a.731.731,0,0,0,0-1.459h-1.8Z" transform="translate(2.94 2.75)" fill="#262626" fill-rule="evenodd"/></svg>