<svg xmlns="http://www.w3.org/2000/svg" width="24" height="24" viewBox="0 0 24 24"><rect width="24" height="24" fill="none"/><path d="M-3075.486-364a2.53,2.53,0,0,1-2.514-2.539v-11.077a2.53,2.53,0,0,1,2.514-2.539h1.143v-1.153a.689.689,0,0,1,.685-.692.689.689,0,0,1,.685.692v1.153h5.943v-1.153a.689.689,0,0,1,.686-.692.689.689,0,0,1,.686.692v1.153h1.143a2.53,2.53,0,0,1,2.515,2.539v11.077a2.53,2.53,0,0,1-2.515,2.539Zm-1.143-2.539a1.15,1.15,0,0,0,1.143,1.154h10.971a1.15,1.15,0,0,0,1.143-1.154v-6.692h-13.257Zm13.257-8.077v-3a1.15,1.15,0,0,0-1.143-1.154h-10.971a1.15,1.15,0,0,0-1.143,1.154v3Zm-5.715,6.924a.689.689,0,0,1-.685-.693.689.689,0,0,1,.685-.692h3.657a.689.689,0,0,1,.685.692.689.689,0,0,1-.685.693Zm-2.742,0a.689.689,0,0,1-.686-.693.689.689,0,0,1,.686-.692h.914a.689.689,0,0,1,.686.692.689.689,0,0,1-.686.693Z" transform="translate(3082 385)" fill="#262626"/></svg>