<svg xmlns="http://www.w3.org/2000/svg" width="24" height="24" viewBox="0 0 24 24"><rect width="24" height="24" fill="none"/><path d="M-3555.164-212.681l-2.195-1.111a9.031,9.031,0,0,1-5.142-7.985v-3.91a1.524,1.524,0,0,1,.857-1.355l6.48-3.277a1.693,1.693,0,0,1,.764-.181,1.693,1.693,0,0,1,.764.181l6.48,3.277a1.524,1.524,0,0,1,.856,1.355v3.91a9.03,9.03,0,0,1-5.142,7.985l-2.195,1.111a1.709,1.709,0,0,1-.764.181A1.7,1.7,0,0,1-3555.164-212.681Zm.628-16.4-6.479,3.278a.153.153,0,0,0-.1.12v3.91a7.656,7.656,0,0,0,4.381,6.751l2.195,1.11a.3.3,0,0,0,.136.032.293.293,0,0,0,.135-.032l2.2-1.11a7.657,7.657,0,0,0,4.382-6.751v-3.91a.154.154,0,0,0-.1-.12l-6.48-3.278a.3.3,0,0,0-.135-.031A.306.306,0,0,0-3554.536-229.084Zm-1.281,9.92-1.852-1.847a.691.691,0,0,1,0-.979.7.7,0,0,1,.982,0l1.361,1.357,3.212-3.2a.7.7,0,0,1,.982,0,.691.691,0,0,1,0,.979l-3.7,3.693a.7.7,0,0,1-.491.2A.694.694,0,0,1-3555.816-219.164Z" transform="translate(3566.75 233.75)" fill="#1e2631"/></svg>