<svg xmlns="http://www.w3.org/2000/svg" width="24" height="24" viewBox="0 0 24 24"><rect width="24" height="24" fill="none"/><path d="M-2871.219-276.745a.9.9,0,0,0-.53-.619.908.908,0,0,0-.812.063,2.3,2.3,0,0,1-1.193.344,2.307,2.307,0,0,1-2-1.192,2.24,2.24,0,0,1,.053-2.291.9.9,0,0,0,.062-.812.9.9,0,0,0-.618-.529A2.249,2.249,0,0,1-2878-284a2.249,2.249,0,0,1,1.745-2.219.9.9,0,0,0,.62-.53.9.9,0,0,0-.063-.812,2.239,2.239,0,0,1-.053-2.29,2.306,2.306,0,0,1,2-1.193,2.265,2.265,0,0,1,1.193.344.889.889,0,0,0,.467.133.9.9,0,0,0,.875-.689A2.249,2.249,0,0,1-2869-293a2.25,2.25,0,0,1,2.219,1.745.9.9,0,0,0,.529.619.908.908,0,0,0,.813-.063,2.3,2.3,0,0,1,1.193-.344,2.307,2.307,0,0,1,2,1.192,2.241,2.241,0,0,1-.052,2.29.9.9,0,0,0-.063.812.9.9,0,0,0,.618.53A2.249,2.249,0,0,1-2860-284a2.249,2.249,0,0,1-1.744,2.219.9.9,0,0,0-.619.529.9.9,0,0,0,.063.813,2.241,2.241,0,0,1,.054,2.29,2.309,2.309,0,0,1-2,1.192,2.27,2.27,0,0,1-1.193-.343.909.909,0,0,0-.812-.063.9.9,0,0,0-.529.618A2.25,2.25,0,0,1-2869-275,2.249,2.249,0,0,1-2871.219-276.745Zm0-1.9a2.288,2.288,0,0,1,1.345,1.572.867.867,0,0,0,.874.686.866.866,0,0,0,.873-.686,2.293,2.293,0,0,1,1.346-1.571,2.28,2.28,0,0,1,.873-.174,2.287,2.287,0,0,1,1.188.333.9.9,0,0,0,.472.142.933.933,0,0,0,.792-.486.849.849,0,0,0-.028-.892,2.291,2.291,0,0,1-.16-2.063,2.29,2.29,0,0,1,1.572-1.345.866.866,0,0,0,.686-.873.865.865,0,0,0-.686-.873,2.29,2.29,0,0,1-1.571-1.346,2.3,2.3,0,0,1,.159-2.062.851.851,0,0,0,.029-.892.935.935,0,0,0-.793-.485.9.9,0,0,0-.473.141,2.282,2.282,0,0,1-1.189.334,2.274,2.274,0,0,1-.874-.174,2.292,2.292,0,0,1-1.345-1.573.866.866,0,0,0-.873-.686.867.867,0,0,0-.874.687,2.279,2.279,0,0,1-2.22,1.745,2.286,2.286,0,0,1-1.186-.334.9.9,0,0,0-.474-.142.932.932,0,0,0-.792.486.85.85,0,0,0,.028.891,2.291,2.291,0,0,1,.16,2.063,2.291,2.291,0,0,1-1.572,1.346.865.865,0,0,0-.686.873.866.866,0,0,0,.687.873,2.291,2.291,0,0,1,1.57,1.346,2.29,2.29,0,0,1-.16,2.061.853.853,0,0,0-.028.892.934.934,0,0,0,.792.486.907.907,0,0,0,.473-.142,2.288,2.288,0,0,1,1.189-.333A2.268,2.268,0,0,1-2871.219-278.643Zm-1.243-5.357a3.465,3.465,0,0,1,3.462-3.462,3.465,3.465,0,0,1,3.461,3.462,3.465,3.465,0,0,1-3.461,3.461A3.465,3.465,0,0,1-2872.462-284Zm1.385,0a2.079,2.079,0,0,0,2.077,2.077,2.08,2.08,0,0,0,2.077-2.077,2.079,2.079,0,0,0-2.077-2.077A2.079,2.079,0,0,0-2871.077-284Z" transform="translate(2881.25 296.25)" fill="#262626"/></svg>