<svg xmlns="http://www.w3.org/2000/svg" width="24" height="24" viewBox="0 0 24 24"><path d="M0,0H24V24H0Z" fill="none"/><path d="M-2989.585-444.026a9.113,9.113,0,0,1-5.748-2.641,9.116,9.116,0,0,1-2.641-5.748,9.113,9.113,0,0,1,1.741-6.081,9.112,9.112,0,0,1,5.283-3.48.766.766,0,0,1,.076-.013,1.612,1.612,0,0,1,.18-.01,1.547,1.547,0,0,1,.962.337,1.556,1.556,0,0,1,.57,1.043c0,.024,0,.049,0,.073v6.538a1.169,1.169,0,0,0,1.167,1.167h6.351a1.636,1.636,0,0,1,1.634,1.635.706.706,0,0,1-.018.158,9.137,9.137,0,0,1-3.217,5.082,9.134,9.134,0,0,1-5.647,1.968h-.029C-2989.139-444-2989.363-444.009-2989.585-444.026Zm-6.992-8.5a7.663,7.663,0,0,0,7.1,7.1c.2.014.394.022.59.022a7.667,7.667,0,0,0,7.476-5.862.236.236,0,0,0-.227-.178h-6.351a2.571,2.571,0,0,1-2.568-2.568v-6.486a.135.135,0,0,0-.048-.074.137.137,0,0,0-.081-.03A7.661,7.661,0,0,0-2996.577-452.521Zm11.388-2.655a1.637,1.637,0,0,1-1.635-1.635v-4.2a.7.7,0,0,1,.3-.572.7.7,0,0,1,.637-.089,9.066,9.066,0,0,1,5.565,5.565.7.7,0,0,1-.089.637.7.7,0,0,1-.572.3Zm-.234-1.635a.234.234,0,0,0,.234.234h3.144a7.649,7.649,0,0,0-3.377-3.377Z" transform="translate(3001.366 465.363)" fill="#262626"/></svg>