<svg xmlns="http://www.w3.org/2000/svg" width="24" height="24" viewBox="0 0 24 24"><rect width="24" height="24" fill="none"/><path d="M-3243.538-340.692v-2.11a7.164,7.164,0,0,1-6.462-7.121.692.692,0,0,1,.692-.692.692.692,0,0,1,.693.692,5.776,5.776,0,0,0,5.769,5.77,5.776,5.776,0,0,0,5.77-5.77.692.692,0,0,1,.692-.692.692.692,0,0,1,.692.692,7.164,7.164,0,0,1-6.462,7.121v2.11a.692.692,0,0,1-.692.692A.692.692,0,0,1-3243.538-340.692Zm-3.693-10.154v-2.769a4.39,4.39,0,0,1,4.385-4.385,4.39,4.39,0,0,1,4.385,4.385v2.769a4.389,4.389,0,0,1-4.385,4.385A4.389,4.389,0,0,1-3247.231-350.847Zm1.385-2.769v2.769a3,3,0,0,0,3,3,3,3,0,0,0,3-3v-2.769a3,3,0,0,0-3-3A3,3,0,0,0-3245.846-353.615Z" transform="translate(3255 361)" fill="#1e2631"/></svg>