<svg xmlns="http://www.w3.org/2000/svg" width="24" height="24" viewBox="0 0 24 24"><path d="M0,0H24V24H0Z" fill="none"/><path d="M-3076.384-444a1.617,1.617,0,0,1-1.616-1.615v-12.924a1.617,1.617,0,0,1,1.616-1.615h1.846a.692.692,0,0,1,.692.692.693.693,0,0,1-.692.693h-1.846a.23.23,0,0,0-.231.23v12.924a.231.231,0,0,0,.231.231H-3069a.231.231,0,0,0,.231-.231v-3.693a.692.692,0,0,1,.693-.692.692.692,0,0,1,.692.692v3.693A1.618,1.618,0,0,1-3069-444Zm3-3.452v-.009a.692.692,0,0,1,.692-.693.692.692,0,0,1,.692.693v.009a.692.692,0,0,1-.692.692A.692.692,0,0,1-3073.384-447.452Zm4.02-4.036a.694.694,0,0,1-.328-.589v-1.154h-2.077a.692.692,0,0,1-.692-.692v-7.385a.692.692,0,0,1,.692-.692h9.231a.692.692,0,0,1,.693.692v7.385a.692.692,0,0,1-.693.692h-2.605l-3.547,1.773a.688.688,0,0,1-.31.074A.692.692,0,0,1-3069.364-451.488Zm-1.713-3.127H-3069a.692.692,0,0,1,.693.692v.726l2.69-1.345a.691.691,0,0,1,.31-.073h2.077v-6h-7.847Z" transform="translate(3082.25 465.25)" fill="#262626"/></svg>