<svg xmlns="http://www.w3.org/2000/svg" width="56" height="56" viewBox="0 0 56 56"><path d="M0,0H56V56H0Z" fill="none"/><g transform="translate(10.316 9.317)"><path d="M36.109,17.3H30.715a8.038,8.038,0,0,1-8.027-8.027v-5.4a1.867,1.867,0,0,0-1.867-1.867H12.907a9.851,9.851,0,0,0-10.4,10.4V28.945a9.851,9.851,0,0,0,10.4,10.4H27.579a9.851,9.851,0,0,0,10.4-10.4V19.164a1.867,1.867,0,0,0-1.87-1.864Z" transform="translate(-2.493 -1.993)" fill="#99c9ff"/><path d="M16.776,2.385a1.22,1.22,0,0,0-2.1.821V9.721a5.089,5.089,0,0,0,5.133,4.984c1.773.019,4.237.019,6.347.019a1.167,1.167,0,0,0,.877-2c-2.688-2.707-7.5-7.579-10.267-10.341Z" transform="translate(8.067 -1.977)" fill="#004a9c"/><path d="M19.35,15.05H8.15a1.4,1.4,0,1,1,0-2.8h11.2a1.4,1.4,0,1,1,0,2.8Z" transform="translate(1.199 6.899)" fill="#fff"/><path d="M15.617,19.05H8.15a1.4,1.4,0,1,1,0-2.8h7.467a1.4,1.4,0,1,1,0,2.8Z" transform="translate(1.199 10.366)" fill="#fff"/></g></svg>