<svg xmlns="http://www.w3.org/2000/svg" width="24" height="24" viewBox="0 0 24 24"><g transform="translate(-16 -379)"><rect width="24" height="24" rx="8" transform="translate(16 379)" fill="#fffbe6"/><g transform="translate(19 280)"><g transform="translate(0 106)"><g transform="translate(1.09)"><path d="M38.91,109.164a4.747,4.747,0,0,0-4.111,7.12h8.221a4.747,4.747,0,0,0-4.111-7.12Zm0-1.055a.527.527,0,0,0,.527-.527v-1.055a.527.527,0,0,0-1.055,0v1.055A.527.527,0,0,0,38.91,108.109Zm-6.328,5.273H31.527a.527.527,0,1,0,0,1.055h1.055a.527.527,0,0,0,0-1.055Zm13.711,0H45.238a.527.527,0,0,0,0,1.055h1.055a.527.527,0,0,0,0-1.055Zm-.532-3.428a.527.527,0,0,0-.72-.193l-.913.527a.527.527,0,1,0,.527.914l.913-.527a.527.527,0,0,0,.193-.72Zm-3.95-1.069a.528.528,0,0,0,.72-.193l.527-.913a.527.527,0,1,0-.914-.527l-.527.913A.527.527,0,0,0,41.811,108.886Zm-6.521-.193a.527.527,0,1,0,.914-.527l-.527-.913a.527.527,0,1,0-.914.527Zm-1.6,1.6-.913-.527a.527.527,0,1,0-.527.914l.913.527a.527.527,0,1,0,.527-.914Z" transform="translate(-31 -106)" fill="#ffc53d"/></g><g transform="translate(0 9.492)"><path d="M17.473,376H.527a.527.527,0,0,0,0,1.055H17.473a.527.527,0,0,0,0-1.055Z" transform="translate(0 -376)" fill="#ffc700"/></g></g></g></g></svg>