<svg xmlns="http://www.w3.org/2000/svg" width="56" height="56" viewBox="0 0 56 56"><path d="M0,0H56V56H0Z" fill="none"/><g transform="translate(10.09 10)"><path d="M19493.57,9737.142a8.332,8.332,0,0,0-2.568-3.357v-6.927a1.285,1.285,0,0,1,1.287-1.287h1.928v-.642a1.925,1.925,0,0,1,1.924-1.929H19500a1.929,1.929,0,0,1,1.934,1.929v.642h1.924a1.285,1.285,0,0,1,1.287,1.287v9a1.281,1.281,0,0,1-1.287,1.282Zm0-5.785a4.5,4.5,0,1,0,4.5-4.5A4.5,4.5,0,0,0,19493.57,9731.356Zm1.93-6.428v.642h5.145v-.642a.642.642,0,0,0-.646-.642h-3.857A.641.641,0,0,0,19495.5,9724.929Zm-.641,6.428a3.213,3.213,0,1,1,3.215,3.216A3.213,3.213,0,0,1,19494.859,9731.356Zm1.287,0a.645.645,0,0,0,.641.646h.646v.642a.641.641,0,1,0,1.281,0V9732h.643a.644.644,0,1,0,0-1.287h-.643v-.642a.641.641,0,1,0-1.281,0v.642h-.646A.644.644,0,0,0,19496.146,9731.356Z" transform="translate(-19469.145 -9723)" fill="#004a9c"/><path d="M141.179,159.7a5.118,5.118,0,0,0,.579.037h3.363a3.839,3.839,0,0,1,1.372.257,7.071,7.071,0,1,0-5.314-.3Zm3.021-5.749a2.566,2.566,0,0,1-.643-5.052V148.8a.643.643,0,1,1,1.286,0v.091a2.571,2.571,0,0,1,1.929,2.48.643.643,0,1,1-1.286,0,1.286,1.286,0,1,0-1.286,1.286,2.566,2.566,0,0,1,.643,5.052v.091a.643.643,0,0,1-1.286,0v-.091a2.571,2.571,0,0,1-1.929-2.48.643.643,0,0,1,1.286,0,1.286,1.286,0,1,0,1.286-1.286Z" transform="translate(-127.486 -135.947)" fill="#004a9c"/><path d="M19491.643,9737.787a.64.64,0,0,1-.641-.643v-13.5a.637.637,0,0,1,.641-.642h3.215a.641.641,0,0,1,.643.642v13.5a.644.644,0,0,1-.643.643Zm5.141-.643v-12.858h1.162a5.225,5.225,0,0,1,3.26,1.146,6.552,6.552,0,0,0,4.066,1.426h3.367a2.577,2.577,0,0,1,2.2,1.245,1.827,1.827,0,0,1-.207,1.97h-3.738a6.463,6.463,0,0,0-3.568,1.078l-.471.313a.644.644,0,1,0,.721,1.068l.461-.313a5.151,5.151,0,0,1,2.857-.862h5.713a3.117,3.117,0,0,0,1.02-.167l11.895-3.965a1.123,1.123,0,0,1,1.221.354.325.325,0,0,1,.033.044,1.114,1.114,0,0,1-.318,1.622l-12.045,7.336a3.845,3.845,0,0,1-2.006.563Z" transform="translate(-19491 -9701.786)" fill="#99c9ff"/><path d="M59.7,16.333a.553.553,0,0,0,.229.048,8.407,8.407,0,0,1,4.361-4.436,12.392,12.392,0,0,0,.782-4.524V4.5a.649.649,0,0,0-.6-.643A8.451,8.451,0,0,1,60.3,2.528a.654.654,0,0,0-.762.005,8.284,8.284,0,0,1-4.15,1.321.649.649,0,0,0-.6.643l.005,2.924c0,3.077.852,7.12,4.914,8.912ZM56.907,9.5a.643.643,0,0,1,.909,0l.762.762L61.99,5.71a.643.643,0,1,1,1.029.771l-3.857,5.143a.643.643,0,0,1-.469.257h-.046a.643.643,0,0,1-.455-.188l-1.286-1.286A.643.643,0,0,1,56.907,9.5Z" transform="translate(-50.933 -2.239)" fill="#004a9c"/></g></svg>