<svg xmlns="http://www.w3.org/2000/svg" width="24" height="24" viewBox="0 0 24 24"><path d="M0,0H24V24H0Z" fill="none"/><path d="M8.25-.75a9,9,0,1,1-9,9A9.01,9.01,0,0,1,8.25-.75Zm0,16.615A7.615,7.615,0,1,0,.635,8.25,7.624,7.624,0,0,0,8.25,15.865Z" transform="translate(4 4)" fill="#262626"/><path d="M-3332.8-556.8v-2.4h-2.4a.8.8,0,0,1-.8-.8.8.8,0,0,1,.8-.8h2.4v-2.4a.8.8,0,0,1,.8-.8.8.8,0,0,1,.8.8v2.4h2.4a.8.8,0,0,1,.8.8.8.8,0,0,1-.8.8h-2.4v2.4a.8.8,0,0,1-.8.8A.8.8,0,0,1-3332.8-556.8Z" transform="translate(3344.25 572.25)" fill="#262626"/></svg>