<svg xmlns="http://www.w3.org/2000/svg" width="24" height="24" viewBox="0 0 24 24"><rect width="24" height="24" fill="none"/><path d="M9.25,16.45a3.142,3.142,0,0,1-2.312-1L1.82,10A5.852,5.852,0,0,1,.25,5.967,5.852,5.852,0,0,1,1.82,1.94a5.2,5.2,0,0,1,7.43-.248A5.2,5.2,0,0,1,12.841.25h0A5.23,5.23,0,0,1,16.68,1.94a5.852,5.852,0,0,1,1.57,4.028A5.852,5.852,0,0,1,16.68,10l-5.118,5.451A3.142,3.142,0,0,1,9.25,16.45ZM5.659,1.639A3.861,3.861,0,0,0,2.828,2.891a4.558,4.558,0,0,0,0,6.152l5.118,5.451a1.783,1.783,0,0,0,2.608,0l5.118-5.451a4.558,4.558,0,0,0,0-6.152,3.825,3.825,0,0,0-5.662,0,1.042,1.042,0,0,1-1.521,0A3.861,3.861,0,0,0,5.659,1.639Z" transform="translate(2.75 3.75)" fill="#1e2631"/></svg>