<svg xmlns="http://www.w3.org/2000/svg" width="24" height="24" viewBox="0 0 24 24"><path d="M0,0H24V24H0Z" fill="none"/><path d="M-3064-584a9.01,9.01,0,0,1,9-9,9.011,9.011,0,0,1,9,9,9.011,9.011,0,0,1-9,9A9.01,9.01,0,0,1-3064-584Zm1.553,0a7.455,7.455,0,0,0,7.446,7.446,7.455,7.455,0,0,0,7.447-7.446,7.455,7.455,0,0,0-7.447-7.447A7.455,7.455,0,0,0-3062.446-584Zm6.67,4.577v-.009a.777.777,0,0,1,.776-.776.777.777,0,0,1,.777.776v.009a.777.777,0,0,1-.777.777A.777.777,0,0,1-3055.777-579.423Zm0-3.163a2.158,2.158,0,0,1,1.42-2.143,1.6,1.6,0,0,0,1.019-1.534,1.6,1.6,0,0,0-1.109-1.479,1.6,1.6,0,0,0-1.763.556.777.777,0,0,1-1.088.15.778.778,0,0,1-.15-1.089,3.157,3.157,0,0,1,3.476-1.1,3.155,3.155,0,0,1,2.187,2.915,3.156,3.156,0,0,1-2.025,3.03l-.02.007a.6.6,0,0,0-.4.594.777.777,0,0,1-.731.819l-.045,0A.777.777,0,0,1-3055.776-582.585Z" transform="translate(3067.15 596.15)" fill="#262626"/></svg>