<svg xmlns="http://www.w3.org/2000/svg" width="24" height="24" viewBox="0 0 24 24"><path d="M0,0H24V24H0Z" fill="none"/><path d="M-2915.462-446a2.529,2.529,0,0,1-2.538-2.514v-8.229a2.529,2.529,0,0,1,2.538-2.515h.924a1.149,1.149,0,0,0,1.153-1.143,1.61,1.61,0,0,1,1.616-1.6h5.539a1.609,1.609,0,0,1,1.615,1.6,1.15,1.15,0,0,0,1.154,1.143h.923a2.53,2.53,0,0,1,2.539,2.515v8.229a2.53,2.53,0,0,1-2.539,2.514Zm-1.153-10.743v8.229a1.149,1.149,0,0,0,1.153,1.142h12.923a1.149,1.149,0,0,0,1.154-1.142v-8.229a1.15,1.15,0,0,0-1.154-1.143h-.923A2.53,2.53,0,0,1-2906-460.4a.23.23,0,0,0-.23-.229h-5.539a.231.231,0,0,0-.231.229,2.53,2.53,0,0,1-2.538,2.515h-.924A1.149,1.149,0,0,0-2916.615-456.742Zm4.154,3.657a3.449,3.449,0,0,1,3.46-3.429,3.45,3.45,0,0,1,3.462,3.429,3.449,3.449,0,0,1-3.462,3.429A3.449,3.449,0,0,1-2912.461-453.085Zm1.384,0a2.069,2.069,0,0,0,2.077,2.057,2.069,2.069,0,0,0,2.077-2.057,2.069,2.069,0,0,0-2.077-2.057A2.069,2.069,0,0,0-2911.077-453.085Z" transform="translate(2921.25 466.25)" fill="#262626"/></svg>