<svg xmlns="http://www.w3.org/2000/svg" xmlns:xlink="http://www.w3.org/1999/xlink" width="24" height="24" viewBox="0 0 24 24"><defs><clipPath id="a"><rect width="24" height="24" transform="translate(211 382)" fill="#fff"/></clipPath></defs><g transform="translate(-211 -382)" clip-path="url(#a)"><path d="M11.5,20.5A9,9,0,0,1,8.8,2.912V4.824A7.2,7.2,0,1,0,18.176,14.2h1.912A9,9,0,0,1,11.5,20.5Zm8.955-8.1H10.6V2.545c.3-.03.6-.045.9-.045a9,9,0,0,1,8.955,9.9ZM12.4,4.356V10.6h6.244A7.2,7.2,0,0,0,12.4,4.356Z" transform="translate(212.1 383.1)" fill="#262626"/></g></svg>