<svg xmlns="http://www.w3.org/2000/svg" width="24" height="24" viewBox="0 0 24 24"><rect width="24" height="24" fill="none"/><path d="M-2917.524-364.058a.772.772,0,0,1-.476-.713v-13.372a3.861,3.861,0,0,1,3.857-3.857h10.286a3.861,3.861,0,0,1,3.857,3.857v6.172a3.862,3.862,0,0,1-3.857,3.858h-8.938l-3.889,3.888a.772.772,0,0,1-.545.226A.786.786,0,0,1-2917.524-364.058Zm1.068-14.085v11.51l2.8-2.8a.776.776,0,0,1,.546-.226h9.258a2.317,2.317,0,0,0,2.314-2.314v-6.172a2.317,2.317,0,0,0-2.314-2.314h-10.286A2.317,2.317,0,0,0-2916.457-378.143Zm10.8,3.1v-.01a.772.772,0,0,1,.772-.772.771.771,0,0,1,.771.772v.01a.771.771,0,0,1-.771.771A.771.771,0,0,1-2905.657-375.046Zm-4.114,0v-.01a.772.772,0,0,1,.771-.772.771.771,0,0,1,.771.772v.01a.771.771,0,0,1-.771.771A.771.771,0,0,1-2909.771-375.046Zm-4.115,0v-.01a.771.771,0,0,1,.772-.772.771.771,0,0,1,.771.772v.01a.771.771,0,0,1-.771.771A.771.771,0,0,1-2913.886-375.046Z" transform="translate(2921 385)" fill="#262626"/></svg>