<svg xmlns="http://www.w3.org/2000/svg" width="56" height="56" viewBox="0 0 56 56"><path d="M0,0H56V56H0Z" fill="none"/><g transform="translate(10 -9.603)"><path d="M35.4,33.422l-16.5-12a1.369,1.369,0,0,0-1.8,0l-16.5,12c-1.2.75-.45,2.7.9,2.7h3v16.5A1.417,1.417,0,0,0,6,54.12H30a1.417,1.417,0,0,0,1.5-1.5V36.12h3C35.848,36.121,36.6,34.172,35.4,33.422ZM18,51.12a9,9,0,1,1,9-9,9,9,0,0,1-9,9Z" fill="#99c9ff"/><path d="M169.017,228.785v-4.5h-4.5v4.5h-4.5v4.5h4.5v4.5h4.5v-4.5h4.5v-4.5Z" transform="translate(-148.768 -188.914)" fill="#004a9c"/></g></svg>