<svg xmlns="http://www.w3.org/2000/svg" width="56" height="56" viewBox="0 0 56 56"><g transform="translate(-2951 -2698)"><rect width="56" height="56" transform="translate(2951 2698)" fill="none"/><g transform="translate(2957.166 2701.501)"><path d="M11.725,208.432a2.934,2.934,0,0,0-2.94,2.94v14.071a2.934,2.934,0,0,0,2.94,2.94H49.514a2.934,2.934,0,0,0,2.94-2.94v-9.1a2.941,2.941,0,0,0-2.94-2.94H23.1l-.33-2.032a3.046,3.046,0,0,0-2.94-2.94Z" transform="translate(-8.785 -191.649)" fill="#004a9c"/><g transform="translate(4.858)"><path d="M79.725,175.844v34.122h9.81a2.934,2.934,0,0,0,2.94-2.94V178.784a2.943,2.943,0,0,0-2.94-2.94Z" transform="translate(-58.307 -171.132)" fill="#99c9ff"/><path d="M90.308,175.844v34.121h5.631V175.844Z" transform="translate(-64.97 -171.132)" fill="#99c9ff"/><path d="M47.186,201.99a2.934,2.934,0,0,0,2.94-2.94V166.062a2.939,2.939,0,0,0-2.94-2.94H30.539L21.9,171.759V199.05a2.934,2.934,0,0,0,2.94,2.94Z" transform="translate(-21.901 -163.122)" fill="#99c9ff"/><path d="M30.539,163.122,21.9,171.76h5.7a2.934,2.934,0,0,0,2.94-2.94Z" transform="translate(-21.901 -163.122)" fill="#ebf4ff"/></g><path d="M56.749,229.435a.392.392,0,0,0,0,.784h1.618a.392.392,0,1,0,0-.784Z" transform="translate(-38.736 -204.873)" fill="#0072f5"/><path d="M56.749,221.762a.392.392,0,0,0,0,.784h1.618a.392.392,0,1,0,0-.784Z" transform="translate(-38.736 -200.042)" fill="#0072f5"/><path d="M67.332,229.435a.392.392,0,0,0,0,.784h7.5a.392.392,0,1,0,0-.784Z" transform="translate(-45.4 -204.873)" fill="#004a9c"/><path d="M67.332,221.762a.392.392,0,0,0,0,.784h7.5a.392.392,0,1,0,0-.784Z" transform="translate(-45.4 -200.042)" fill="#004a9c"/><path d="M11.725,227.261a2.934,2.934,0,0,0-2.94,2.94v19.363a2.934,2.934,0,0,0,2.94,2.94H49.514a2.934,2.934,0,0,0,2.94-2.94v-14.39a2.941,2.941,0,0,0-2.94-2.94H23.1l-.33-2.032a3.046,3.046,0,0,0-2.94-2.94Z" transform="translate(-8.785 -203.504)" fill="#0072f5"/><path d="M23.206,251.834h7.079a1.467,1.467,0,0,1,1.47,1.47v4.134a1.467,1.467,0,0,1-1.47,1.47H23.206a1.467,1.467,0,0,1-1.47-1.47V253.3A1.467,1.467,0,0,1,23.206,251.834Z" transform="translate(-16.939 -218.975)" fill="#fff"/><path d="M8.785,278.745v3.233a2.934,2.934,0,0,0,2.94,2.94H49.514a2.934,2.934,0,0,0,2.94-2.94v-3.233Z" transform="translate(-8.785 -235.918)" fill="#004a9c"/><path d="M12.057,270.611V271h.784v-.392Zm1.96,0V271H14.8v-.392Zm13.108,0V271h.784v-.392Zm1.96,0V271h.784v-.392Zm1.96,0V271h.784v-.392Zm1.96,0V271h.784v-.392Zm1.96,0V271h.784v-.392Zm1.96,0V271h.784v-.392Zm1.96,0V271h.784v-.392Zm1.96,0V271h.784v-.392Zm1.96,0V271h.784v-.392Zm1.96,0V271h.784v-.392Zm1.96,0V271h.784v-.392Zm1.96,0V271h.784v-.392Zm1.935,0V271h.76v-.392Zm1.734,0V271h.784v-.392Z" transform="translate(-10.845 -230.797)" fill="#e7edfb"/><path d="M55.116,198.154a.4.4,0,0,0-.333.2L52.2,202.817l-1.55-1.55a.392.392,0,0,0-.277-.115h-7.89a.392.392,0,0,0,0,.784h7.727l1.8,1.8a.392.392,0,0,0,.616-.082l2.5-4.321,1.392,2.41a.392.392,0,0,0,.34.2h3.372a.392.392,0,1,0,0-.784H57.08l-1.618-2.8A.392.392,0,0,0,55.116,198.154Z" transform="translate(-29.758 -185.178)" fill="#004a9c"/><path d="M32.161,193.969a2.636,2.636,0,0,0-2.578,2.9c0,2.232,2.684,5.192,5.157,5.855,2.473-.662,5.157-3.622,5.157-5.855a2.6,2.6,0,1,0-5.157,0A2.636,2.636,0,0,0,32.161,193.969Z" transform="translate(-21.879 -182.543)" fill="#e8141b"/></g></g></svg>