<svg xmlns="http://www.w3.org/2000/svg" width="56" height="56" viewBox="0 0 56 56"><path d="M0,0H56V56H0Z" fill="none"/><g transform="translate(24059.803 9170.066)"><path d="M26.669,32.927h-7.49L21.213,30.9a1.584,1.584,0,0,0,0-2.251,3.049,3.049,0,0,0-2.16-.9,3.1,3.1,0,0,0-2.173.9l-1.823,1.816v-.109a2.33,2.33,0,0,0-2.331-2.322H8.517A3.612,3.612,0,0,0,5.182,30.1h-.7A1.6,1.6,0,0,0,2.9,28.725H.763A7.409,7.409,0,0,1,0,25.427V13.989a7.51,7.51,0,0,1,7.529-7.5H9.57V2.78A1.785,1.785,0,0,1,11.357,1H22.84a1.785,1.785,0,0,1,1.787,1.78V6.49h2.042a7.509,7.509,0,0,1,7.529,7.5V25.427a7.509,7.509,0,0,1-7.529,7.5Zm-13.4-15a1.78,1.78,0,1,0,0,3.56H15.31v2.034a1.787,1.787,0,0,0,3.574,0V21.488h2.042a1.78,1.78,0,1,0,0-3.56H18.885V15.9a1.787,1.787,0,1,0-3.574,0v2.033ZM13.144,3.56V6.49h7.91V3.56Z" transform="translate(-24048 -9160.761)" fill="#99c9ff"/><path d="M-1.353,8.5A.647.647,0,0,1-2,7.856V1.622A.647.647,0,0,1-1.353.975H2.629a.647.647,0,0,1,.647.647V7.856a.647.647,0,0,1-.647.647ZM4.569,7.117V2.361h1A2.737,2.737,0,0,1,8.256.283h4.217a1.385,1.385,0,0,1,0,2.77H10.379a.647.647,0,0,0-.646.678.659.659,0,0,0,.664.615h2.347a2.019,2.019,0,0,0,1.436-.6L17.308.624a2.115,2.115,0,0,1,3,0,.646.646,0,0,1,0,.918L15.615,6.235a2.992,2.992,0,0,1-2.129.882Z" transform="translate(-24047.803 -9131.873)" fill="#004a9c"/></g></svg>