<svg xmlns="http://www.w3.org/2000/svg" width="24" height="24" viewBox="0 0 24 24"><rect width="24" height="24" fill="none"/><path d="M8.674,3.4A1.835,1.835,0,0,1,9.745,1.946a5.913,5.913,0,0,1,2.985-.733,5.913,5.913,0,0,1,2.985.733A1.835,1.835,0,0,1,16.788,3.4a1.835,1.835,0,0,1-1.072,1.459,5.913,5.913,0,0,1-2.985.733,5.913,5.913,0,0,1-2.985-.733A1.835,1.835,0,0,1,8.674,3.4Zm-1.212,0a3.019,3.019,0,0,1,1.66-2.5A7.115,7.115,0,0,1,12.731,0,7.115,7.115,0,0,1,16.34.906,3.019,3.019,0,0,1,18,3.4V14.6a3.019,3.019,0,0,1-1.66,2.5A7.116,7.116,0,0,1,12.731,18a7.115,7.115,0,0,1-3.609-.906,3.019,3.019,0,0,1-1.66-2.5V3.4Zm1.212,9.654V14.6a1.835,1.835,0,0,0,1.072,1.459,5.914,5.914,0,0,0,2.985.733,5.914,5.914,0,0,0,2.985-.733A1.835,1.835,0,0,0,16.788,14.6V13.058a4.581,4.581,0,0,1-.448.305,7.116,7.116,0,0,1-3.609.906,7.115,7.115,0,0,1-3.609-.906A4.578,4.578,0,0,1,8.674,13.058Zm8.114-2.193V9.328a4.581,4.581,0,0,1-.448.305,7.116,7.116,0,0,1-3.609.906,7.115,7.115,0,0,1-3.609-.906,4.578,4.578,0,0,1-.448-.305v1.538a1.835,1.835,0,0,0,1.072,1.459,5.914,5.914,0,0,0,2.985.733,5.914,5.914,0,0,0,2.985-.733A1.835,1.835,0,0,0,16.788,10.865ZM9.745,8.593A1.835,1.835,0,0,1,8.674,7.135V5.6a4.571,4.571,0,0,0,.448.305,7.115,7.115,0,0,0,3.609.906A7.115,7.115,0,0,0,16.34,5.9a4.573,4.573,0,0,0,.448-.305V7.135a1.835,1.835,0,0,1-1.072,1.459,5.914,5.914,0,0,1-2.985.733A5.914,5.914,0,0,1,9.745,8.593Zm-6.667-3V5.269a.606.606,0,1,0-1.212,0V5.6a2.005,2.005,0,0,0,.14,4.005h.933a.793.793,0,0,1,0,1.585H.606a.606.606,0,0,0,0,1.212H1.865v.326a.606.606,0,0,0,1.212,0V12.4a2.005,2.005,0,0,0-.14-4.006H2.005a.793.793,0,0,1,0-1.585H4.337a.606.606,0,0,0,0-1.212Z" transform="translate(3.35 3.35)" fill="#1e2631" fill-rule="evenodd"/></svg>