<svg xmlns="http://www.w3.org/2000/svg" width="24" height="24" viewBox="0 0 24 24"><rect width="24" height="24" fill="none"/><path d="M-2800.125,140.5v-.063a4.226,4.226,0,0,1-3.375-4.211,4.288,4.288,0,0,1,1.591-3.372,3.105,3.105,0,0,1-.033-.445,3.112,3.112,0,0,1,3.029-3.182,2.476,2.476,0,0,1,.338.023,5.558,5.558,0,0,1,1.673-1.835,5.13,5.13,0,0,1,2.921-.915,5.17,5.17,0,0,1,3.61,1.48,5.728,5.728,0,0,1,1.638,3.1,4.8,4.8,0,0,1,3.233,4.6,4.758,4.758,0,0,1-3.894,4.763v.055h-10.731Zm-.433-8.091a1.778,1.778,0,0,0,.092.537l.177.56-.485.3a2.817,2.817,0,0,0-1.342,2.424,2.756,2.756,0,0,0,2.682,2.818l8.654,0,.692,0a3.29,3.29,0,0,0,3.2-3.363,3.323,3.323,0,0,0-2.6-3.3l-.51-.1-.05-.543a4.034,4.034,0,0,0-3.939-3.784,3.983,3.983,0,0,0-3.6,2.431l-.257.582-.582-.195a1.541,1.541,0,0,0-.493-.092A1.69,1.69,0,0,0-2800.558,132.41Zm6.537,4.756h-.1a.644.644,0,0,1-.13-.03l-.016-.005h0l-.014-.005h0l-.012-.005,0,0-.011,0-.006,0-.01,0-.006,0-.008,0-.008,0-.008,0-.006,0-.009-.005-.006,0-.01-.005,0,0-.012-.008h0a.689.689,0,0,1-.141-.122l-1.828-1.92a.752.752,0,0,1,0-1.028.668.668,0,0,1,.979,0l.664.7v-2.122a.711.711,0,0,1,.694-.728.71.71,0,0,1,.691.728v2.123l.665-.7a.667.667,0,0,1,.978,0,.753.753,0,0,1,0,1.028l-1.846,1.939-.011.013-.007.006-.006.005-.009.009,0,0-.011.01h0l-.012.011a.686.686,0,0,1-.158.1h0l-.013.006,0,0-.012,0,0,0-.009,0-.008,0-.008,0-.01,0-.005,0-.011,0h0l-.013,0h0l-.013,0h0l-.013,0h0l-.014,0h0l-.014,0h0l-.014,0h-.066Z" transform="translate(2806.5 -121.5)" fill="#262626"/></svg>