<svg xmlns="http://www.w3.org/2000/svg" width="56" height="56" viewBox="0 0 56 56"><path d="M0,0H56V56H0Z" fill="none"/><g transform="translate(10 -19.757)"><path d="M19272.3,9681.76a2.253,2.253,0,0,1-2.252-2.25l0-11.25h18.1a20.358,20.358,0,0,0,7.229,6.307,3.377,3.377,0,0,0,3.354,0,20.253,20.253,0,0,0,7.229-6.3h.092v11.25a2.253,2.253,0,0,1-2.252,2.249Zm2.25-7.875a1.125,1.125,0,0,0,1.125,1.125h4.5a1.125,1.125,0,0,0,0-2.25h-4.5a1.125,1.125,0,0,0-1.178,1.121Zm-4.5-10.125v-4.5a2.253,2.253,0,0,1,2.25-2.25h13.5v2.25a20.265,20.265,0,0,0,.477,4.5Z" transform="translate(-19270 -9618.251)" fill="#99c9ff"/><path d="M273.318,35.474,265.443,32.1a1.129,1.129,0,0,0-.889,0l-7.875,3.375A1.122,1.122,0,0,0,256,36.507v4.5c0,6.19,2.288,9.808,8.44,13.351a1.131,1.131,0,0,0,1.121,0,19.342,19.342,0,0,0,6.166-5.14C273.275,47.168,274,44.5,274,41.007v-4.5A1.121,1.121,0,0,0,273.318,35.474Zm-4.063,5.112-4.5,5.625a1.137,1.137,0,0,1-.88.421h-.047a1.129,1.129,0,0,1-.889-.5l-2.25-3.375a1.125,1.125,0,0,1,1.872-1.246l1.4,2.095,3.537-4.423a1.126,1.126,0,0,1,1.759,1.4Z" transform="translate(-238)" fill="#004a9c"/></g></svg>