<svg xmlns="http://www.w3.org/2000/svg" width="24" height="24" viewBox="0 0 24 24"><path d="M0,0H24V24H0Z" fill="none"/><path d="M-3035.461-404a2.541,2.541,0,0,1-2.538-2.539v-12.922a2.541,2.541,0,0,1,2.538-2.539h6.5a.689.689,0,0,1,.416.166h0l.011.01,0,0,.01.01,0,0,.012.012,4.616,4.616a.712.712,0,0,1,.054.06l0,0,.006.008,0,.007,0,0,.008.011h0a.689.689,0,0,1,.125.363h0v10.188a2.542,2.542,0,0,1-2.539,2.539Zm-1.154-15.461v12.922a1.155,1.155,0,0,0,1.154,1.154h9.23a1.155,1.155,0,0,0,1.154-1.154V-416h-3a1.617,1.617,0,0,1-1.615-1.615v-3h-5.77A1.155,1.155,0,0,0-3036.616-419.461Zm8.308,1.846a.232.232,0,0,0,.231.231h2.021l-2.252-2.252Zm-.461,9.231v-2.769a.692.692,0,0,1,.692-.693.692.692,0,0,1,.692.693v2.769a.692.692,0,0,1-.692.692A.692.692,0,0,1-3028.769-408.385Zm-2.77,0v-.923a.692.692,0,0,1,.693-.692.692.692,0,0,1,.692.692v.923a.692.692,0,0,1-.692.692A.692.692,0,0,1-3031.539-408.385Zm-2.769,0V-413a.692.692,0,0,1,.692-.692.692.692,0,0,1,.693.692v4.616a.692.692,0,0,1-.693.692A.692.692,0,0,1-3034.308-408.385Z" transform="translate(3043 425)" fill="#262626"/></svg>