<svg xmlns="http://www.w3.org/2000/svg" width="56" height="56" viewBox="0 0 56 56"><g transform="translate(-2951 -2698)"><rect width="56" height="56" transform="translate(2951 2698)" fill="none"/><g transform="translate(2954.499 2701.5)"><path d="M0,0H4.668V34.358H0Z" transform="translate(41.634 31.855) rotate(90)" fill="#f26066"/><path d="M22.3,245.394H55.876v4.377H22.3Z" transform="translate(-14.631 -214.915)" fill="#ed1c24"/><path d="M9.022,194.754a3.926,3.926,0,0,0,1.5,5.334l12.924,8.525a3.9,3.9,0,0,0,1.907.5H49.536a3.92,3.92,0,0,0,0-7.839H26.374l-12.036-8.026a3.9,3.9,0,0,0-5.317,1.507Z" transform="translate(-5.942 -181.771)" fill="#ebf4ff"/><path d="M9.057,36.566a3.929,3.929,0,0,0,1.481,5.382l12.944,8.538a3.9,3.9,0,0,0,1.91.5H49.612a3.918,3.918,0,0,0,3.8-3H28.373a8.543,8.543,0,0,1-4.45-1.693Z" transform="translate(-5.949 -23.602)" fill="#99c9ff"/><path d="M59.151,169.866a6.751,6.751,0,1,1-6.751-6.772A6.761,6.761,0,0,1,59.151,169.866Z" transform="translate(-29.362 -163.094)" fill="#e8141b"/><g transform="translate(0 16.481)"><path d="M15.274,83.993V99.456H17.88V97.791H51.512v1.666h2.606V97.791h0V95.176h0V83.993H51.512V95.176H17.88V83.993Z" transform="translate(-10.2 -69.946)" fill="#0072f5"/><path d="M15.274,83.993v4.384H17.88V83.993Zm36.238,0v4.384h2.606V83.993Z" transform="translate(-10.2 -69.946)" fill="#004a9c"/><path d="M4.209,46.063H4.2a1.473,1.473,0,0,0-.782,2.705l11.932,7.805H3.487A1.955,1.955,0,0,0,1.53,58.537v1.374a1.955,1.955,0,0,0,1.957,1.963H48.574a1.955,1.955,0,0,0,1.957-1.963V58.537a1.955,1.955,0,0,0-1.957-1.963H45.466V48.395A1.47,1.47,0,0,0,44,46.923H27.025a1.468,1.468,0,0,0-1.374.956l-3.243,8.695H20.724L5.022,46.3a1.464,1.464,0,0,0-.814-.239Zm23.834,3.8h4.315v6.707H25.541Zm7.25,0h7.238v6.707H35.292Z" transform="translate(-1.53 -46.063)" fill="#0072f5"/></g><path d="M114.1,278.745a3.774,3.774,0,1,1-3.774-3.786A3.78,3.78,0,0,1,114.1,278.745Z" transform="translate(-67.783 -233.53)" fill="#262626"/><path d="M115.918,283.114a1.212,1.212,0,1,1-1.212-1.216A1.214,1.214,0,0,1,115.918,283.114Z" transform="translate(-72.159 -237.899)" fill="#d9d9d9"/><path d="M16.1,278.745a3.774,3.774,0,1,1-3.774-3.786,3.78,3.78,0,0,1,3.774,3.786Z" transform="translate(-5.96 -233.53)" fill="#262626"/><path d="M57,9.738a.978.978,0,0,0-.978.981v1.149H54.875a.978.978,0,0,0-.978.981v1.287a.978.978,0,0,0,.978.981H56.02v1.149a.978.978,0,0,0,.978.981h1.283a.978.978,0,0,0,.978-.981V15.118h1.145a.978.978,0,0,0,.978-.981V12.85a.978.978,0,0,0-.978-.981H59.26V10.72a.978.978,0,0,0-.978-.981Z" transform="translate(-34.564 -6.71)" fill="#fff"/><path d="M17.914,283.114A1.212,1.212,0,1,1,16.7,281.9,1.214,1.214,0,0,1,17.914,283.114Z" transform="translate(-10.337 -237.899)" fill="#d9d9d9"/><path d="M12.315,198.523l-.214.328.654.429.214-.328Zm1.635,1.072-.214.328.655.429.214-.328Zm1.635,1.072-.214.328.654.429.214-.328Zm1.636,1.072-.214.328.654.429.214-.328Zm1.635,1.072-.214.328.655.429.214-.328Zm1.635,1.072-.214.328.654.429.214-.328Zm1.636,1.072-.214.328.654.429.214-.328Zm1.615,1.058-.214.328.635.416.214-.328Zm1.447.948-.214.328.655.429.214-.328Zm1.636,1.072-.214.328.655.429.214-.328Zm1.552,1.017-.214.328.654.429.214-.328Z" transform="translate(-8.198 -185.402)" fill="#0072f5"/></g></g></svg>