<svg xmlns="http://www.w3.org/2000/svg" width="24" height="24" viewBox="0 0 24 24"><rect width="24" height="24" fill="none"/><path d="M10.75,1.846a4.2,4.2,0,0,1,2.6.906l4.81,3.816a4.191,4.191,0,0,1,1.592,3.3v5.767a4.2,4.2,0,0,1-4.19,4.208H14.248a1.571,1.571,0,0,1-1.567-1.571V15.638a1.062,1.062,0,0,0-1.057-1.066H9.876a1.062,1.062,0,0,0-1.057,1.066v2.637a1.571,1.571,0,0,1-1.567,1.571H5.94a4.2,4.2,0,0,1-4.19-4.208V9.871a4.191,4.191,0,0,1,1.592-3.3l4.81-3.816A4.2,4.2,0,0,1,10.75,1.846Zm4.81,16.615a2.818,2.818,0,0,0,2.806-2.823V9.871A2.814,2.814,0,0,0,17.3,7.654l-4.81-3.816a2.792,2.792,0,0,0-3.474,0L4.2,7.654A2.814,2.814,0,0,0,3.135,9.871v5.767A2.818,2.818,0,0,0,5.94,18.462H7.252a.185.185,0,0,0,.182-.187V15.638a2.449,2.449,0,0,1,2.441-2.45h1.749a2.449,2.449,0,0,1,2.441,2.45v2.637a.185.185,0,0,0,.182.187Z" transform="translate(1 0.904)" fill="#1e2631"/></svg>