<svg xmlns="http://www.w3.org/2000/svg" width="24" height="24" viewBox="0 0 24 24"><rect width="24" height="24" fill="none"/><path d="M-3679.429-278.461v-.23h-3.885a.687.687,0,0,1-.664-.516.694.694,0,0,1,.325-.778,3.013,3.013,0,0,0,1.48-2.211v-2.726c0-.01,0-.021,0-.032a7.147,7.147,0,0,1,3.695-5.951A2.525,2.525,0,0,1-3676-293a2.525,2.525,0,0,1,2.476,2.094,7.146,7.146,0,0,1,3.695,5.951c0,.011,0,.022,0,.032v2.726a3.015,3.015,0,0,0,1.48,2.211.694.694,0,0,1,.325.778.687.687,0,0,1-.663.516h-3.886v.23A3.449,3.449,0,0,1-3676-275,3.449,3.449,0,0,1-3679.429-278.461Zm1.372,0a2.069,2.069,0,0,0,2.056,2.077,2.07,2.07,0,0,0,2.057-2.077v-.23h-4.114Zm.914-12.012a.733.733,0,0,1-.006.106.69.69,0,0,1-.1.274.685.685,0,0,1-.209.214.581.581,0,0,1-.092.049,5.76,5.76,0,0,0-3.251,4.924v2.753a.687.687,0,0,1-.005.084,4.416,4.416,0,0,1-.761,1.994h11.131a4.413,4.413,0,0,1-.761-1.994.687.687,0,0,1,0-.084v-2.753a5.762,5.762,0,0,0-3.264-4.93.692.692,0,0,1-.393-.626,1.149,1.149,0,0,0-1.143-1.154A1.15,1.15,0,0,0-3677.143-290.473Z" transform="translate(3688.25 296.25)" fill="#102240"/></svg>