<svg xmlns="http://www.w3.org/2000/svg" width="24" height="24" viewBox="0 0 24 24"><path d="M0,0H24V24H0Z" fill="none"/><path d="M8.688,17.555a1.136,1.136,0,0,1-.884-.42,1.948,1.948,0,0,1-.257-1.316V12.757a9.669,9.669,0,0,0-2.814.856,9.784,9.784,0,0,0-3.273,2.554A.684.684,0,0,1,.25,15.73v-.558a9.5,9.5,0,0,1,7.3-9.238V2.572A1.947,1.947,0,0,1,7.8,1.257a1.136,1.136,0,0,1,.912-.42c.406.01.692.255,1.166.661L17.61,8.122a1.662,1.662,0,0,1,.573.688,1.144,1.144,0,0,1,0,.771,1.662,1.662,0,0,1-.573.688L9.882,16.893c-.474.406-.76.651-1.166.661Zm-.456-6.242A.684.684,0,0,1,8.916,12v3.822c0,.033,0,.066,0,.1l.075-.064,7.727-6.623.04-.035-.04-.035L8.992,2.538l-.075-.064c0,.033,0,.066,0,.1V6.491a.684.684,0,0,1-.566.674,8.135,8.135,0,0,0-6.642,6.808,11.064,11.064,0,0,1,6.478-2.658Z" transform="translate(2.884 3)" fill="#262626"/></svg>