<svg xmlns="http://www.w3.org/2000/svg" width="28" height="28" viewBox="0 0 28 28"><rect width="28" height="28" fill="none"/><path d="M11.75,1.846a4.663,4.663,0,0,1,2.886,1.007l5.344,4.241a4.657,4.657,0,0,1,1.769,3.669v6.408a4.671,4.671,0,0,1-4.656,4.676H15.637A1.745,1.745,0,0,1,13.9,20.1v-2.93a1.18,1.18,0,0,0-1.174-1.184H10.778A1.18,1.18,0,0,0,9.6,17.171V20.1a1.745,1.745,0,0,1-1.741,1.746H6.406A4.671,4.671,0,0,1,1.75,17.171V10.763A4.657,4.657,0,0,1,3.519,7.094L8.864,2.853A4.663,4.663,0,0,1,11.75,1.846Z" transform="translate(2.458 2.362)" fill="#004a9c"/></svg>