<svg xmlns="http://www.w3.org/2000/svg" width="24" height="24" viewBox="0 0 24 24"><rect width="24" height="24" fill="none"/><path d="M-3495.615-215.8a4.4,4.4,0,0,1-4.385-4.4V-227.6a4.4,4.4,0,0,1,4.385-4.4h9.23a4.4,4.4,0,0,1,4.385,4.4v7.406a4.4,4.4,0,0,1-4.385,4.4Zm-3-4.4a3.008,3.008,0,0,0,3,3.008h9.23a3.008,3.008,0,0,0,3-3.008v-5.323h-15.23Zm15.23-6.712v-.694a3.008,3.008,0,0,0-3-3.008h-9.23a3.008,3.008,0,0,0-3,3.008v.694Zm-12.723,6.943a.693.693,0,0,1-.692-.695.693.693,0,0,1,.692-.694h4.616a.693.693,0,0,1,.692.694.693.693,0,0,1-.692.695Z" transform="translate(3503.25 236.25)" fill="#1e2631"/></svg>