<svg xmlns="http://www.w3.org/2000/svg" width="24" height="24" viewBox="0 0 24 24"><path d="M0,0H24V24H0Z" fill="none"/><g transform="translate(3.244 3.245)"><path d="M20656.061,22624.066v-1a7.344,7.344,0,0,1-6.609-6.609h-1a.693.693,0,1,1,0-1.387h1a7.359,7.359,0,0,1,6.609-6.619v-1a.692.692,0,1,1,1.385,0v1a7.361,7.361,0,0,1,6.615,6.619h1.006a.693.693,0,0,1,0,1.387h-1.006a7.346,7.346,0,0,1-6.615,6.609v1a.692.692,0,1,1-1.385,0Zm-5.258-8.307a5.953,5.953,0,1,0,5.949-5.955A5.962,5.962,0,0,0,20650.8,22615.76Zm3.076-.006a2.876,2.876,0,1,1,2.873,2.879A2.877,2.877,0,0,1,20653.879,22615.754Zm1.5,0a1.374,1.374,0,1,0,1.373-1.373A1.375,1.375,0,0,0,20655.379,22615.754Z" transform="translate(-20647.998 -22607.002)" fill="#262626"/></g></svg>