<svg xmlns="http://www.w3.org/2000/svg" width="24" height="24" viewBox="0 0 24 24"><rect width="24" height="24" fill="none"/><path d="M8.927.322a.793.793,0,0,1,.786.766c.049,1.727,1,2.851,2.105,4.153,1.284,1.515,2.739,3.232,2.739,6.133A7.061,7.061,0,0,1,7.4,18.322,7.061,7.061,0,0,1,.25,11.374a7.016,7.016,0,0,1,3.433-5.99.785.785,0,0,1,1.185.653A2.97,2.97,0,0,0,5.116,7.2C5.259,5.23,5.909,2,8.526.433A.78.78,0,0,1,8.927.322ZM7.4,16.937a5.676,5.676,0,0,0,5.769-5.563C13.173,8.98,12,7.6,10.763,6.136a9.074,9.074,0,0,1-2.3-3.921C6.4,4.184,6.438,7.822,6.473,8.6a.787.787,0,0,1-.216.576.772.772,0,0,1-.89.164A3.327,3.327,0,0,1,3.627,7.119a5.607,5.607,0,0,0-1.993,4.255A5.676,5.676,0,0,0,7.4,16.937Z" transform="translate(5 2.964)" fill="#1e2631"/></svg>