<svg xmlns="http://www.w3.org/2000/svg" width="24" height="24" viewBox="0 0 24 24"><rect width="24" height="24" fill="none"/><path d="M-3115.847-214.828h-9.467a.686.686,0,0,1-.686-.686.686.686,0,0,1,.686-.685h9.467a2.52,2.52,0,0,1,2.42-1.828,2.52,2.52,0,0,1,2.419,1.828h.324a.685.685,0,0,1,.685.685.686.686,0,0,1-.685.686h-.324a2.519,2.519,0,0,1-2.419,1.828A2.519,2.519,0,0,1-3115.847-214.828Zm1.276-.686a1.144,1.144,0,0,0,1.143,1.143,1.144,1.144,0,0,0,1.142-1.143,1.144,1.144,0,0,0-1.142-1.142A1.144,1.144,0,0,0-3114.571-215.514Zm-9.505-4.8h-1.238A.685.685,0,0,1-3126-221a.686.686,0,0,1,.686-.686h1.238a2.519,2.519,0,0,1,2.419-1.828,2.519,2.519,0,0,1,2.418,1.828h8.553A.686.686,0,0,1-3110-221a.685.685,0,0,1-.685.685h-8.553a2.518,2.518,0,0,1-2.419,1.828A2.519,2.519,0,0,1-3124.076-220.314Zm1.277-.685a1.144,1.144,0,0,0,1.143,1.143,1.144,1.144,0,0,0,1.142-1.143,1.144,1.144,0,0,0-1.142-1.143A1.144,1.144,0,0,0-3122.8-221Zm4.209-4.8h-6.724a.685.685,0,0,1-.686-.685.685.685,0,0,1,.686-.685h6.724a2.517,2.517,0,0,1,2.419-1.828,2.519,2.519,0,0,1,2.42,1.828h3.067a.685.685,0,0,1,.685.685.685.685,0,0,1-.685.685h-3.066a2.52,2.52,0,0,1-2.42,1.829A2.518,2.518,0,0,1-3118.59-225.8Zm1.276-.685a1.144,1.144,0,0,0,1.143,1.143,1.144,1.144,0,0,0,1.143-1.143,1.144,1.144,0,0,0-1.143-1.143A1.144,1.144,0,0,0-3117.314-226.486Z" transform="translate(3130.25 233.25)" fill="#1e2631"/></svg>