<svg xmlns="http://www.w3.org/2000/svg" width="24" height="24" viewBox="0 0 24 24"><rect width="24" height="24" fill="none"/><path d="M-3374-348a9.011,9.011,0,0,1,9-9,9.01,9.01,0,0,1,9,9,9.01,9.01,0,0,1-9,9A9.011,9.011,0,0,1-3374-348Zm1.385,0a7.624,7.624,0,0,0,7.616,7.615,7.623,7.623,0,0,0,7.615-7.615,7.624,7.624,0,0,0-7.615-7.616A7.624,7.624,0,0,0-3372.615-348Zm9.9,3.258-2.77-2.769a.692.692,0,0,1-.2-.489v-4.616a.692.692,0,0,1,.693-.692.692.692,0,0,1,.692.692v4.328l2.566,2.567a.691.691,0,0,1,0,.979.689.689,0,0,1-.49.2A.688.688,0,0,1-3362.72-344.742Z" transform="translate(3377.25 360.25)" fill="#1e2631"/></svg>