<svg xmlns="http://www.w3.org/2000/svg" width="24" height="24" viewBox="0 0 24 24"><rect width="24" height="24" fill="none"/><path d="M-3154.962-363a2.54,2.54,0,0,1-2.538-2.538v-12.924a2.54,2.54,0,0,1,2.538-2.538h7.385a2.541,2.541,0,0,1,2.539,2.538v12.924a2.541,2.541,0,0,1-2.539,2.538Zm-1.154-15.462v12.924a1.156,1.156,0,0,0,1.154,1.154h7.385a1.155,1.155,0,0,0,1.154-1.154v-12.924a1.155,1.155,0,0,0-1.154-1.154h-7.385A1.156,1.156,0,0,0-3156.116-378.462Zm4.154,11.665v-.011a.692.692,0,0,1,.693-.692.692.692,0,0,1,.692.692v.011a.692.692,0,0,1-.692.692A.692.692,0,0,1-3151.962-366.8Zm-.23-9.934a.693.693,0,0,1-.693-.693.692.692,0,0,1,.693-.692h1.846a.692.692,0,0,1,.692.692.693.693,0,0,1-.692.693Z" transform="translate(3163.5 384)" fill="#262626"/></svg>