<svg xmlns="http://www.w3.org/2000/svg" width="24" height="24" viewBox="0 0 24 24"><path d="M0,0H24V24H0Z" fill="none"/><path d="M-3122.572-405a3.432,3.432,0,0,1-3.428-3.429v-1.806c0-.015,0-.03,0-.045v-7.292a3.432,3.432,0,0,1,3.428-3.429h9.144a3.432,3.432,0,0,1,3.428,3.429v7.292c0,.015,0,.03,0,.045v1.806a3.432,3.432,0,0,1-3.428,3.429Zm-2.057-3.429a2.06,2.06,0,0,0,2.057,2.057h9.144a2.059,2.059,0,0,0,2.057-2.057v-1.544l-1.624-1.623a1.157,1.157,0,0,0-1.782,0l-.425.424,1.344,1.344a.685.685,0,0,1,0,.969.683.683,0,0,1-.485.2.683.683,0,0,1-.485-.2l-1.828-1.828-2.738-2.738a1.158,1.158,0,0,0-1.783,0l-3.452,3.451Zm0-9.143v5.659l2.487-2.487.01-.009a2.655,2.655,0,0,1,1.846-.8,2.658,2.658,0,0,1,1.847.8l.009.009,2.258,2.258.43-.43.01-.009a2.655,2.655,0,0,1,1.846-.8,2.655,2.655,0,0,1,1.846.8l.01.009.658.659v-5.659a2.059,2.059,0,0,0-2.057-2.057h-9.144A2.06,2.06,0,0,0-3124.629-417.571Zm9.372,1.6a.685.685,0,0,1-.686-.685.686.686,0,0,1,.686-.685h.009a.686.686,0,0,1,.687.685.686.686,0,0,1-.687.685Z" transform="translate(3130.25 425.25)" fill="#1e2631"/></svg>