<svg xmlns="http://www.w3.org/2000/svg" width="48" height="48" viewBox="0 0 48 48"><rect width="48" height="48" rx="24" fill="#fff7eb"/><g transform="translate(8 8)"><rect width="32" height="32" fill="none"/><path d="M12.31,1.946a4.449,4.449,0,0,0-2.564.82,4.819,4.819,0,0,0-1.7,2.183A5.11,5.11,0,0,0,7.783,7.76a4.951,4.951,0,0,0,1.263,2.491,4.547,4.547,0,0,0,2.363,1.331,4.4,4.4,0,0,0,2.667-.277,4.677,4.677,0,0,0,2.071-1.792,5.053,5.053,0,0,0,.778-2.7,5,5,0,0,0-1.352-3.44A4.5,4.5,0,0,0,12.31,1.946Zm-3.59-.8A6.228,6.228,0,0,1,12.31,0a6.3,6.3,0,0,1,4.569,1.995,7,7,0,0,1,1.893,4.816,7.075,7.075,0,0,1-1.089,3.784,6.548,6.548,0,0,1-2.9,2.509,6.155,6.155,0,0,1-3.733.388,6.365,6.365,0,0,1-3.308-1.864A6.932,6.932,0,0,1,5.973,8.14,7.153,7.153,0,0,1,6.34,4.2,6.747,6.747,0,0,1,8.72,1.148Zm3.6,15.717h0a15.413,15.413,0,0,1,6.419,1.463,16.164,16.164,0,0,1,5.331,4.042,1.01,1.01,0,0,1-.057,1.375.89.89,0,0,1-1.3-.06,14.311,14.311,0,0,0-4.72-3.578,13.646,13.646,0,0,0-5.676-1.3,13.646,13.646,0,0,0-5.676,1.3,14.311,14.311,0,0,0-4.72,3.578.89.89,0,0,1-1.3.06A1.01,1.01,0,0,1,.553,22.37a16.164,16.164,0,0,1,5.331-4.042A15.413,15.413,0,0,1,12.3,16.865Z" transform="translate(3.69 4)" fill="#e1721c" fill-rule="evenodd"/></g></svg>