<svg xmlns="http://www.w3.org/2000/svg" xmlns:xlink="http://www.w3.org/1999/xlink" width="375" height="389" viewBox="0 0 375 389"><defs><clipPath id="a"><path d="M0,0H375V389H0Z" fill="#e1721c"/></clipPath><linearGradient id="b" x1="0.662" y1="-0.022" x2="0.532" y2="0.96" gradientUnits="objectBoundingBox"><stop offset="0" stop-color="#ed9242"/><stop offset="0.134" stop-color="#ed9141"/><stop offset="1" stop-color="#e1721c"/></linearGradient></defs><g clip-path="url(#a)"><path d="M0,0H375V400H0Z" fill="url(#b)"/><g transform="translate(-126.617 -28.2)" opacity="0.08"><path d="M23150.617,21397.918q.422-1.046.867-2.078l-.26-.107c.283-.691.578-1.385.879-2.074l-.277-.113c.287-.691.584-1.381.885-2.066l-.277-.119q.434-1.034.9-2.062l-.291-.125c.295-.689.6-1.373.906-2.057l-.3-.125c.3-.689.6-1.373.914-2.057l-.309-.135c.3-.682.609-1.367.922-2.043l-.314-.139c.3-.686.613-1.365.932-2.045l-.326-.146c.307-.68.619-1.359.938-2.033l-.33-.148c.309-.68.625-1.355.943-2.029l-.342-.156q.466-1.017.953-2.027l-.346-.16c.313-.678.633-1.348.955-2.021l-.348-.162c.314-.676.635-1.346.963-2.018l-.363-.172c.318-.672.643-1.346.971-2.012l-.357-.172q.48-1.008.975-2.01l-.375-.18q.483-1,.98-2l-.373-.18c.324-.672.65-1.336.984-2l-.377-.184c.326-.668.656-1.336.992-2l-.387-.189q.492-1,.994-1.99l-.393-.193c.328-.666.664-1.33,1-1.992l-.395-.2q.5-.993,1-1.98l-.395-.2c25.99-51.816,73.166-87.809,123.127-93.93,20.645-2.533,41.709-.178,62.078,2.1,9.59,1.07,19.514,2.184,29.264,2.766a281.623,281.623,0,0,0,67.3-4.08,121.879,121.879,0,0,0,16.75-31.262c8.99-24.832,9.715-51.441,2.059-74.93l.84-.279c7.727,23.678,6.99,50.5-2.061,75.512a122.965,122.965,0,0,1-16.309,30.723c1.268-.238,2.545-.484,3.811-.738a133.689,133.689,0,0,0,20.1-34.055c10.055-24.719,12.4-50.346,6.6-72.154l.857-.227c5.854,21.994,3.5,47.818-6.635,72.721a134.814,134.814,0,0,1-19.555,33.436q1.752-.36,3.492-.742a147.769,147.769,0,0,0,23.66-36.756c11.156-24.6,15.117-49.258,11.162-69.426l.867-.174c3.992,20.354.012,45.2-11.215,69.969a148.882,148.882,0,0,1-23.006,36.061c1.109-.25,2.213-.506,3.318-.768a164.7,164.7,0,0,0,27.3-39.387c12.068-24.1,17.8-48.406,15.715-66.7l.883-.1c2.1,18.461-3.66,42.953-15.8,67.2a166.217,166.217,0,0,1-26.518,38.607q1.433-.349,2.861-.713a181.73,181.73,0,0,0,31.291-42.018c13.141-23.916,20.529-47.242,20.273-63.988l.885-.014c.264,16.9-7.166,40.383-20.381,64.428a183.473,183.473,0,0,1-30.369,41.154c.895-.232,1.785-.469,2.678-.713,12.877-11.937,24.707-26.861,35.338-44.594,14.193-23.678,23.248-46.01,24.844-61.281l.879.1c-1.6,15.391-10.7,37.859-24.963,61.645-10.328,17.232-21.795,31.83-34.254,43.627.777-.217,1.557-.436,2.332-.66,13.908-12.182,26.975-27.762,39.584-47.148,14.951-22.971,25.951-44.875,29.418-58.588l.859.221c-3.488,13.8-14.529,35.8-29.533,58.855-12.227,18.795-24.889,34.031-38.332,46.078.668-.2,1.342-.4,2.008-.6,14.83-12.33,29.1-28.482,44-49.682,15.4-21.9,28.432-43.322,34.006-55.9l.814.357c-5.6,12.635-18.662,34.111-34.088,56.057-14.414,20.5-28.244,36.3-42.561,48.5l1.67-.527c19.621-15.521,35.43-34.822,48.588-52.211,18.723-24.725,34.287-46.98,38.6-53.219l.732.51c-4.324,6.236-19.895,28.51-38.627,53.246-12.785,16.889-28.061,35.58-46.912,50.9.441-.146.877-.291,1.318-.439,21.029-15.891,38.426-36.385,53.314-54.715,18.217-22.424,34.043-41.7,43.221-50.533l.621.645c-9.146,8.793-24.957,28.049-43.156,50.447-14.424,17.76-31.2,37.553-51.371,53.264.32-.109.645-.223.965-.336,22.619-16.33,41.42-37.959,58.146-57.205,22.576-25.98,38.227-41.619,47.855-47.83l.48.744c-9.555,6.168-25.148,21.754-47.664,47.668-16.162,18.6-34.262,39.426-55.895,55.584l.559-.2c22.006-15.182,40.266-34.963,57.936-54.109q2.59-2.81,5.152-5.58c23.236-25.047,40.893-40.229,52.488-45.105l.346.814c-11.477,4.838-29.031,19.941-52.18,44.9q-2.569,2.769-5.158,5.574c-16.959,18.381-34.463,37.344-55.324,52.3.021-.01.043-.018.064-.025q.794-.527,1.58-1.059c21.078-14.23,38.967-32.678,56.266-50.514,3.4-3.5,6.914-7.125,10.348-10.6,16.758-16.973,40.264-38.1,57.111-42.379l.219.861c-16.645,4.23-40.02,25.254-56.7,42.145-3.426,3.467-6.941,7.09-10.338,10.6-16.223,16.725-32.963,33.986-52.4,47.84q1.119-.735,2.227-1.49c19.592-13.291,36.623-30.145,53.1-46.437,4.984-4.937,10.146-10.037,15.2-14.855,31.852-30.369,51.15-38.318,61.727-39.635l.107.883c-10.439,1.3-29.541,9.2-61.223,39.395-5.051,4.813-10.2,9.91-15.187,14.844-15.5,15.336-31.508,31.166-49.689,44.088q1.365-.9,2.709-1.82c18.283-12.465,34.512-27.967,50.211-42.959,6.473-6.182,13.166-12.57,19.775-18.514,15.086-13.564,43.768-36.4,66.332-36.885l0,.135a53.4,53.4,0,0,1,7.33-1.064q2.669-.568,5.336-.918,2.18-.51,4.369-.9c1.135-.293,2.271-.568,3.412-.818q2.027-.571,3.982-1.045,1.014-.3,2.02-.6a128.978,128.978,0,0,1,14.172-3.895,105.951,105.951,0,0,1,21.834-2.41h.381a83.918,83.918,0,0,1,28.24,4.777l-.3.84c-10.158-3.633-27.223-7.137-49.766-2.471a93.45,93.45,0,0,1,13.492-1.01,76.243,76.243,0,0,1,23.576,3.6l-.277.846c-8.631-2.793-22.6-5.287-41.068-1.865a85.049,85.049,0,0,1,9.369-.529,68.96,68.96,0,0,1,18.969,2.514l-.238.85c-7.031-2.008-17.879-3.633-32.115-1.4q2.408-.164,4.826-.166a61.6,61.6,0,0,1,14.521,1.684l-.209.861a65.941,65.941,0,0,0-25.385-.8q1.184-.047,2.369-.047a54.346,54.346,0,0,1,10.215.939l-.16.875a57.459,57.459,0,0,0-17.783-.449l-.381.148a45.834,45.834,0,0,1,5.313.389l-.119.881a47.238,47.238,0,0,0-7.451-.375,168.974,168.974,0,0,0-25.357,13.055c-16.533,10.26-31.8,22.891-46.576,35.109-11.3,9.342-22.98,19-35.164,27.557a281.756,281.756,0,0,1-41.9,24.32c-.613.3-1.223.6-1.842.9q-2.528,1.3-5.1,2.541c-1,.516-2.008,1.025-3.023,1.525q-4.058,2.153-8.209,4.168-2.6,1.339-5.252,2.621-2.52,1.3-5.082,2.541-2.66,1.377-5.375,2.693-1.8.926-3.615,1.826-3.671,1.954-7.455,3.787-1.928,1-3.9,1.973-3.489,1.863-7.09,3.605-2.127,1.113-4.3,2.178-2.675,1.427-5.426,2.787c-2.416,1.3-4.994,2.609-7.76,3.922q-1.743.9-3.5,1.76-2.8,1.5-5.65,2.895-3.053,1.652-6.164,3.16-2.766,1.491-5.594,2.859-2.64,1.43-5.338,2.742-3.088,1.7-6.252,3.23c-28.713,15.734-62.564,19.561-95.377,23.268q-3.519.4-7.016.8c-28.371,3.264-61.084,7.828-90.367,20.75-31.637,13.961-54.908,36.162-65.523,62.518Zm165.629-87.768-1.244.131q-7.529.768-15.08,1.57c-20.59,2.207-42.439,4.914-63.3,11.471-5.186,1.629-10.285,3.5-15.145,5.551-22.781,9.615-41.994,24.279-55.367,41.844,12.984-16.242,31.221-29.936,52.762-39.232,4.746-2.047,9.744-3.939,14.848-5.617,20.66-6.811,42.014-9.971,62.012-12.373,5.783-.691,11.572-1.332,15.969-1.809l2.01-.221c27.756-3.016,56.209-6.1,82.01-15.588C23369.1,21304.721,23340.613,21307.648,23316.246,21310.15Zm-2.445,2.2-2.012.215c-4.389.482-10.178,1.121-15.961,1.816-19.953,2.391-41.25,5.543-61.84,12.326-5.076,1.678-10.043,3.559-14.773,5.592-20.668,8.924-38.268,21.91-51.062,37.311,12.244-14.1,28.74-25.99,48.457-34.693,29.4-12.969,62.188-17.543,90.619-20.816,2.336-.268,4.674-.527,7.02-.8,25.457-2.875,51.545-5.826,75.32-14.363C23365.434,21306.744,23339.322,21309.578,23313.8,21312.35Zm6.906-4.609q-5.684.548-11.375,1.084l-5.312.5c-24.371,2.318-44.617,4.572-64.777,10.611a164.393,164.393,0,0,0-15.521,5.51c-23.117,9.555-42.721,24.414-56.488,42.389,13.365-16.645,32-30.535,53.895-39.783,4.883-2.064,10.006-3.937,15.223-5.574,20.941-6.58,42.846-9.293,63.482-11.512,5.02-.541,10.055-1.053,15.08-1.57l1.244-.125c25.223-2.592,54.885-5.641,82.246-15.248C23373.559,21301.961,23346.734,21305.215,23320.707,21307.74Zm4.457-2.42c-6.074.553-12.029,1.059-17.051,1.48l-1.768.143c-21.41,1.785-43.559,3.629-64.475,9.607a159.989,159.989,0,0,0-15.9,5.461c-23.609,9.561-43.711,24.75-57.891,43.3,13.768-17.205,32.9-31.422,55.3-40.684a164.059,164.059,0,0,1,15.609-5.539c20.238-6.062,40.527-8.322,64.941-10.645l5.318-.5q5.687-.536,11.369-1.084c27.148-2.635,55.16-6.061,80.855-14.781C23376.148,21299.986,23349.533,21303.092,23325.164,21305.32Zm4.463-2.416c-5.273.457-10.971.9-17.42,1.367l-5.312.381c-20.7,1.465-42.1,2.982-62.395,8.514a154.459,154.459,0,0,0-16.275,5.42c-23.973,9.512-44.479,24.908-59.053,43.891,14.152-17.631,33.689-32.062,56.471-41.285a159.955,159.955,0,0,1,15.984-5.5c21-6,43.189-7.848,64.646-9.639l1.768-.143c5.018-.424,10.971-.922,17.045-1.48,26.975-2.463,56.709-6.006,84.354-15.973C23383.127,21297.135,23355.162,21300.7,23329.627,21302.9Zm4.453-2.416c-5.6.453-11.414.863-17.775,1.256q-4.122.249-8.244.488c-20.191,1.172-41.066,2.379-60.932,7.543a151.193,151.193,0,0,0-16.656,5.377,140.321,140.321,0,0,0-60.369,44.7c14.555-18.15,34.559-32.871,57.793-42.092a154.2,154.2,0,0,1,16.371-5.455c20.383-5.551,41.828-7.068,62.566-8.537l5.313-.381c6.443-.465,12.129-.91,17.4-1.369,39.678-3.418,66.459-9.479,85.865-16.475C23387.6,21294.926,23358.576,21298.5,23334.08,21300.488Zm8.92-4.83c-5.951.422-12.172.773-18.5,1.035-4.295.174-8.584.311-12.871.451-19.592.625-39.855,1.275-59.236,5.859a143.1,143.1,0,0,0-80.545,51.938,144.466,144.466,0,0,1,60.568-44.047,147.231,147.231,0,0,1,17.125-5.367c19.662-4.871,40.223-5.8,60.105-6.693,3.563-.16,7.139-.32,10.713-.5,6.283-.322,12.375-.7,18.115-1.145,34.213-2.607,59.77-7.967,79.217-14.23C23396.137,21289.463,23371.52,21293.615,23343,21295.658Zm-4.457,2.416c-5.748.432-11.85.82-18.145,1.148-3.574.178-7.146.338-10.721.5-19.834.891-40.346,1.813-59.92,6.668a146.471,146.471,0,0,0-17.029,5.336,143.8,143.8,0,0,0-57.6,40.637,142.429,142.429,0,0,1,55.021-38.037,152.064,152.064,0,0,1,16.758-5.408c19.943-5.186,40.865-6.4,61.1-7.574q4.113-.237,8.24-.486c6.354-.393,12.164-.8,17.758-1.254,37.637-3.053,64.232-8.955,83.865-15.777C23398.377,21290.1,23372.777,21295.463,23338.543,21298.074Zm8.918-4.832c-6.1.412-12.451.721-18.871.924-4.926.154-9.928.248-14.771.344-19.436.375-39.531.762-58.8,5.111a141.588,141.588,0,0,0-17.789,5.246,146.142,146.142,0,0,0-64.379,47.361,144.05,144.05,0,0,1,79.33-50.092c19.469-4.605,39.775-5.252,59.418-5.885,4.279-.137,8.566-.273,12.861-.451,6.318-.256,12.535-.605,18.479-1.029,31.924-2.285,58.93-7.219,82.215-15.146.021-.018.045-.035.066-.055C23402.521,21286.76,23376.73,21291.281,23347.461,21293.242Zm4.455-2.414c-6.264.393-12.736.666-19.227.807-5.5.127-11.084.162-16.486.2-19.34.125-39.334.262-58.561,4.391a140.318,140.318,0,0,0-18.162,5.211,147.543,147.543,0,0,0-65.742,48.232,146.992,146.992,0,0,1,63.189-45.639,142.63,142.63,0,0,1,17.895-5.281c19.359-4.367,39.5-4.754,58.979-5.129,4.838-.1,9.84-.189,14.766-.346,6.4-.2,12.736-.51,18.836-.92,29.486-1.98,55.43-6.557,78.221-13.85C23403.729,21285.035,23379.266,21289.111,23351.916,21290.828Zm-91.639,2.018a139.091,139.091,0,0,0-18.543,5.162c-26.152,9.285-49.717,26.721-66.881,48.822a148.377,148.377,0,0,1,64.328-46.229,141.878,141.878,0,0,1,18.275-5.24c19.311-4.146,39.354-4.283,58.74-4.414,5.4-.037,10.977-.072,16.467-.2,6.486-.143,12.941-.418,19.2-.809,28.691-1.8,54.2-6.205,76.879-13.316l.285-.25c-21.98,6.465-46.244,10.49-72.648,12.037-6.408.375-13,.611-19.592.7-6.02.084-12.135.049-18.043.012-3.143-.018-6.3-.035-9.473-.035C23292.969,21289.09,23276.363,21289.553,23260.277,21292.846Zm2.629-3.387a137.784,137.784,0,0,0-18.918,5.115c-26.6,9.289-50.658,27.047-68.248,49.7,17.119-21.275,40.188-38.043,65.7-47.105a140.6,140.6,0,0,1,18.658-5.193c19.311-3.955,39.316-3.842,58.656-3.734,5.908.035,12.012.064,18.02-.018,6.582-.09,13.166-.322,19.555-.7,27.063-1.582,51.863-5.777,74.248-12.535.047-.039.092-.08.137-.123a321.8,321.8,0,0,1-69.869,11.131c-6.561.355-13.271.553-19.959.588-6.5.029-13.094-.084-19.471-.2-5.592-.1-11.236-.2-16.9-.2C23290.609,21286.191,23276.58,21286.789,23262.906,21289.459Zm2.623-3.393a136.308,136.308,0,0,0-19.291,5.082c-27.111,9.307-51.727,27.459-69.756,50.754,17.559-21.916,41.178-39.074,67.215-48.166a138.139,138.139,0,0,1,19.037-5.15c19.346-3.773,39.346-3.422,58.693-3.082,6.371.107,12.963.227,19.447.2,6.676-.035,13.375-.232,19.918-.59q38.6-2.106,71.344-11.574c.137-.131.275-.264.414-.395a317.311,317.311,0,0,1-67.254,10.439c-6.693.34-13.533.5-20.324.477-6.939-.023-13.984-.225-20.8-.428-7.184-.211-14.459-.422-21.758-.422C23290.076,21283.207,23277.672,21283.814,23265.529,21286.066Zm2.631-3.383a135.362,135.362,0,0,0-19.668,5.037c-27.352,9.236-52.3,27.514-70.719,51.117,17.938-22.221,41.889-39.508,68.178-48.529a137.045,137.045,0,0,1,19.418-5.115c19.418-3.6,39.455-3.021,58.832-2.451,6.811.2,13.85.406,20.777.43,6.777.018,13.6-.143,20.275-.477a315.411,315.411,0,0,0,68.613-10.842c.088-.086.176-.174.264-.262a313.611,313.611,0,0,1-64.373,9.574c-6.828.322-13.789.441-20.684.369-7.354-.084-14.826-.387-22.055-.686-8.441-.342-17.012-.687-25.6-.687A190.894,190.894,0,0,0,23268.16,21282.684Zm2.629-3.393a134.762,134.762,0,0,0-20.047,5c-27.885,9.264-53.4,27.959-72.266,52.234,18.381-22.881,42.9-40.584,69.729-49.646a135.836,135.836,0,0,1,19.8-5.066c19.514-3.453,39.609-2.633,59.051-1.846,7.217.291,14.678.594,22.025.678,6.883.076,13.82-.049,20.631-.367a311.949,311.949,0,0,0,65.641-9.928c.109-.111.215-.221.322-.334a309.726,309.726,0,0,1-61.467,8.732c-6.961.3-14.037.385-21.041.256-7.752-.143-15.621-.555-23.232-.947-9.514-.49-19.182-.99-28.863-.99A182.89,182.89,0,0,0,23270.789,21279.291Zm2.629-3.383a134.026,134.026,0,0,0-20.422,4.947c-28.215,9.232-54.121,28.135-73.4,52.82,18.781-23.293,43.7-41.207,70.865-50.232a134.738,134.738,0,0,1,20.186-5.025c19.631-3.3,39.816-2.26,59.342-1.25,7.6.395,15.467.8,23.2.945,6.984.137,14.049.049,20.992-.256a308.158,308.158,0,0,0,62.646-9.049c.123-.131.242-.26.365-.393a306.077,306.077,0,0,1-58.514,7.92c-7.1.279-14.3.326-21.41.143-8.123-.213-16.373-.732-24.352-1.227-10.451-.652-21.1-1.32-31.74-1.32A175.634,175.634,0,0,0,23273.418,21275.908Zm2.629-3.393a133.933,133.933,0,0,0-20.8,4.908c-28.6,9.217-54.973,28.4-74.676,53.59,19.2-23.791,44.578-41.984,72.146-51a133.894,133.894,0,0,1,20.561-4.98c19.764-3.162,40.061-1.891,59.693-.67,7.965.5,16.205,1.016,24.314,1.225,7.09.191,14.271.143,21.35-.143a304.58,304.58,0,0,0,59.619-8.2c.141-.156.279-.311.418-.467a302.151,302.151,0,0,1-55.539,7.135c-7.223.268-14.551.279-21.771.035-8.479-.285-17.094-.91-25.422-1.518-11.295-.824-22.8-1.662-34.309-1.662A170.831,170.831,0,0,0,23276.047,21272.516Zm2.637-3.385a133.061,133.061,0,0,0-21.184,4.867c-29.041,9.219-55.906,28.729-76.041,54.477,19.627-24.348,45.508-42.869,73.518-51.9a133.863,133.863,0,0,1,20.939-4.936c19.918-3.029,40.342-1.541,60.094-.1,8.322.607,16.924,1.23,25.385,1.512,7.2.244,14.508.232,21.707-.031a301.26,301.26,0,0,0,56.572-7.385c.2-.225.389-.447.582-.674a295.116,295.116,0,0,1-52.656,6.537c-7.359.244-14.809.213-22.137-.084-8.822-.357-17.781-1.1-26.443-1.816-12.066-1-24.381-2.027-36.674-2.027A166.023,166.023,0,0,0,23278.684,21269.131Zm2.631-3.385a132.637,132.637,0,0,0-21.561,4.82c-29.5,9.223-56.877,29.086-77.457,55.424,20.066-24.928,46.453-43.8,74.934-52.838a133.09,133.09,0,0,1,21.326-4.9c20.08-2.9,40.646-1.189,60.535.465,8.654.713,17.607,1.457,26.408,1.814,7.309.3,14.734.32,22.064.078a294.04,294.04,0,0,0,53.631-6.76l.475-.572a290.742,290.742,0,0,1-49.615,5.8c-7.482.227-15.051.16-22.5-.184-9.15-.436-18.443-1.3-27.426-2.139-12.777-1.186-25.834-2.4-38.855-2.4A161.7,161.7,0,0,0,23281.314,21265.746Zm5.258-6.775c-39.8,4.877-77.824,28.832-104.672,64.678,21.2-27.412,49.463-48,79.848-57.361a133.5,133.5,0,0,1,22.082-4.812c20.447-2.648,41.334-.51,61.529,1.564,9.295.951,18.9,1.934,28.344,2.439,7.535.4,15.205.506,22.789.3a285.777,285.777,0,0,0,47.395-5.287c.146-.191.295-.385.441-.578a282.38,282.38,0,0,1-66.574,3.928c-9.775-.59-19.709-1.7-29.311-2.768-14.1-1.576-28.529-3.191-42.906-3.189A156.092,156.092,0,0,0,23286.572,21258.971Zm-2.629,3.385a132.315,132.315,0,0,0-21.936,4.783c-29.932,9.223-57.8,29.408-78.82,56.3,20.5-25.479,47.385-44.676,76.3-53.719a133.05,133.05,0,0,1,21.7-4.854c20.262-2.771,40.982-.846,61.018,1.018,8.984.832,18.264,1.7,27.4,2.125,7.418.35,14.961.416,22.428.189a289.871,289.871,0,0,0,50.521-6.008c.168-.209.336-.42.5-.631a286.528,286.528,0,0,1-46.539,5.109c-7.607.207-15.3.1-22.855-.3-9.471-.512-19.084-1.5-28.389-2.453-13.457-1.377-27.217-2.789-40.936-2.789A158.744,158.744,0,0,0,23283.943,21262.355Zm146.885,13.605q1.022-.331,2.035-.668c.053-.043.1-.082.152-.125q-.99.311-1.988.611Zm4.389-1.465c.313-.107.627-.219.939-.326-.3.1-.6.193-.9.289C23435.244,21274.473,23435.23,21274.484,23435.217,21274.5Zm-2.7-.1q1.1-.34,2.189-.691-1.058.316-2.119.625C23432.568,21274.352,23432.545,21274.373,23432.521,21274.395Zm1.455-1.4q1.242-.369,2.475-.748c.113-.1.225-.2.336-.3q-1.225.354-2.457.7C23434.213,21272.764,23434.094,21272.881,23433.977,21272.994Zm4.516-1.385q1.052-.334,2.1-.674c.074-.062.148-.123.223-.184-.687.209-1.371.416-2.061.621C23438.664,21271.453,23438.578,21271.531,23438.492,21271.609Zm-2.881-.248c.9-.258,1.8-.52,2.688-.781l.166-.154c-.877.244-1.76.482-2.643.721C23435.752,21271.217,23435.682,21271.289,23435.611,21271.361Zm7.248-1.18c.592-.2,1.188-.4,1.775-.605l.063-.049c-.57.186-1.143.367-1.715.549Zm-2.643-.18q1.169-.357,2.33-.721c.012-.012.025-.023.039-.035-.756.221-1.508.439-2.264.656Zm-3.2-.1c.953-.262,1.9-.523,2.848-.793.082-.078.162-.154.244-.234-.936.25-1.877.5-2.814.734C23437.2,21269.7,23437.109,21269.8,23437.018,21269.9Zm4.666-1.318c.836-.244,1.668-.492,2.5-.742l.139-.123c-.818.23-1.633.457-2.455.68C23441.809,21268.459,23441.746,21268.521,23441.684,21268.582Zm-3.273-.182c1.006-.262,2-.527,3-.8.1-.1.2-.2.3-.3q-1.485.378-2.977.738C23438.627,21268.164,23438.52,21268.281,23438.41,21268.4Zm7.77-1.174c.738-.229,1.469-.461,2.2-.693-.711.211-1.418.42-2.131.629Zm-3.039-.1c.889-.248,1.779-.5,2.664-.758.07-.064.141-.129.207-.193-.871.236-1.744.471-2.623.7Zm-3.361-.252c1.049-.258,2.1-.525,3.146-.8.119-.123.24-.248.359-.373q-1.562.381-3.127.744C23440.031,21266.588,23439.906,21266.729,23439.779,21266.871Zm7.914-1.061c.816-.244,1.635-.492,2.445-.742.031-.025.061-.053.092-.078q-1.189.343-2.387.676Zm-3.115-.174c.941-.252,1.875-.5,2.811-.766.1-.09.193-.184.287-.275-.924.24-1.854.479-2.785.707Zm-3.439-.336c1.1-.258,2.188-.521,3.283-.793.188-.2.377-.4.564-.607-1.1.258-2.2.51-3.3.756Q23441.411,21264.981,23441.139,21265.3Zm11.09-.885.5-.162-.486.146Zm-3.041-.053c.875-.248,1.744-.5,2.613-.758.064-.057.127-.111.189-.168-.854.236-1.713.469-2.568.7Zm-3.184-.254c.99-.25,1.973-.506,2.957-.77.18-.178.357-.355.537-.535q-1.482.372-2.971.73C23446.354,21263.729,23446.18,21263.918,23446,21264.109Zm-3.4-.572q1.729-.393,3.449-.8c.145-.16.291-.32.436-.484q-1.72.381-3.443.746C23442.9,21263.176,23442.754,21263.357,23442.605,21263.537Zm11.174-.525q1.055-.322,2.107-.65c.021-.018.041-.033.063-.053-.682.2-1.367.4-2.051.592Zm-3.1-.135c.926-.254,1.85-.508,2.771-.77l.488-.455c-.924.248-1.846.49-2.771.729Zm-3.1-.51q1.567-.384,3.129-.785l.383-.4c-1.033.248-2.076.494-3.113.73C23447.84,21262.066,23447.707,21262.217,23447.574,21262.367Zm-3.658-.467c1.193-.256,2.389-.52,3.578-.789.158-.182.314-.361.473-.545-1.189.252-2.387.5-3.58.732C23444.23,21261.5,23444.074,21261.7,23443.916,21261.9Zm11.41-.334q1.14-.334,2.275-.674l.42-.367c-.758.215-1.51.426-2.27.633Zm-2.979-.412q1.479-.387,2.953-.793l.313-.3c-.973.25-1.953.5-2.926.736Zm-3.389-.379q1.635-.381,3.26-.779c.143-.152.285-.3.43-.457-1.082.244-2.17.486-3.252.721C23449.252,21260.432,23449.105,21260.6,23448.959,21260.775Zm10.693-.51c.682-.211,1.365-.424,2.045-.639l.328-.27c-.676.2-1.35.4-2.027.6C23459.883,21260.059,23459.77,21260.162,23459.652,21260.266Zm-14.449-.035c1.238-.25,2.473-.5,3.707-.771.135-.16.266-.316.4-.479q-1.843.363-3.693.705Zm11.881-.367q1.239-.343,2.471-.705c.074-.066.15-.135.223-.2q-1.213.331-2.434.654C23457.258,21259.7,23457.172,21259.779,23457.084,21259.863Zm-3.285-.258c1.033-.26,2.059-.523,3.09-.795.123-.121.242-.242.365-.365-1.02.252-2.045.5-3.068.736C23454.057,21259.324,23453.928,21259.465,23453.8,21259.605Zm-3.475-.455q1.7-.375,3.387-.77c.115-.123.23-.25.344-.377q-1.679.36-3.363.7Zm13.641-.258c.545-.178,1.092-.359,1.633-.541.066-.049.135-.1.2-.154-.529.166-1.066.332-1.6.5C23464.123,21258.76,23464.043,21258.828,23463.965,21258.893Zm-2.467-.309c.758-.225,1.51-.451,2.264-.684l.105-.09c-.736.213-1.471.422-2.209.627C23461.6,21258.486,23461.553,21258.535,23461.5,21258.584Zm-2.9-.229c.873-.232,1.746-.473,2.613-.715l.291-.271c-.857.225-1.725.447-2.586.664C23458.809,21258.143,23458.7,21258.25,23458.6,21258.355Zm-3.361-.332c1.076-.258,2.143-.518,3.217-.789l.266-.271q-1.585.366-3.178.719Zm12.879-.527c.41-.141.816-.281,1.225-.426l.035-.025c-.389.129-.783.258-1.174.385C23468.172,21257.451,23468.143,21257.475,23468.113,21257.5Zm-2.219-.262.936-.3c-.3.088-.6.18-.9.268Zm-2.832-.119c.809-.23,1.617-.467,2.42-.705.064-.055.125-.109.189-.166-.793.221-1.582.436-2.377.65Zm-2.973-.295q1.38-.354,2.752-.725c.061-.057.117-.111.178-.17-.9.225-1.8.445-2.707.66Zm7.418-1.018c.684-.207,1.371-.418,2.053-.631.021-.02.045-.037.066-.055-.664.193-1.332.387-2,.576Zm-2.895-.187c.855-.232,1.713-.473,2.566-.715.021-.02.043-.041.064-.059-.832.221-1.67.438-2.5.652C23464.7,21255.535,23464.656,21255.576,23464.613,21255.615Zm4.494-1.271c.055-.016.115-.033.17-.051-.053.016-.111.031-.164.045Zm111.324-78.215c-6.6,5.938-13.289,12.32-19.756,18.5-14.791,14.123-30.051,28.7-47.078,40.795q1.506-1,2.994-2.018c17.129-11.738,32.6-26.07,47.553-39.932,7.869-7.287,16-14.824,24.117-21.721,12.209-10.371,33.039-26.035,53.381-31.893C23620.162,21142.949,23594.426,21163.551,23580.432,21176.129Zm8.406-3.705c-8.1,6.889-16.229,14.414-24.086,21.7-14.168,13.127-28.795,26.68-44.879,38.07q1.737-1.151,3.455-2.334c16.1-11.078,30.85-24.391,45.111-37.271,9.172-8.281,18.662-16.854,28.246-24.557,11.3-9.074,29.742-22.109,48.99-28.281C23629.41,21143.426,23609.756,21154.656,23588.838,21172.424Zm8.406-3.7c-9.566,7.688-19.043,16.248-28.209,24.523-13.545,12.229-27.521,24.854-42.7,35.6q1.884-1.251,3.736-2.531c15.176-10.484,29.234-22.9,42.84-34.9,10.408-9.189,21.182-18.7,32.207-27.1,10.164-7.74,25.938-18.279,43.23-24.459C23628.387,21145.615,23608.955,21159.313,23597.244,21168.729Zm8.406-3.705c-10.994,8.375-21.75,17.875-32.154,27.055-13.086,11.555-26.594,23.48-41.125,33.715q2.241-1.482,4.443-3.012c14.318-9.941,27.74-21.553,40.709-32.785,11.594-10.035,23.576-20.4,36.016-29.395a173.244,173.244,0,0,1,35.855-20.182C23631.922,21146.516,23615.918,21157.209,23605.65,21165.023Zm8.412-3.7c-12.41,8.965-24.379,19.328-35.955,29.346-12.5,10.822-25.4,21.994-39.148,31.7q2.314-1.541,4.59-3.125c13.551-9.439,26.354-20.334,38.734-30.869,12.707-10.816,25.848-21.994,39.686-31.488a175.6,175.6,0,0,1,25.916-14.887A174.289,174.289,0,0,0,23614.063,21161.322Zm8.406-3.707c-13.795,9.471-26.92,20.637-39.607,31.436-12.082,10.275-24.562,20.891-37.756,30.186q2.619-1.74,5.189-3.541c12.826-8.969,25.045-19.215,36.865-29.121,13.773-11.539,28.021-23.48,43.232-33.4a173.7,173.7,0,0,1,21.555-12.008A170.4,170.4,0,0,0,23622.469,21157.615Zm8.406-3.7c-15.17,9.893-29.389,21.814-43.143,33.344-11.73,9.832-23.859,20-36.6,28.936q2.977-1.978,5.9-4.031c12.158-8.545,23.826-18.193,35.111-27.527,14.789-12.23,30.09-24.885,46.67-35.178,4.5-2.795,9.078-5.355,13.686-7.664A175.853,175.853,0,0,0,23630.875,21153.916Z" transform="translate(-23150.617 -21127.072)" fill="#fff"/></g></g></svg>