<svg xmlns="http://www.w3.org/2000/svg" xmlns:xlink="http://www.w3.org/1999/xlink" width="220" height="191.399" viewBox="0 0 220 191.399"><defs><linearGradient id="a" x1="1.209" y1="0.5" x2="-0.25" y2="0.5" gradientUnits="objectBoundingBox"><stop offset="0" stop-color="#b2caf4" stop-opacity="0"/><stop offset="1" stop-color="#81baff"/></linearGradient><linearGradient id="b" x1="0.561" y1="0.097" x2="0.406" y2="1" gradientUnits="objectBoundingBox"><stop offset="0" stop-color="#edf5ff"/><stop offset="1" stop-color="#a1b6cc"/></linearGradient><linearGradient id="c" x1="0.453" y1="0.076" x2="0.571" y2="1" gradientUnits="objectBoundingBox"><stop offset="0" stop-color="#eef4ff"/><stop offset="1" stop-color="#a1b6cc"/></linearGradient><linearGradient id="d" x1="0.422" y1="1" x2="0.422" y2="-0.441" gradientUnits="objectBoundingBox"><stop offset="0" stop-color="#f7f8f9"/><stop offset="1" stop-color="#d5e4f8"/></linearGradient><linearGradient id="e" x1="0.422" y1="0.997" x2="0.422" y2="0.029" gradientUnits="objectBoundingBox"><stop offset="0" stop-color="#f2f4f9" stop-opacity="0"/><stop offset="1" stop-color="#e7eeff"/></linearGradient><linearGradient id="g" x1="0.422" y1="1" x2="0.422" gradientUnits="objectBoundingBox"><stop offset="0.003" stop-color="#f2f4f9" stop-opacity="0"/><stop offset="0.98" stop-color="#eaf0ff"/></linearGradient><linearGradient id="h" x1="0.57" y1="0.097" x2="0.391" xlink:href="#b"/><linearGradient id="i" x1="0.443" y1="0.076" x2="0.587" xlink:href="#c"/><linearGradient id="j" x1="0.57" y1="0.097" x2="0.391" xlink:href="#b"/><linearGradient id="k" x1="0.443" y1="0.076" x2="0.588" xlink:href="#c"/><linearGradient id="l" x1="0.5" x2="0.5" y2="1" gradientUnits="objectBoundingBox"><stop offset="0" stop-color="#f4f8ff"/><stop offset="1" stop-color="#ccd8eb"/></linearGradient><linearGradient id="m" x1="0.5" x2="0.5" y2="1" gradientUnits="objectBoundingBox"><stop offset="0" stop-color="#e8effb"/><stop offset="1" stop-color="#ccd8eb"/></linearGradient><linearGradient id="o" x1="0.5" y1="0.004" x2="0.5" y2="0.985" gradientUnits="objectBoundingBox"><stop offset="0" stop-color="#dce5f4"/><stop offset="1" stop-color="#f3f9ff"/></linearGradient><linearGradient id="p" x1="0.5" y1="0.004" x2="0.5" y2="0.985" gradientUnits="objectBoundingBox"><stop offset="0" stop-color="#fff"/><stop offset="1" stop-color="#f3f9ff"/></linearGradient><linearGradient id="q" x1="1" y1="0.505" x2="0.059" y2="0.492" gradientUnits="objectBoundingBox"><stop offset="0" stop-color="#e8effb"/><stop offset="1" stop-color="#b4c5dc"/></linearGradient><linearGradient id="s" y1="0.516" x2="0.059" y2="0.471" xlink:href="#q"/><linearGradient id="t" x1="0.5" x2="0.5" y2="1" gradientUnits="objectBoundingBox"><stop offset="0" stop-color="#e6f1fd"/><stop offset="1" stop-color="#aabcd6"/></linearGradient><linearGradient id="u" y1="0.729" x2="0.059" y2="0.094" xlink:href="#q"/><linearGradient id="v" x1="0.5" y1="0.004" x2="0.5" y2="1" gradientUnits="objectBoundingBox"><stop offset="0" stop-color="#fff" stop-opacity="0.635"/><stop offset="1" stop-color="#fff" stop-opacity="0.098"/></linearGradient></defs><g transform="translate(0 -14.4)"><rect width="220" height="191.399" transform="translate(0 14.4)" fill="none"/><g transform="translate(40 51.4)"><ellipse cx="26.86" cy="2.686" rx="26.86" ry="2.686" transform="translate(43.14 111.348)" opacity="0.331" fill="url(#a)"/><g transform="translate(10.744 65.523)" opacity="0.779"><ellipse cx="3.156" cy="0.959" rx="3.156" ry="0.959" transform="translate(5.41 13.905)" fill="#85a0c7" opacity="0.599"/><path d="M11.46,17.36c.9.381,5.087-6.225,5.7-7.989S17.121,5.69,15.71,5.09s-3.05.343-3.661,2.107S10.565,16.979,11.46,17.36Z" transform="translate(-5.667 -2.512)" fill-rule="evenodd" opacity="0.577" fill="url(#b)"/><path d="M5.952,14.855c1.088-.315.928-9.691.4-11.811S4.013-.392,2.3.105-.382,2.724.143,4.845,4.864,15.171,5.952,14.855Z" transform="translate(0 0)" fill-rule="evenodd" fill="url(#c)"/></g><path d="M85.035,84.512a5.206,5.206,0,0,1-.663-.042,7.57,7.57,0,1,1-.8-15.1,7.611,7.611,0,0,1,1.409.131,10.258,10.258,0,0,1,19.347,4.753h6.1a5.128,5.128,0,1,1,0,10.256Z" transform="translate(-58.419 -64)" fill-rule="evenodd" opacity="0.7" fill="url(#d)"/><g transform="translate(0 73.744)"><path d="M0,32.462q12.727-18.65,24.305-18.65t26.486,18.65Z" transform="translate(0 -7.067)" fill-rule="evenodd" fill="url(#e)"/><path d="M61.6,25.4Q75.029,0,90.343,0t55.648,25.4Z" transform="translate(-38.329 0)" fill-rule="evenodd" fill="url(#e)"/><path d="M250.419,31.215q-14.023-19.84-26.451-19.84T184,31.215Z" transform="translate(-110.419 -5.82)" fill-rule="evenodd" fill="url(#g)"/></g><g transform="translate(106.835 58.126)"><ellipse cx="2.421" cy="0.775" rx="2.421" ry="0.775" transform="translate(4.438 9.683)" fill="#85a0c7" opacity="0.67"/><path d="M9.381,12.07c.687.272,3.9-4.449,4.371-5.709A2.349,2.349,0,0,0,12.641,3.3,2.231,2.231,0,0,0,9.833,4.807C9.364,6.068,8.694,11.8,9.381,12.07Z" transform="translate(-4.649 -1.623)" fill-rule="evenodd" opacity="0.577" fill="url(#h)"/><path d="M4.616,10.452c.844-.222.72-6.818.313-8.31A2.69,2.69,0,0,0,1.782.074,2.629,2.629,0,0,0,.111,3.408C.518,4.9,3.772,10.674,4.616,10.452Z" transform="translate(0 0)" fill-rule="evenodd" fill="url(#i)"/></g><g transform="translate(108.256 97.186)" opacity="0.897"><ellipse cx="3.174" cy="0.967" rx="3.174" ry="0.967" transform="translate(7.033 16.625)" fill="#85a0c7" opacity="0.597"/><path d="M15.7,20.6c1.164.461,6.613-7.53,7.408-9.663A3.974,3.974,0,0,0,21.223,5.76a3.782,3.782,0,0,0-4.759,2.548C15.669,10.442,14.535,20.14,15.7,20.6Z" transform="translate(-7.777 -2.835)" fill-rule="evenodd" opacity="0.577" fill="url(#j)"/><path d="M7.91,17.774C9.356,17.4,9.143,6.18,8.445,3.642A4.609,4.609,0,0,0,3.054.126,4.464,4.464,0,0,0,.19,5.8C.888,8.334,6.463,18.152,7.91,17.774Z" transform="translate(0)" fill-rule="evenodd" fill="url(#k)"/></g><g transform="translate(28.747 16.117)"><g transform="translate(0 0)"><path d="M43.5,0H84.653A9.767,9.767,0,0,1,94.42,9.767V63.542A19.535,19.535,0,0,1,74.885,83.076H33.73V9.767A9.767,9.767,0,0,1,43.5,0Z" transform="translate(-17.257)" fill-rule="evenodd" fill="url(#l)"/><path d="M43.5,3H84.653a9.767,9.767,0,0,1,9.767,9.767V65.076A19.535,19.535,0,0,1,74.885,84.611H33.73V12.767A9.767,9.767,0,0,1,43.5,3Z" transform="translate(-17.257 -1.535)" fill-rule="evenodd" fill="url(#m)"/><path d="M9.767,65.8h6.705V116.74H9.767A9.767,9.767,0,0,1,0,106.973V75.564A9.767,9.767,0,0,1,9.767,65.8Z" transform="translate(0 -33.664)" fill-rule="evenodd" fill="url(#m)"/><g transform="translate(20.808 4.702)"><path d="M5.86,0h40.3A5.861,5.861,0,0,1,52.02,5.86V57.067a16.6,16.6,0,0,1-16.6,16.6H0V5.86A5.86,5.86,0,0,1,5.86,0Z" transform="translate(0 0)" fill="url(#o)"/><path d="M5.86,3h40.3A5.861,5.861,0,0,1,52.02,8.86V60.067a16.6,16.6,0,0,1-16.6,16.6H0V8.86A5.86,5.86,0,0,1,5.86,3Z" transform="translate(0 -1.535)" fill-rule="evenodd" fill="url(#p)"/></g><rect width="38.235" height="5.486" rx="2.743" transform="translate(29.565 15.675)" opacity="0.597" fill="url(#q)"/><rect width="38.235" height="5.486" rx="2.743" transform="translate(29.565 27.431)" opacity="0.597" fill="url(#q)"/><rect width="20.678" height="5.486" rx="2.743" transform="translate(29.565 39.187)" opacity="0.597" fill="url(#s)"/><g transform="translate(0 32.133)"><path d="M9.767,0h6.705V42.707A8.236,8.236,0,0,1,0,42.707V9.767A9.767,9.767,0,0,1,9.767,0Z" transform="translate(0)" fill="#c0cee3"/></g></g><g transform="translate(30.938 36.299)"><path d="M11,10.994a18.973,18.973,0,1,1,0,26.826A18.983,18.983,0,0,1,11,10.994Zm2.684,2.683a15.178,15.178,0,1,0,21.47,0A15.17,15.17,0,0,0,13.687,13.676Z" transform="translate(-2.957 -2.941)" fill-rule="evenodd" fill="url(#t)"/><path d="M70.341,67.623,73.7,70.976,74,70.671a1.467,1.467,0,0,1,2.072,0L90.58,85.17a1.465,1.465,0,0,1,.067,2l-.066.07h0l-3.3,3.294a1.467,1.467,0,0,1-2.072,0l-14.507-14.5a1.464,1.464,0,0,1-.067-2l.066-.07h0l.305-.305-3.354-3.353Z" transform="translate(-34.786 -34.757)" fill-rule="evenodd" fill="url(#u)"/><circle cx="15.178" cy="15.178" r="15.178" transform="translate(0 21.465) rotate(-45)" fill="url(#v)"/></g></g></g></g></svg>