<svg xmlns="http://www.w3.org/2000/svg" xmlns:xlink="http://www.w3.org/1999/xlink" width="48" height="48" viewBox="0 0 48 48"><defs><clipPath id="a"><circle cx="24" cy="24" r="24" fill="#fff" stroke="#707070" stroke-width="1"/></clipPath><linearGradient id="b" x1="0.401" y1="0.891" x2="1" y2="0.109" gradientUnits="objectBoundingBox"><stop offset="0" stop-color="#fff2df"/><stop offset="1" stop-color="#fee0bc"/></linearGradient></defs><g transform="translate(20665 14154)"><circle cx="24" cy="24" r="24" transform="translate(-20665 -14154)" fill="#e1721c"/><g transform="translate(-20665 -14154)" clip-path="url(#a)"><g transform="translate(-2.347 3.928)"><path d="M-9.171,131.967c-.43-1.881-3.228-14.134,4.684-15.818S8.1,116.426,11.576,113s4.344-2.867,7.2-2.64,6.165-2.249,7.277-2.993,11.153-5.529,13.72,8.786c.406,6.189.743,12.9-2.1,15.447s.052,4.827,2.1,5.081-.956,4.6-5.681,6.5c-3.142,1.43-23.463,5.53-35.632,1.315C-7.416,141.936-8.741,133.848-9.171,131.967Z" transform="translate(10.504 -102.269)" fill="#ba520d"/><path d="M-18.96,875h51.6l.05,1.488a58.906,58.906,0,0,1-12.3,1.018c-.106,1.471-2.023,1.528-5.274,1.444-1.743.131-2.071.321-2.6.86s-2.929,1.817-6.712,0c-1.153-.5-1.954-.847-3.644.8a2.266,2.266,0,0,1-3.553-.358c-.357-.444-.247-1.346-3.2-1.634q-2.476-.233-1.763-1.441-15.35-.7-13.433-2.18Q-19.384,875-18.96,875Z" transform="translate(20 -839.349)" fill="#fff7eb" opacity="0.4"/><path d="M0,13.682H1.656V4.025l1.87,1.249v6.264L4.68,10.385V2.195h.63v8.033h.511v5.313H7.729V6.294L9.158,8.242h.8v7.649h1.393v2.52h1.417v1.882H12.9L12.763,3.485h1.05v7.373H15.58V8.1h.226V6.572h.982v.759h.427V8.1h.261v.347h1.365v2.415h2.635V9.163h.475V8.442h2.074v6.37h.447v.6h2.314v-8.2h.55V3.657h.387V8.741l.486.735.57-.735h1.371V9.892h1.165V15.41L32.337,16.7l1.011-1.289V10.072h.516v8.989h2.154l.88-.931V9.014h1.8v1.371h2.031l.4-.493V8.242H42v2.615h.16v3.891H42.3v2.106h.1v5.8h.12l.854,2.486.213,3.848h.293l.23-3.848.777-2.486h.124v-5.8h.134V14.748h.115V10.858H45.4v-2.9h.135v-.2h1.575V6.572h.615v.45l.383.4h.437V15.41h.288v.572l.18.359.28-.3V15.41h.387v-.439h.249v-.159h1.493v.894h.213V0H0Z" transform="translate(52.644 28.989) rotate(180)" fill="#fff7eb" opacity="0.3"/><rect width="51.636" height="2.622" transform="translate(1.009 33.029)" fill="#ba520d"/><rect width="51.636" height="0.303" transform="translate(1.009 34.743)" fill="#6e2500"/></g><g transform="translate(4.346 2.001)"><g transform="translate(0 23.603)"><path d="M363.779,160.05q3.109-1.023,3.135.5c.586,1.482.9,3.375-3.135,3.52Q360.4,164.07,363.779,160.05Z" transform="translate(-329.246 -155.598)" fill="#e1721c" fill-rule="evenodd"/><path d="M363.3,159.561l-.085.1-.076.091-.074.09-.072.089-.07.088-.034.044-.067.087-.066.085-.064.084-.062.083-.06.082-.058.081-.057.08-.028.04-.054.079-.052.078-.05.076-.025.038-.048.075-.046.074-.044.073-.042.072-.02.036-.04.07-.019.035-.037.069-.035.068-.033.066q-.081.165-.139.317l-.022.06-.021.059-.019.058a1.769,1.769,0,0,0-.09.523c0,.7.585,1.046,1.732,1.046l.112,0,.055,0,.109-.006.054,0,.106-.007.1-.008.051,0,.1-.009.05-.005.1-.011.048-.006.1-.012.093-.013.091-.014.045-.007.089-.015a2.628,2.628,0,0,0,2.037-1.153l.015-.029a2.673,2.673,0,0,0-.143-2.174l-.033-.086v.008c-.017-1-.988-1.208-2.881-.635l-.121.037-.123.039Zm3.118.536,0,.014a2.658,2.658,0,0,1,.168,2.228,2.762,2.762,0,0,1-2.254,1.154l-.093.012-.047.006-.1.011-.048.005-.1.01-.1.009-.051,0-.1.008-.105.007-.107.006-.054,0-.11,0q-.174,0-.329-.011l-.068-.005-.066-.006-.064-.007c-.752-.093-1.122-.405-1.122-.935v-.023a1.772,1.772,0,0,1,.1-.513l.02-.057q.046-.13.11-.271l.029-.063q.03-.064.064-.129l.035-.066q.036-.067.075-.136l.04-.07.042-.071.022-.036.044-.072.046-.073.024-.037.049-.075.025-.038.052-.076.053-.078.055-.079.057-.08.029-.04.06-.081.061-.082.063-.083.065-.085.067-.086.068-.087.07-.088.072-.089.074-.09.106-.128.111-.036.178-.055.116-.034.169-.048.109-.029C365.611,159.011,366.4,159.24,366.413,160.1Z" transform="translate(-328.787 -155.145)" fill="#483029"/><path d="M.024,1.561Q.246-.52,1.939.173c1.546.931.571,4.082,0,4.082Q-.217,4.7.024,1.561Z" transform="translate(36.197 3.971) rotate(-4)" fill="#e1721c" fill-rule="evenodd"/><path d="M.02,1.66c-.143,2.053.5,2.959,1.924,2.684l.04-.008h0c.123,0,.256-.12.381-.319l.024-.039.024-.041.023-.043.012-.022.023-.046L2.477,3.8,2.5,3.753l.022-.05.011-.026.021-.052.021-.054.02-.055q.02-.056.039-.114l.019-.059.018-.06.017-.061L2.7,3.162,2.72,3.1l.015-.063.014-.064.014-.065q.01-.049.019-.1l.011-.066q.011-.066.02-.134A2.319,2.319,0,0,0,2,.179l-.006,0C.84-.3.175.184.024,1.6ZM1.931.239l.03.012,0,0A2.245,2.245,0,0,1,2.733,2.6l0,.033-.01.066c0,.022-.007.044-.011.066L2.7,2.829l-.006.033-.013.065-.014.064-.007.032-.015.063-.016.062-.017.061-.017.06L2.58,3.3l-.018.058-.019.057-.019.056-.01.028-.02.054-.01.026-.021.052-.021.05-.021.049-.011.024L2.388,3.8l-.022.044-.022.043-.022.041-.034.057-.023.035c-.1.149-.2.237-.285.237H1.971C.566,4.547-.053,3.675.105,1.6.249.257.85-.191,1.931.239Z" transform="translate(36.154 3.933) rotate(-4)" fill="#483029"/><g transform="translate(7.473 0.163)"><path d="M17.448,2.013A35.227,35.227,0,0,1,21.72,4.266c.984.546,1.589.712,3.269,0s2.738,2.944.925,4.1-3.64,2.987-7.434,1.089c1.667,2.958,1.011,14.48-1.309,20.682-1.558,1.3-3.62,1.345-4.158,0-.573-.575-2.591-6.958-2.591-10.982-.2-1.8-1.42-.983-1.42,0S7.557,28.305,6.392,30.135,2.38,32,1.434,30.135-1.836,11.765,2.743.554Q7.524-1.056,17.448,2.013Z" transform="translate(1.76 0)" fill="#fff"/><path d="M228.144,63.586a9.158,9.158,0,0,0,3.359.429,9.065,9.065,0,0,0,4.014-2.029,2.973,2.973,0,0,0,.59-2.787l.859,1.412v2.446l-3.157,2.363-3.384.4-1.432-1.246Z" transform="translate(-207.803 -54.376)" fill="#ba520d" fill-rule="evenodd"/><path d="M-18.758,149.111q-.273,12.082.979,16.467.676,2.908,3.827,2.225l-1.163,1.3-4.29-.009-2.2-3.515.642-4.7.774-7.517-.774-3.023Z" transform="translate(21.607 -136.967)" fill="#ebf4ff" fill-rule="evenodd"/><path d="M119.68,234.282q2.217,9.038,3.05,10.4t3.741.658l-1.322,2.491-3.512-.5-1.127-4.034q-1.036-3.343-1.278-3.343t-.242-3.754Z" transform="translate(-107.539 -215.201)" fill="#e7f2ff" fill-rule="evenodd"/></g><g transform="translate(9.069)"><path d="M.848-1.437a.163.163,0,0,0-.1.093C-1.3,3.674-2.141,10.121-1.989,17.018c.021.962.064,1.926.124,2.863l.02.3q.01.147.021.293l.022.291q.022.29.046.575l.025.284.026.281c.048.512.1,1.009.155,1.486l.031.258.031.254.032.249q.057.432.116.834l.034.227q.061.392.124.749l.036.2a9.671,9.671,0,0,0,.592,2.216c1,1.968,4,1.956,5.241.014a3.889,3.889,0,0,0,.247-.465l.034-.075L5,27.768l.017-.04.034-.082.034-.085.034-.088.035-.09.017-.046.035-.095.017-.048.035-.1.035-.1.035-.1.018-.053.035-.108.035-.11.036-.113.018-.057.036-.117.036-.119.054-.183.036-.125.036-.127.036-.13.054-.2.036-.135.054-.207.036-.141.055-.215.055-.22.036-.149.055-.228.055-.232.055-.237.055-.241L6.3,23.2l.055-.249.073-.338.018-.086q.043-.2.084-.4l.041-.2.027-.135q.032-.158.063-.315l.057-.291.061-.319.059-.314.047-.258.072-.4.059-.339.047-.279L7.112,19l.04-.254.031-.2.028-.19.025-.178.018-.134.016-.126.011-.088.012-.11.008-.076.007-.071.006-.065,0-.059,0-.036v-.093a.954.954,0,0,1,.521-.887l.012,0c.228-.061.432.142.53.684l.01.061q.01.062.018.129l0,.025v-.009a17.877,17.877,0,0,0,.154,2.195l.022.171.023.173.025.174q.013.088.026.176l.028.177.014.089.03.179.031.181.032.182.033.183.035.184.036.185q.018.093.037.186l.038.187.04.188.02.094.041.189.042.19.043.191.022.1.045.192.046.192.047.193.048.193.049.193.025.1.051.194.05.186.033.121.05.18.067.237.05.175.05.173.034.114.051.168.051.165.051.162.05.159.05.156.05.152.05.149.033.1.033.1.049.139.048.135.032.088.032.086.031.084.046.121.046.116.045.111.029.071.029.069.029.067.028.064.028.061.027.059.027.056.026.054.013.026.025.05.025.047.024.044.012.021.023.039.034.054.022.032q.021.03.041.054l.006.007-.012-.028c.582,1.455,2.762,1.438,4.413.065a.163.163,0,0,0,.048-.068l.069-.187c2.138-5.9,2.856-16.478,1.469-20.113l-.038-.1.009,0a5.939,5.939,0,0,0,3.584.553,5.181,5.181,0,0,0,1.408-.481l.089-.046c.12-.062.242-.13.368-.2l.1-.056.1-.059.1-.061.1-.064.1-.066.106-.069.108-.071.11-.074.523-.354.113-.075.07-.046.1-.065.064-.041.031-.02a2.63,2.63,0,0,0,.918-2.926L25.067,3.7l-.019-.068c-.315-1.09-1.1-1.723-1.966-1.357l-.092.039-.09.037-.044.018-.087.035-.085.033-.083.031-.041.015-.08.029-.039.014-.077.026-.038.012-.074.023-.073.022-.071.02a2.264,2.264,0,0,1-1.442-.014L20.61,2.6c-.078-.029-.157-.061-.238-.1l-.061-.029-.062-.03-.031-.016-.064-.032-.065-.034-.066-.035-.062-.034-.068-.045L19.817,2.2l-.078-.05-.08-.05-.083-.051-.085-.052L19.4,1.941l-.089-.053-.138-.081-.095-.055-.1-.055-.1-.056-.153-.085-.158-.087-.108-.059L18.3,1.322l-.172-.091-.177-.092-.182-.094-.25-.127-.194-.1L17.193.756l-.2-.1L16.854.59l-.14-.068L16.428.384l-.146-.07L16.057.208,15.828.1,15.673.028,15.652.02Q5.684-3.062.848-1.437ZM15.6.176l.155.072.3.142.148.07.218.1.213.1.208.1.136.067L17.119.9l.131.065.193.1.188.1.183.094.178.092.173.091.168.089.109.059.107.058.1.057.1.057.149.084.144.082.093.054.091.053.089.053.086.052.084.051.122.076.079.05.076.049.037.024.073.048.088.048.057.031.057.03.056.029.055.028.055.027.054.026.027.012.054.024.027.012.053.022.027.011.053.021.053.019a2.657,2.657,0,0,0,1.864-.077l.084-.029.087-.031.089-.032.091-.034.093-.036.1-.039.148-.062c1.681-.712,2.738,2.944.925,4.1l-.109.07-.109.071-.109.073-.109.074-.387.262-.112.075-.113.075-.114.075c-1.5.983-3.275,1.813-6.272.314C18.3,10.574,17.647,22.1,15.328,28.3c-1.558,1.3-3.62,1.345-4.158,0-.573-.575-2.591-6.958-2.591-10.982-.194-1.778-1.4-1-1.419-.029v.029a6.784,6.784,0,0,1-.069.718l-.022.164-.012.087-.026.182c-.014.094-.029.192-.045.294l-.033.209-.018.108L6.9,19.3l-.039.233-.042.241-.044.248-.023.127L6.7,20.41l-.049.264-.025.134-.052.272-.027.138L6.5,21.5l-.028.14-.057.283q-.058.284-.119.572l-.062.288A22.789,22.789,0,0,1,4.549,28.3c-1.165,1.83-4.013,1.861-4.958,0S-3.68,9.929.9-1.282Q5.681-2.893,15.6.176Z" transform="translate(2.007 1.999)" fill="#483029"/></g><path d="M105.89,170.289a15.494,15.494,0,0,1,5.4-1.4q1.972,0-1.2,1.8a2.3,2.3,0,0,1-.658,2.756,5.114,5.114,0,0,1-3.547,1Z" transform="translate(-93.915 -164.097)" fill="#e1721c" fill-rule="evenodd"/><path d="M110.832,168.391a7.441,7.441,0,0,0-1.135.1l-.108.017-.11.019-.111.02q-.168.031-.342.069l-.117.026-.119.027-.12.029-.122.03-.123.032-.062.016-.125.034-.127.036-.128.037-.13.038-.065.02-.132.04-.067.021-.134.043-.136.044-.137.046-.139.047-.14.048-.071.025-.143.051-.144.052-.146.053-.073.027-.148.056-.149.057-.075.029-.152.059-.153.061-.077.031-.181.073v4.226h.04A5.153,5.153,0,0,0,109,173.021l.029-.025a2.323,2.323,0,0,0,.668-2.7l-.016-.046.067-.038.141-.081.091-.053.088-.052.086-.051.083-.051.12-.074.115-.072.074-.047.071-.046.069-.046.066-.045.032-.022.063-.043.03-.021.059-.042.057-.041.054-.04.052-.04.049-.039.024-.019.046-.038.043-.037.041-.036.038-.035.036-.034.049-.05.03-.032a1.051,1.051,0,0,0,.095-.12c.111-.167.1-.305-.034-.394A1.359,1.359,0,0,0,110.832,168.391Zm0,.081q.12,0,.221.007l.056,0a.841.841,0,0,1,.366.095c.093.061.1.148.01.281a1.123,1.123,0,0,1-.136.162l-.033.032-.035.033-.038.034-.02.017-.041.035-.044.036-.046.037-.048.038-.051.039-.053.04-.028.02-.057.041-.029.021-.061.042-.063.043-.1.066-.069.045-.072.046-.074.047-.076.048-.079.049-.081.05-.126.076-.132.078-.091.053-.141.081-.078.044.011.032a2.264,2.264,0,0,1-.646,2.711l-.036.03a5.068,5.068,0,0,1-3.419.961h-.025v-4.091l.13-.052.153-.061.152-.06.15-.058.149-.057.147-.055.073-.027.145-.053.072-.026.143-.051.141-.05.14-.048.138-.047.069-.023.136-.045.067-.022.134-.042.132-.041.131-.04.129-.038.128-.037.126-.035.125-.034.123-.032.061-.016.121-.03.06-.015.119-.028.117-.027q.233-.052.453-.092l.11-.019.108-.018q.268-.043.518-.068l.1-.009Q110.565,168.473,110.832,168.472Z" transform="translate(-93.455 -163.637)" fill="#483029"/><g transform="translate(0 0.163)"><path d="M9.388,0Q2.237,3.6.789,7.016c-2.744,4.622,2.441,5.45,3.763,5.45,3.038-.087,5.265-.95,6.226-2.452a2.573,2.573,0,0,0-2.23-3.968q-1.3.341-1.355.525" transform="translate(3.427)" fill="#fff"/><path d="M-36.561,62.03q-2.707,4.888,0,5.99t8.181-.4l-1.726,1.827-6.1.9-5.879-.532.6-4.525,1.079-2.076Z" transform="translate(42.081 -56.978)" fill="#ba520d" fill-rule="evenodd"/></g><path d="M8.217,117.886l.072.146q-5.6,2.781-7.693,6.937l-.04.08-.016.045c-.559,1.551-.484,2.579.137,3.275l.02.022.035.038.036.037.055.054.038.035.038.034.039.034.04.033.02.016.042.032.043.031.022.016.044.031.045.03.023.015.047.029.049.029.05.029.051.028.053.028.054.028.056.028.057.027.059.027.061.027.031.013.063.027.065.027.067.027.069.027.071.027.073.027.075.027.077.027.079.027.123.041.129.041.134.042.139.042.145.043.2.059.6.168.085.007c3.038.225,6.1-.759,6.835-2.478l.022-.053q1.144-2.893-1.591-3.536l-.056-.013-.008,0a1.761,1.761,0,0,0-1.746.258L7.409,124l-.1-.127a1.916,1.916,0,0,1,1.89-.32l.034.011.054.013c1.9.451,2.49,1.711,1.727,3.693l-.024.061A4.223,4.223,0,0,1,8.152,129.5a11.482,11.482,0,0,1-4.2.465l-.081-.006-.016,0-.553-.155-.156-.045-.1-.029-.1-.029-.143-.043-.092-.028-.134-.042-.086-.028-.125-.041-.08-.027-.078-.027-.076-.027-.074-.027-.036-.014-.071-.027-.069-.027-.067-.027-.066-.027-.064-.027-.031-.014-.061-.028-.06-.028-.029-.014-.057-.028-.028-.014-.055-.029-.053-.029-.1-.059-.049-.03-.048-.031-.047-.031-.046-.032-.045-.032-.022-.016-.043-.033-.042-.034-.021-.017-.041-.035-.04-.035-.039-.036-.039-.037L.67,128.6l-.038-.038-.019-.019L.577,128.5A2.861,2.861,0,0,1,.2,125.6l.026-.091.028-.093.03-.094q.023-.071.048-.143l.034-.1.017-.049.018-.049,0-.008q2.089-4.221,7.7-7.038Z" transform="translate(3.351 -117.246)" fill="#483029"/><g transform="translate(28.704 35.258) rotate(180)"><g transform="translate(0.2 0.2)"><path d="M2.1,3.956c1.511.662,3.043.388,3.432-.616C5.918,2.359,5.011,1.012,3.5.351,2.011-.288.478-.037.09.967S.608,3.294,2.1,3.956Z" transform="matrix(0.966, -0.259, 0.259, 0.966, 0, 1.454)" fill="#e1721c"/><path d="M4.571,3.548q.071-.686-1-1.932A4.28,4.28,0,0,0,0,.8,5.879,5.879,0,0,1,2.714,0c.869-.046,2.88.453,2.927,1.353s.333,1.579-.057,2.139Q5.195,4.054,4.571,3.548Z" transform="translate(1.202 0.398)" fill="#ba520d" fill-rule="evenodd"/></g><g transform="translate(0 0)"><path d="M2.2,4.268C.626,3.571-.323,2.167.1,1.071S2.149-.313,3.728.364,6.253,2.453,5.856,3.53l-.012.031C5.415,4.67,3.781,4.963,2.2,4.268Zm3.5-.765c.389-.981-.518-2.327-2.029-2.989C2.174-.125.642.126.253,1.13S.771,3.457,2.26,4.119C3.771,4.781,5.3,4.507,5.692,3.5Z" transform="matrix(0.966, -0.259, 0.259, 0.966, 0, 1.539)" fill="#483029"/></g></g><g transform="translate(9.462 29.235)"><g transform="translate(0.2 0.199)"><path d="M2.1.361C3.608-.3,5.141-.027,5.529.977,5.918,1.958,5.011,3.3,3.5,3.966,2.011,4.6.478,4.354.09,3.35S.608,1.022,2.1.361Z" transform="matrix(0.966, 0.259, -0.259, 0.966, 1.117, 0)" fill="#e1721c"/><path d="M19.327,17.894q.071.686-1,1.932a4.28,4.28,0,0,1-3.569.816,5.879,5.879,0,0,0,2.714.8c.869.046,2.88-.453,2.927-1.353s.333-1.579-.057-2.139Q19.951,17.388,19.327,17.894Z" transform="translate(-13.554 -16.216)" fill="#ba520d" fill-rule="evenodd"/></g><g transform="translate(0 0)"><path d="M2.2.374c-1.569.7-2.518,2.1-2.094,3.2s2.048,1.384,3.626.707S6.253,2.19,5.856,1.112l-.012-.031C5.415-.027,3.781-.32,2.2.374Zm3.5.765c.389.981-.518,2.327-2.029,2.989-1.489.639-3.022.388-3.41-.616S.771,1.185,2.26.523C3.771-.138,5.3.136,5.692,1.14Z" transform="matrix(0.966, 0.259, -0.259, 0.966, 1.202, 0)" fill="#483029"/></g></g></g><g transform="matrix(-0.934, -0.358, 0.358, -0.934, 27.622, 31.647)"><g transform="translate(0 0)"><g transform="translate(0 0.163)"><path d="M16.439,22.749c6.8-2.237,10.7-8.965,8.712-15.061C23.159,1.608,16.034-1.5,9.233.717,2.431,2.954-1.472,9.7.52,15.778S9.637,24.987,16.439,22.749Z" transform="translate(0.339 0)" fill="#fff"/><path d="M10.173,20.357Q-2.748,13.269,4.782,0c-5.711,4.146-8,16.746,2.886,19.981A9.8,9.8,0,0,0,10.173,20.357Z" transform="translate(0 3.115)" fill="#d6e1e7" fill-rule="evenodd"/></g><g transform="translate(0.176 0)"><path d="M.529,15.992C-1.492,9.823,2.461,2.989,9.345.725c6.887-2.249,14.1.909,16.124,7.075,2.02,6.181-1.929,13-8.816,15.267S2.551,22.164.529,15.992ZM16.6,22.912c6.8-2.237,10.7-8.965,8.712-15.061C23.322,1.771,16.2-1.342,9.4.879,2.594,3.117-1.309,9.861.683,15.941S9.8,25.149,16.6,22.912Z" transform="translate(0)" fill="#483029"/></g><path d="M4.26.47C1.637,4.086,1.279,6.064,1.279,6.064.518,5.821,0,5.626,0,5.626A24.7,24.7,0,0,1,3,0Z" transform="matrix(-0.799, 0.602, -0.602, -0.799, 19.315, 21.174)" fill="#e1721c"/><path d="M3.012.034l-.067.1-.071.1L2.813.323,2.75.417l-.066.1-.1.154L2.511.776c-.375.574-.751,1.184-1.1,1.8C1.113,3.1.848,3.614.621,4.1A11.335,11.335,0,0,0,0,5.685a.081.081,0,0,0,.041.1l.012.005.17.062L.373,5.9l.1.035.162.056L.8,6.048l.086.029.175.058.18.059.092.029a.081.081,0,0,0,.1-.063l0-.022L1.453,6.1l.007-.03.013-.052.007-.028L1.5,5.934l.018-.063.02-.067a9.925,9.925,0,0,1,.406-1.067q.04-.09.081-.181l.057-.123.059-.124L2.2,4.184l.031-.063.064-.128Q2.44,3.7,2.607,3.4l.075-.135q.4-.713.919-1.5l.1-.151.051-.076.1-.153q.183-.269.381-.546L4.35.679,4.408.6A.081.081,0,0,0,4.37.475L3.107.005A.081.081,0,0,0,3.012.034Zm.1.145,1.1.411L4.16.664,4.1.744,3.991.9q-.111.158-.218.313l-.105.155-.1.153-.1.152-.1.151q-.195.3-.372.589l-.087.144q-.086.143-.168.283l-.081.14q-.28.486-.508.939l-.064.129q-.048.1-.093.19l-.059.125q-.073.155-.139.307c-.158.357-.279.674-.37.95l-.029.09-.014.044-.011.035-.02.067-.018.063-.016.059L1.3,6.041l-.1-.031L1.115,5.98.941,5.923.772,5.865.607,5.809l-.22-.077L.236,5.678l-.054-.02L.2,5.607A11.6,11.6,0,0,1,.769,4.168c.225-.481.489-.987.784-1.509.348-.616.722-1.223,1.1-1.794l.1-.159.1-.15.064-.1L3.009.325Z" transform="matrix(-0.799, 0.602, -0.602, -0.799, 19.43, 21.19)" fill="#483029"/></g><g transform="translate(4.085 2.452)"><path d="M10.712,14.418c4.482-1.473,7.08-5.78,5.83-9.618C15.275.963,10.615-.98,6.133.493,1.667,1.95-.947,6.257.319,10.095,1.586,13.948,6.23,15.875,10.712,14.418Z" transform="translate(0.163 0.253)" fill-rule="evenodd" fill="url(#b)"/><path d="M.328,10.308C-.968,6.382,1.7,1.985,6.245.5s9.315.477,10.614,4.411c1.269,3.894-1.324,8.238-5.8,9.778l-.136.046C6.361,16.219,1.624,14.25.328,10.308ZM10.875,14.58c4.482-1.473,7.08-5.78,5.83-9.618C15.438,1.125,10.778-.818,6.3.656,1.83,2.113-.784,6.42.483,10.257,1.749,14.111,6.393,16.037,10.875,14.58Z" transform="translate(0 0.09)" fill="#483029"/><g transform="translate(4.128 8.702)"><path d="M.288,1.988A4.106,4.106,0,0,0,2.48.207c.065-.372-.162-.13-.162-.13A20.755,20.755,0,0,1,.012,1.956C-.069,2.086.288,1.988.288,1.988Z" transform="translate(0.332 2.818)"/><path d="M1.269,2.28A1.108,1.108,0,0,0,2,.9,1.057,1.057,0,0,0,.766.03,1.108,1.108,0,0,0,.035,1.406,1.057,1.057,0,0,0,1.269,2.28Z" transform="translate(0 0)"/><path d="M.41.8A.381.381,0,0,0,.6.328.376.376,0,0,0,.215,0,.366.366,0,0,0,.02.474.376.376,0,0,0,.41.8Z" transform="translate(1.005 0.867)" fill="#fff"/><path d="M.182.207c.065-.032.13-.1.1-.146C.263.013.2-.019.117.013A.126.126,0,0,0,0,.159C.019.207.1.224.182.207Z" transform="translate(1.022 0.47)" fill="#fff"/></g><g transform="matrix(-0.819, 0.574, -0.574, -0.819, 15.918, 10.064)"><path d="M.288.035A4.106,4.106,0,0,1,2.48,1.816c.065.372-.162.13-.162.13A20.755,20.755,0,0,0,.012.067C-.069-.062.288.035.288.035Z" transform="translate(0.332 0)"/><path d="M1.269.03A1.108,1.108,0,0,1,2,1.406,1.057,1.057,0,0,1,.766,2.28,1.108,1.108,0,0,1,.035.9,1.057,1.057,0,0,1,1.269.03Z" transform="translate(0 2.531)"/><path d="M.41,0A.381.381,0,0,1,.6.474.376.376,0,0,1,.215.8.366.366,0,0,1,.02.328.376.376,0,0,1,.41,0Z" transform="translate(1.005 3.172)" fill="#fff"/><path d="M.182.006c.065.032.13.1.1.146C.263.2.2.233.117.2A.126.126,0,0,1,0,.055C.019.006.1-.01.182.006Z" transform="translate(1.022 4.158)" fill="#fff"/></g><path d="M.018,8.793a20.082,20.082,0,0,1,6.788-.907,3.309,3.309,0,0,0,3.507-1.1S12.034,5.15,16.37,3.968c0,0-2.485-5.537-10.035-3.53,0,0-6.723,2.332-6.317,8.355Z" transform="translate(0.026)" fill="#e1721c"/><path d="M.018,8.793l.111-.034L.295,8.71.4,8.679l.169-.047.144-.039.1-.028.11-.029.116-.03.122-.031L1.3,8.445l.132-.032.137-.032.07-.016.144-.033L1.927,8.3,2,8.283l.154-.032.158-.032.161-.032.165-.031a14.936,14.936,0,0,1,4.164-.269l.031.009.044.012.029.007.051.012L7,7.934l.043.009.047.009.05.009.054.009.057.008.03,0,.062.008a3.147,3.147,0,0,0,2.93-1.151l.041-.053.033-.03.03-.026.04-.034.05-.041.039-.031.043-.034.048-.037.026-.02.055-.041.06-.044.032-.023.067-.048.072-.05.076-.052.081-.054.086-.057.139-.088.1-.061A19.185,19.185,0,0,1,16.37,3.968l-.012-.026-.015-.031-.01-.02-.025-.048-.015-.028-.035-.064c-.557-1-3.279-5.08-9.924-3.313L6.286.456,6.24.473,6.181.5,6.147.51,6.068.542,5.977.579C4.592,1.164-.331,3.613.018,8.793Zm.151-.216V8.546a7.327,7.327,0,0,1,3.1-6.177A12.164,12.164,0,0,1,5.417,1.016C5.652.9,5.871.8,6.07.717L6.155.682,6.215.658,6.27.636,6.334.612,6.382.594l.076-.02a10.251,10.251,0,0,1,5.1-.162l.062.016a7.287,7.287,0,0,1,4.252,3.01c.095.143.175.276.242.4l.016.029-.05.014q-1.144.323-2.133.71l-.1.041a15.839,15.839,0,0,0-2.778,1.393c-.241.156-.447.3-.617.435L10.4,6.5l-.057.046-.049.041-.052.045-.029.026-.008.007a.163.163,0,0,0-.018.021A2.8,2.8,0,0,1,9,7.62a3.347,3.347,0,0,1-1.892.17c-.06-.011-.115-.023-.164-.034l-.054-.014-.034-.009,0,0a.164.164,0,0,0-.031-.006,10.931,10.931,0,0,0-1.818-.033,20.471,20.471,0,0,0-3.174.462c-.45.1-.874.2-1.261.31L.441,8.5l-.135.038Z" transform="translate(0.026 0)" fill="#483029"/><path d="M1.33,10.341s8.752-.826,15.41-5.181c0,0,.942-.891.276-1.635,0,0-1.332-2.769-3.15-3.222A3.563,3.563,0,0,0,8.881,2.877,1.165,1.165,0,0,1,7.209,3.7S3.474.675.762,4.917A9.429,9.429,0,0,0,.08,9.353s.357,1.085,1.25.988Z" transform="translate(1.208 3.859) rotate(3)" fill="rgba(255,255,255,0.4)"/><path d="M1.541,10.493l-.12.013a1.129,1.129,0,0,1-1.06-.523,2.077,2.077,0,0,1-.21-.356c-.016-.034-.03-.066-.042-.1L.1,9.5l-.01-.028,0-.006,0-.01A5.032,5.032,0,0,1,.009,8.225,9.718,9.718,0,0,1,.384,6.11c.084-.3.174-.573.264-.824l.039-.107L.7,5.146l.024-.063L.754,5l.014-.036.007-.013A5.261,5.261,0,0,1,2.648,3.1a4,4,0,0,1,3.83.091,5.7,5.7,0,0,1,.63.365l.063.043.057.04.052.038.042.032.011.009-.009,0A.96.96,0,0,0,8.665,3.4a1.675,1.675,0,0,0,.169-.319c.015-.038.028-.073.038-.1l.008-.027,0-.011A3.662,3.662,0,0,1,11.257.155a4.116,4.116,0,0,1,2.24,0c.114.029.219.061.312.092l.061.021.04.014.06.023,0,0-.006,0a4.419,4.419,0,0,1,2.268,1.766A10,10,0,0,1,16.9,3.078l.051.089.025.044.047.085.044.081.043.081.043.085.009.019-.008-.009a1.02,1.02,0,0,1,.209.348,1.2,1.2,0,0,1-.221,1.075,2.246,2.246,0,0,1-.183.236l-.016.018-.03.033-.021.021-.018.018-.011.009A33.34,33.34,0,0,1,6.822,9.5c-1.27.321-2.49.571-3.625.759l-.131.021-.166.027-.162.025-.158.024-.154.022-.149.021-.145.02-.14.019-.16.02-.128.016Zm-.165-.147.07-.007.125-.014.157-.018.13-.016.114-.015.14-.018.144-.02.149-.021.076-.011.234-.035.161-.025.082-.013.083-.013c1.167-.189,2.428-.445,3.742-.777l.125-.032a33.194,33.194,0,0,0,9.774-4.073l.09-.059.015-.015.026-.028.029-.032a2.082,2.082,0,0,0,.17-.219,1.052,1.052,0,0,0,.2-.931.859.859,0,0,0-.176-.292.08.08,0,0,1-.013-.019L17,3.586l-.038-.073-.032-.06-.043-.08-.046-.083L16.789,3.2l-.026-.044a9.838,9.838,0,0,0-.657-.989A4.277,4.277,0,0,0,13.928.465l-.012,0-.03-.012L13.853.436,13.815.423l-.02-.007c-.1-.035-.213-.069-.339-.1a3.959,3.959,0,0,0-2.151,0A3.479,3.479,0,0,0,9.055,2.933l-.022.075-.006.019c-.011.035-.025.074-.042.116a1.83,1.83,0,0,1-.186.35,1.12,1.12,0,0,1-1.544.367l-.017-.011-.025-.02-.031-.023-.05-.036-.055-.039-.06-.041a5.54,5.54,0,0,0-.612-.355,3.841,3.841,0,0,0-3.68-.094l-.042.023A5.1,5.1,0,0,0,.947,4.99l-.031.048-.029.074L.852,5.2.827,5.27.8,5.341c-.089.247-.177.52-.26.813a9.56,9.56,0,0,0-.37,2.079l0,.072A4.875,4.875,0,0,0,.23,9.361l.01.055.013.034c.013.032.028.069.046.108a1.916,1.916,0,0,0,.193.328A.977.977,0,0,0,1.375,10.346Z" transform="translate(1.131 3.772) rotate(3)" fill="#483029"/></g></g><path d="M73.5,302a30.728,30.728,0,0,0,7.54,1.947,20.052,20.052,0,0,0,8.084-.93,17.431,17.431,0,0,1-6.563,1.794,72.128,72.128,0,0,1,.256,9.789q5.81.133,8.208-1.452.059.684.081,1.314a22.248,22.248,0,0,1-8.355,1.124,24.99,24.99,0,0,1-.72,4.5,7.761,7.761,0,0,0-.8-.475,39.951,39.951,0,0,0,.64-4.048,76.957,76.957,0,0,1-10.238-1.181,2.623,2.623,0,0,0,0-1.042,81.784,81.784,0,0,0,10.331,1.233,41.692,41.692,0,0,0-.377-9.743A14.032,14.032,0,0,1,73.5,302Z" transform="translate(-62.441 -277.239)" fill="#e1721c"/><path d="M71.812,298.653l.47.339.077.055a14.117,14.117,0,0,0,7.882,2.786l.1,0,.015.1a41.605,41.605,0,0,1,.364,9.4l-.006.081-.122-.005-.2-.01-.2-.011-.206-.012-.208-.013-.21-.014-.212-.015-.214-.016-.216-.016-.218-.017-.219-.018-.221-.019-.111-.01-.224-.021-.113-.011-.341-.033-.23-.023-.116-.012-.233-.025-.234-.026-.236-.027-.238-.028-.12-.014-.241-.029-.243-.03-.245-.031-.247-.032-.248-.033-.25-.034-.252-.035-.127-.018-.255-.036L73.7,310.7l-.259-.038-.26-.039-.262-.04-.264-.041-.266-.042-.268-.043-.27-.044-.136-.022-.273-.045-.274-.046-.415-.071-.139-.024-.251-.044.016.112a2.559,2.559,0,0,1,0,1.007l-.025.087.243.042.309.053.307.052.305.051.152.025.3.049.45.071.3.046.3.045.293.043.146.021.29.042.288.04.286.039.284.038.282.037.28.036.278.034.276.033.274.032.136.015.271.03.269.029.267.028.133.013.264.026.262.025.13.012.259.023.257.022.128.01.254.02.126.009.251.018.249.017.246.015.244.014.121.007.241.012.239.011.237.01h.029l.009-.087a39.878,39.878,0,0,1-.638,4.04l-.013.061.056.028a7.684,7.684,0,0,1,.8.47l.094.063.03-.109.022-.082a22.9,22.9,0,0,0,.584-3.228l.024-.213q.041-.376.074-.768l.012-.147.134,0q.314,0,.621,0h.3l.2,0q1.45-.022,2.717-.156l.174-.019.172-.02.17-.021.169-.022.167-.023.247-.037.163-.026a15.01,15.01,0,0,0,3.009-.784l.116-.045,0-.058q-.023-.632-.082-1.318l-.012-.137-.114.076-.048.031q-2.335,1.5-7.886,1.412l-.144,0,.007-.129.01-.217q0-.055,0-.109l.009-.22.008-.222q0-.112.007-.224l.006-.227,0-.229q0-.057,0-.115l0-.232,0-.234,0-.236q0-.3,0-.6l0-.243,0-.246,0-.248q-.005-.311-.013-.629l-.007-.255q0-.064,0-.128l-.008-.258-.009-.26-.01-.263-.011-.265-.012-.267-.013-.269-.014-.271-.015-.273-.016-.275-.017-.277-.018-.28q0-.07-.009-.141l-.019-.283-.02-.285-.021-.287-.022-.289-.023-.291-.029-.356.1-.006a17.639,17.639,0,0,0,6.409-1.791l-.064-.15a19.81,19.81,0,0,1-8.049.925l-.052,0-.106-.008-.108-.01-.11-.011-.112-.012-.114-.014-.115-.015-.117-.016-.24-.036-.123-.02-.125-.021-.126-.022-.128-.024-.065-.012-.131-.025-.066-.013L77.9,300.5l-.136-.029-.137-.03-.139-.031-.141-.033-.143-.034-.145-.035-.147-.036-.149-.038-.15-.039-.152-.04-.154-.041-.156-.043L76,300.029l-.16-.045-.081-.023-.162-.047-.164-.048-.083-.025-.167-.05-.169-.052-.085-.026-.172-.053-.173-.055-.175-.056-.177-.057-.179-.059-.181-.06-.275-.092-.185-.063-.187-.064-.189-.065-.191-.067-.29-.1-.2-.07Zm1.1.577-.037-.025.278.1.177.061.175.06.174.059.172.057.17.056.169.055.167.054.248.079.244.076.161.049.159.048.157.047.156.046.154.045.153.044.151.043.149.042.148.04.146.039.072.019.144.038.071.018.141.036.14.035.138.034.136.033.135.032.067.015.132.03.131.029.065.014.128.027.127.026.125.025.062.012.122.023.061.011.12.021.118.02.117.019.058.009.114.017.113.016.111.015.11.014.108.013.106.012.053.006.1.01.1.009.1.008.147.01a21.885,21.885,0,0,0,6.56-.49l.057-.014-.044.017a16.415,16.415,0,0,1-5.149,1.182l-.084,0,.031.374.023.288.022.286.021.284.02.282.019.28.018.278.018.276.017.273.016.271q0,.068.008.135l.014.268.013.266.013.264.012.262.011.26.01.258.009.256q0,.064,0,.127l.007.253q0,.063,0,.126l.006.25q0,.124.005.248l0,.246q0,.183,0,.364l0,.24v.238q0,.059,0,.118v.468q0,.232-.005.46l0,.227q0,.169-.008.337l-.006.222q0,.055,0,.11l-.008.219q0,.109-.009.217l-.01.214q-.005.107-.011.212l-.01.189.2,0q5.567.112,7.99-1.373l.034-.021h0q.044.541.065,1.048l0,.068-.07.027a15.867,15.867,0,0,1-3.575.848l-.168.021-.342.04-.173.018-.087.009-.176.017-.178.016-.18.015q-.451.035-.924.057l-.19.008-.192.007-.194.006-.392.009-.2,0-.2,0h-.2q-.356,0-.722,0l-.181,0-.015.186a25.145,25.145,0,0,1-.665,4.211l-.014.054-.028-.018q-.3-.2-.58-.343l-.054-.028-.013.061a40.011,40.011,0,0,0,.641-4.056l.009-.087-.2-.008-.118,0-.238-.01-.24-.012-.242-.013-.244-.014-.246-.015-.248-.017-.376-.027-.253-.02-.127-.01L78,312.238l-.258-.023-.26-.024-.262-.025-.264-.026-.266-.028-.268-.029-.27-.03-.272-.031-.137-.016-.275-.033-.277-.034-.139-.018-.28-.036-.141-.018-.284-.038-.286-.039-.288-.04-.145-.021-.291-.042-.293-.043-.295-.045-.3-.046-.3-.047-.3-.048-.3-.049-.3-.051-.307-.052-.376-.065,0-.017a2.792,2.792,0,0,0,0-.833l0-.027.309.053.415.07.274.046.272.045.27.044.268.043.267.042.265.041.263.04.261.039.259.038.257.037.255.036.254.035.126.017.251.034.249.033.124.016.368.047.243.03.121.015.24.029.239.028.237.027.118.013.234.025.232.025.23.024.228.023.227.022.225.021.223.02.221.019.219.018.217.017.215.016.213.015.212.014.21.013.208.012.206.011.1.005.2.01.2.009.078,0,.006-.078a41.729,41.729,0,0,0-.353-9.6l-.036-.233h-.069A13.759,13.759,0,0,1,72.912,299.23Z" transform="translate(-61.273 -274.165)" fill="#483029"/></g></g></g></svg>