<svg xmlns="http://www.w3.org/2000/svg" width="24" height="24" viewBox="0 0 24 24"><rect width="24" height="24" fill="none"/><path d="M-3372.6-213a4.4,4.4,0,0,1-4.4-4.385v-3.692a4.4,4.4,0,0,1,3.7-4.33v-1.209a4.4,4.4,0,0,1,4.4-4.385,4.4,4.4,0,0,1,4.4,4.385v1.209a4.4,4.4,0,0,1,3.7,4.33v3.692a4.4,4.4,0,0,1-4.4,4.385Zm-3.008-8.077v3.692a3.008,3.008,0,0,0,3.008,3h7.406a3.007,3.007,0,0,0,3.008-3v-3.692a3.007,3.007,0,0,0-3.008-3h-7.406A3.008,3.008,0,0,0-3375.611-221.077Zm9.719-4.385v-1.154a3.008,3.008,0,0,0-3.009-3,3.008,3.008,0,0,0-3.009,3v1.154Zm-3.963,8.1-1.388-1.385a.689.689,0,0,1,0-.979.694.694,0,0,1,.981,0l.9.895,2.286-2.28a.7.7,0,0,1,.982,0,.69.69,0,0,1,0,.979l-2.777,2.769a.693.693,0,0,1-.491.2A.694.694,0,0,1-3369.854-217.357Z" transform="translate(3381 234)" fill="#1e2631"/></svg>