<svg xmlns="http://www.w3.org/2000/svg" width="24" height="24" viewBox="0 0 24 24"><rect width="24" height="24" fill="none"/><path d="M-3681.461-214.6a2.55,2.55,0,0,1-2.539-2.555v-2.787a.694.694,0,0,1,.693-.7,1.159,1.159,0,0,0,1.154-1.16,1.159,1.159,0,0,0-1.154-1.162.694.694,0,0,1-.693-.7v-2.788a2.549,2.549,0,0,1,2.539-2.555h12.923a2.549,2.549,0,0,1,2.539,2.555v2.788a.7.7,0,0,1-.693.7,1.158,1.158,0,0,0-1.153,1.162,1.158,1.158,0,0,0,1.153,1.16.7.7,0,0,1,.693.7v2.787a2.55,2.55,0,0,1-2.539,2.555Zm-1.155-11.845v2.187a2.558,2.558,0,0,1,1.847,2.459,2.557,2.557,0,0,1-1.847,2.457v2.187a1.16,1.16,0,0,0,1.155,1.162h12.923a1.16,1.16,0,0,0,1.155-1.162v-2.187a2.557,2.557,0,0,1-1.846-2.457,2.558,2.558,0,0,1,1.846-2.459v-2.187a1.16,1.16,0,0,0-1.155-1.161h-12.923A1.159,1.159,0,0,0-3682.616-226.446Zm9.132,7.211a.738.738,0,0,1,0-1.04.729.729,0,0,1,1.034,0,.74.74,0,0,1,0,1.04.728.728,0,0,1-.517.215A.726.726,0,0,1-3673.484-219.235Zm-4.072.007a.7.7,0,0,1,0-.986l4.133-4.161a.691.691,0,0,1,.979,0,.7.7,0,0,1,0,.986l-4.134,4.161a.685.685,0,0,1-.489.2A.687.687,0,0,1-3677.556-219.228Zm-.456-3.665a.791.791,0,0,1,0-1.119.791.791,0,0,1,1.12,0,.789.789,0,0,1,0,1.119.787.787,0,0,1-.56.232A.79.79,0,0,1-3678.011-222.893Z" transform="translate(3687.25 234.25)" fill="#1e2631"/></svg>