<svg xmlns="http://www.w3.org/2000/svg" width="32" height="32" viewBox="0 0 32 32"><g transform="translate(23381 12071)"><rect width="32" height="32" rx="16" transform="translate(-23381 -12071)" fill="#f5f5f5"/><g transform="translate(-23377 -12043) rotate(-90)"><path d="M0,0H24V24H0Z" fill="none"/><path d="M12.25,16.417a.974.974,0,0,1-.646-.237L5.517,9.629a.744.744,0,0,1,0-1.142,1,1,0,0,1,1.291,0l5.441,5.98,5.441-5.98a1,1,0,0,1,1.291,0,.744.744,0,0,1,0,1.142L12.9,16.18A.974.974,0,0,1,12.25,16.417Z" transform="translate(-0.25 -0.25)" fill="#262626"/></g></g></svg>