<svg id="Group_16450" data-name="Group 16450" xmlns="http://www.w3.org/2000/svg" width="56" height="56" viewBox="0 0 56 56">
  <path id="Frame" d="M0,0H56V56H0Z" fill="none"/>
  <g id="Group_194208" data-name="Group 194208" transform="translate(10 -9.603)">
    <path id="Path_193615" data-name="Path 193615" d="M35.4,33.422l-16.5-12a1.369,1.369,0,0,0-1.8,0l-16.5,12c-1.2.75-.45,2.7.9,2.7h3v16.5A1.417,1.417,0,0,0,6,54.12H30a1.417,1.417,0,0,0,1.5-1.5v-16.5h3C35.848,36.121,36.6,34.172,35.4,33.422ZM18,51.12a9,9,0,1,1,9-9A9.026,9.026,0,0,1,18,51.12Z" fill="#ffe4c2"/>
    <path id="Path_193616" data-name="Path 193616" d="M169.017,228.785v-4.5h-4.5v4.5h-4.5v4.5h4.5v4.5h4.5v-4.5h4.5v-4.5Z" transform="translate(-148.768 -188.914)" fill="#e1721c"/>
  </g>
</svg>
