<svg xmlns="http://www.w3.org/2000/svg" width="24" height="24" viewBox="0 0 24 24"><rect width="24" height="24" fill="none"/><path d="M8.942,1.385A7.615,7.615,0,1,1,2.288,12.543H5.38a.692.692,0,1,0,0-1.385H.764a.692.692,0,0,0-.692.692v4.615a.692.692,0,1,0,1.385,0v-2.6A9,9,0,1,0,.076,8.088a.692.692,0,1,0,1.377.14A7.615,7.615,0,0,1,8.942,1.385Zm.776,4a.692.692,0,1,0-1.385,0V9.081a.692.692,0,0,0,.2.489l1.846,1.846a.692.692,0,1,0,.979-.979L9.718,8.794Z" transform="translate(3.201 3.25)" fill="#1e2631" fill-rule="evenodd"/></svg>