<svg id="Group_16450" data-name="Group 16450" xmlns="http://www.w3.org/2000/svg" width="56" height="56" viewBox="0 0 56 56">
  <path id="Frame" d="M0,0H56V56H0Z" fill="none"/>
  <g id="Group_194215" data-name="Group 194215" transform="translate(10 -19.757)">
    <path id="Path_193620" data-name="Path 193620" d="M19272.25,9681.758a2.253,2.253,0,0,1-2.25-2.25v-11.25h18.1a20.35,20.35,0,0,0,7.229,6.307,3.38,3.38,0,0,0,3.355,0,20.251,20.251,0,0,0,7.227-6.3h.092v11.25a2.251,2.251,0,0,1-2.25,2.25Zm2.25-7.875a1.125,1.125,0,0,0,1.125,1.125h4.5a1.125,1.125,0,0,0,0-2.25h-4.5A1.125,1.125,0,0,0,19274.5,9673.883Zm-4.5-10.125v-4.5a2.254,2.254,0,0,1,2.25-2.25h13.5v2.25a20.163,20.163,0,0,0,.475,4.5Z" transform="translate(-19270 -9618.251)" fill="#ffe4c2"/>
    <path id="Path_193619" data-name="Path 193619" d="M273.318,35.474,265.443,32.1a1.129,1.129,0,0,0-.889,0l-7.875,3.375A1.122,1.122,0,0,0,256,36.507v4.5c0,6.19,2.288,9.808,8.44,13.351a1.131,1.131,0,0,0,1.121,0c6.151-3.535,8.44-7.153,8.44-13.351v-4.5A1.121,1.121,0,0,0,273.318,35.474Zm-4.063,5.112-4.5,5.625a1.137,1.137,0,0,1-.88.421h-.047a1.129,1.129,0,0,1-.889-.5l-2.25-3.375a1.125,1.125,0,0,1,1.872-1.246l1.4,2.095,3.537-4.423a1.126,1.126,0,0,1,1.759,1.4Z" transform="translate(-238)" fill="#e1721c"/>
  </g>
</svg>
