<svg xmlns="http://www.w3.org/2000/svg" width="24" height="24" viewBox="0 0 24 24"><path d="M0,0H24V24H0Z" fill="none"/><path d="M14,19.75a.75.75,0,0,1-.45-.15l-4-3a.75.75,0,0,1-.3-.6V12.29L4.445,7a.749.749,0,0,1-.068-.087A1.75,1.75,0,0,1,5.23,4.3a.755.755,0,0,1,.287-.05H18.5a.75.75,0,0,1,.248.042,1.75,1.75,0,0,1,.875,2.625A.75.75,0,0,1,19.555,7l-4.8,5.285V19a.75.75,0,0,1-.75.75Zm-3.25-4.125,2.5,1.875V12a.75.75,0,0,1,.2-.5l4.95-5.445a.249.249,0,0,0-.068-.3H5.673a.249.249,0,0,0-.068.3l4.95,5.445a.75.75,0,0,1,.2.5Z" fill="#1e2631"/></svg>