<svg xmlns="http://www.w3.org/2000/svg" width="24" height="24" viewBox="0 0 24 24"><rect width="24" height="24" fill="none"/><path d="M-2935.658-275a2.583,2.583,0,0,1-2.514-2.613l-.859-10.855h-.283a.7.7,0,0,1-.687-.722.7.7,0,0,1,.687-.721h3.885v-1.595a1.551,1.551,0,0,1,1.6-1.494h3.658a1.551,1.551,0,0,1,1.6,1.494v1.595h3.886a.7.7,0,0,1,.685.721.7.7,0,0,1-.685.722h-.284l-.86,10.855a2.689,2.689,0,0,1-2.514,2.613Zm-1.145-2.7c0,.02.073,1.262,1.145,1.262h7.314a1.287,1.287,0,0,0,1.143-1.2c0-.02,0-.04.854-10.823h-11.309Zm6.86-12.206v-1.568a.327.327,0,0,0-.229-.078h-3.658a.322.322,0,0,0-.228.078v1.568Zm-4.293,11.063a.7.7,0,0,1-.686-.721.7.7,0,0,1,.686-.722h4.471a.7.7,0,0,1,.686.722.7.7,0,0,1-.686.721Z" transform="translate(2944.25 296.039)" fill="#1e2631"/></svg>