<svg xmlns="http://www.w3.org/2000/svg" width="24" height="24" viewBox="0 0 24 24"><rect width="24" height="24" fill="none"/><path d="M9,1.385A7.615,7.615,0,1,0,16.615,9,7.615,7.615,0,0,0,9,1.385ZM0,9a9,9,0,1,1,9,9A9,9,0,0,1,0,9ZM9.912,4.615a2.538,2.538,0,0,1,2.272,1.27.692.692,0,1,1-1.2.692A1.154,1.154,0,0,0,9.946,6H8.077a1.154,1.154,0,0,0,0,2.308H9.923a2.538,2.538,0,0,1,0,5.077H9.692v1.154a.692.692,0,0,1-1.385,0V13.385h-.22a2.539,2.539,0,0,1-2.272-1.27.692.692,0,0,1,1.2-.692A1.154,1.154,0,0,0,8.054,12H9.923a1.154,1.154,0,1,0,0-2.308H8.077a2.538,2.538,0,0,1,0-5.077h.231V3.462a.692.692,0,0,1,1.385,0V4.615Z" transform="translate(3 3)" fill="#1e2631" fill-rule="evenodd"/></svg>