<svg xmlns="http://www.w3.org/2000/svg" width="24" height="24" viewBox="0 0 24 24"><rect width="24" height="24" fill="none"/><path d="M17.574,21.25H17.53A16.3,16.3,0,0,1,2.251,5.97q0-.022,0-.044A2.676,2.676,0,0,1,4.926,3.25H8.818a.73.73,0,0,1,.678.459l1.946,4.865a.73.73,0,0,1-.3.9L9.3,10.572A10.048,10.048,0,0,0,12.928,14.2l1.1-1.836a.73.73,0,0,1,.9-.3L19.791,14a.73.73,0,0,1,.459.678v3.892A2.679,2.679,0,0,1,17.574,21.25ZM3.71,5.906A14.853,14.853,0,0,0,17.594,19.79a1.218,1.218,0,0,0,1.2-1.216v-3.4l-3.829-1.532-1.14,1.9a.73.73,0,0,1-.949.279,11.493,11.493,0,0,1-5.2-5.2.73.73,0,0,1,.279-.949l1.9-1.14L8.324,4.709h-3.4a1.216,1.216,0,0,0-1.216,1.2Z" transform="translate(0.75 -0.25)" fill="#262626"/></svg>