<svg xmlns="http://www.w3.org/2000/svg" width="24" height="24" viewBox="0 0 24 24"><rect width="24" height="24" fill="none"/><path d="M-3250.908-223.149a.689.689,0,0,1,0-.687c2.337-4.09,5.334-6.164,8.908-6.164s6.572,2.074,8.909,6.164a.694.694,0,0,1,0,.687c-2.338,4.091-5.335,6.164-8.909,6.164S-3248.572-219.058-3250.908-223.149Zm1.4-.343c2.062,3.446,4.52,5.123,7.506,5.123s5.445-1.676,7.506-5.123c-2.061-3.447-4.519-5.123-7.506-5.123S-3247.444-226.939-3249.506-223.492Zm5.152,0a2.357,2.357,0,0,1,2.354-2.354,2.357,2.357,0,0,1,2.354,2.354,2.357,2.357,0,0,1-2.354,2.354A2.356,2.356,0,0,1-3244.354-223.492Zm1.385,0a.97.97,0,0,0,.969.969.97.97,0,0,0,.969-.969.97.97,0,0,0-.969-.97A.97.97,0,0,0-3242.969-223.492Z" transform="translate(3254.25 235.25)" fill="#1e2631"/></svg>