<svg xmlns="http://www.w3.org/2000/svg" width="24" height="24" viewBox="0 0 24 24"><rect width="24" height="24" fill="none"/><path d="M2.671,0A2.671,2.671,0,0,0,0,2.671V14.329A2.672,2.672,0,0,0,2.671,17H14.329a1.7,1.7,0,0,0,1.7-1.7V13.114h.243A.729.729,0,0,0,17,12.386V8.5a.729.729,0,0,0-.729-.729h-.243V5.586a1.7,1.7,0,0,0-1.7-1.7h-.243V1.7a1.7,1.7,0,0,0-1.7-1.7Zm11.9,7.771V5.586a.243.243,0,0,0-.243-.243H2.671a2.671,2.671,0,0,1-1.214-.292v9.278a1.214,1.214,0,0,0,1.214,1.214H14.329a.243.243,0,0,0,.243-.243V13.114H12.386a2.671,2.671,0,0,1,0-5.343Zm.729,3.886h.243V9.229H12.386a1.214,1.214,0,1,0,0,2.429ZM1.813,3.53a1.214,1.214,0,0,1,.859-2.073h9.714a.243.243,0,0,1,.243.243V3.886H2.671A1.214,1.214,0,0,1,1.813,3.53Z" transform="translate(4 4)" fill="#1e2631" fill-rule="evenodd"/></svg>