<svg id="Group_16450" data-name="Group 16450" xmlns="http://www.w3.org/2000/svg" width="56" height="56" viewBox="0 0 56 56">
  <path id="Frame" d="M0,0H56V56H0Z" fill="none"/>
  <g id="Group_194216" data-name="Group 194216" transform="translate(2 2)">
    <path id="path13638" d="M17.834,280.6a.607.607,0,0,0-.248.067A56.8,56.8,0,0,1,1.576,285.4a.6.6,0,0,0-.518.6v12.594A16.694,16.694,0,0,0,9.447,313.43a24.729,24.729,0,0,0,8.321,3.158.587.587,0,0,0,.178,0,24.729,24.729,0,0,0,8.321-3.158,16.694,16.694,0,0,0,8.389-14.837V286a.6.6,0,0,0-.518-.6,56.8,56.8,0,0,1-16.01-4.739.6.6,0,0,0-.293-.067Zm.022,7.2a10.8,10.8,0,1,1-10.8,10.8A10.8,10.8,0,0,1,17.857,287.8Z" transform="translate(8.031 -272.596)" fill="#ffe4c2"/>
    <path id="Path_193621" data-name="Path 193621" d="M167.975,228.263v-3.978H164v3.978h-3.978v3.978H164v3.978h3.978v-3.978h3.978v-3.978Z" transform="translate(-140.177 -204.253)" fill="#e1721c"/>
  </g>
</svg>
