<svg xmlns="http://www.w3.org/2000/svg" width="24" height="24" viewBox="0 0 24 24"><path d="M0,0H24V24H0Z" fill="none"/><path d="M9.111.1A8.085,8.085,0,0,0,1.644,3.216V1.7A.774.774,0,1,0,.1,1.7V5.314a.775.775,0,0,0,.774.775H4.483a.775.775,0,0,0,0-1.551H2.605A6.54,6.54,0,0,1,14.555,7.23a.774.774,0,1,0,1.534-.213A8.1,8.1,0,0,0,9.111.1ZM1.637,8.826A.774.774,0,1,0,.1,9.039a8.086,8.086,0,0,0,14.444,3.8V14.36a.774.774,0,1,0,1.548,0V10.741a.775.775,0,0,0-.774-.775H11.709a.775.775,0,0,0,0,1.551h1.879A6.54,6.54,0,0,1,1.637,8.826Z" transform="translate(4.154 4.233)" fill="#262626" fill-rule="evenodd"/></svg>