<svg xmlns="http://www.w3.org/2000/svg" width="24" height="24" viewBox="0 0 24 24"><g transform="translate(-16 -379)"><rect width="24" height="24" rx="8" transform="translate(16 379)" fill="#e1f3fb"/><g transform="translate(13 372.513)"><g transform="translate(6 11.5)"><path d="M24.346,13.578A.346.346,0,0,1,24,13.232V11.846a.346.346,0,0,1,.693,0v1.386A.346.346,0,0,1,24.346,13.578Z" transform="translate(-17.765 -11.5)" fill="#049eda"/><path d="M34,18.7a.345.345,0,0,1-.246-.589l.98-.98a.346.346,0,1,1,.488.488l-.977.98a.346.346,0,0,1-.246.1Z" transform="translate(-24.071 -15.102)" fill="#049eda"/><path d="M11.956,40.812a.345.345,0,0,1-.246-.589l.98-.98a.346.346,0,0,1,.488.488l-.98.98A.346.346,0,0,1,11.956,40.812Z" transform="translate(-9.666 -29.578)" fill="#049eda"/><path d="M7.732,30.193H6.346a.346.346,0,0,1,0-.693H7.732a.346.346,0,0,1,0,.693Z" transform="translate(-6 -23.265)" fill="#049eda"/><path d="M12.9,18.7a.346.346,0,0,1-.246-.1l-.98-.98a.346.346,0,1,1,.488-.488l.98.98a.345.345,0,0,1-.242.589Z" transform="translate(-9.628 -15.102)" fill="#049eda"/><path d="M31.355,29.33A3.53,3.53,0,0,0,28.733,27.6a3.537,3.537,0,0,0-6.959.783,3.038,3.038,0,0,0-.592-.055,3.142,3.142,0,0,0-2.248.939,3.218,3.218,0,0,0-.582,3.707,2.951,2.951,0,0,0,2.678,1.694H28.49a3.281,3.281,0,0,0,2.934-1.794,3.658,3.658,0,0,0-.069-3.54Z" transform="translate(-13.847 -20.289)" fill="#049eda"/><path d="M17.07,26.972q.111-.135.229-.26a3.845,3.845,0,0,1,2.73-1.143,4.275,4.275,0,0,1,1.216-2.2,4.122,4.122,0,0,1,.561-.454,3.118,3.118,0,1,0-4.735,4.053Z" transform="translate(-12.709 -18.208)" fill="#049eda"/></g></g></g></svg>