<svg xmlns="http://www.w3.org/2000/svg" width="24" height="24" viewBox="0 0 24 24"><rect width="24" height="24" fill="none"/><g transform="translate(3 3)"><path d="M13.764,16.539c-.346.476-.7.928-1.04,1.346,2.226.322,3.56.881,3.766,1.249-.3.542-3.046,1.5-7.49,1.5-4.532,0-7.3-1-7.5-1.469.143-.367,1.488-.95,3.779-1.281-.343-.418-.693-.87-1.04-1.346C1.951,16.956,0,17.745,0,19.134c0,2.369,5.657,3,9,3s9-.631,9-3C18,17.745,16.049,16.956,13.764,16.539Z" transform="translate(0 -4.135)" fill="#ffcf99"/><path d="M10,0A5.942,5.942,0,0,0,4,6c0,3.45,4.908,8.5,5.467,9.06a.751.751,0,0,0,1.065,0C11.092,14.5,16,9.45,16,6A5.942,5.942,0,0,0,10,0Zm0,7.5A1.5,1.5,0,1,1,11.5,6,1.5,1.5,0,0,1,10,7.5Z" transform="translate(-1)" fill="#e1721c"/></g></svg>