<svg xmlns="http://www.w3.org/2000/svg" width="24" height="24" viewBox="0 0 24 24"><path d="M0,0H24V24H0Z" fill="none"/><path d="M-3433.25-515.5a2.753,2.753,0,0,1-2.75-2.75v-14a2.753,2.753,0,0,1,2.75-2.75h7.075l.016,0h0l.016,0h0l.016,0h0l.016,0h0l.015,0h0l.013,0h.005l.011,0,.007,0,.009,0,.01,0,.006,0,.013,0h0a.742.742,0,0,1,.288.18l4.98,4.981a.747.747,0,0,1,.239.512h0v.018c0,.006,0,.013,0,.019v11a2.753,2.753,0,0,1-2.75,2.75Zm-1.25-16.75v14a1.251,1.251,0,0,0,1.25,1.25h10a1.251,1.251,0,0,0,1.25-1.25V-528.5h-3.25a1.752,1.752,0,0,1-1.75-1.75v-3.25h-6.25A1.251,1.251,0,0,0-3434.5-532.25Zm9,2a.25.25,0,0,0,.25.25h2.189l-2.439-2.44Z" transform="translate(3440.25 537.25)" fill="#262626"/><path d="M11,17.75a.748.748,0,0,1-.53-.22l-2-2A.75.75,0,0,1,9.53,14.47L11,15.939l3.47-3.47A.75.75,0,0,1,15.53,13.53l-4,4A.748.748,0,0,1,11,17.75Z" fill="#262626"/></svg>