<svg xmlns="http://www.w3.org/2000/svg" width="24" height="24" viewBox="0 0 24 24"><rect width="24" height="24" fill="none"/><path d="M-3315-341.693v-15.2a2.138,2.138,0,0,1,2.165-2.106h4.91a2.147,2.147,0,0,1,2.154,1.885h5.248a1.667,1.667,0,0,1,1.506.921,1.6,1.6,0,0,1-.16,1.686l-1.954,2.578a1.133,1.133,0,0,0,0,1.381l1.954,2.578a1.6,1.6,0,0,1,.16,1.686,1.667,1.667,0,0,1-1.506.921h-4.946a1.657,1.657,0,0,1-1.675-1.635v-.392a2.211,2.211,0,0,1-.781.142h-5.692v5.557a.692.692,0,0,1-.692.693A.692.692,0,0,1-3315-341.693Zm9.241-5.307a.272.272,0,0,0,.29.25h4.946a.283.283,0,0,0,.267-.153.207.207,0,0,0-.025-.233l-1.953-2.578a2.5,2.5,0,0,1,0-3.054l1.953-2.578a.207.207,0,0,0,.025-.233.282.282,0,0,0-.267-.154h-5.236Zm-2.166-1.634a.754.754,0,0,0,.781-.721v-7.539a.753.753,0,0,0-.781-.721h-4.91a.754.754,0,0,0-.781.721v8.26Z" transform="translate(3319.25 362.25)" fill="#1e2631"/></svg>