<svg xmlns="http://www.w3.org/2000/svg" width="24" height="24" viewBox="0 0 24 24"><rect width="24" height="24" fill="none"/><path d="M-2981.182-364.2l-3.543-3.543a8.041,8.041,0,0,1-5.2,1.9,8.086,8.086,0,0,1-8.077-8.077,8.086,8.086,0,0,1,8.077-8.077,8.086,8.086,0,0,1,8.077,8.077,8.039,8.039,0,0,1-1.9,5.2l3.543,3.543a.691.691,0,0,1,0,.979.686.686,0,0,1-.489.2A.689.689,0,0,1-2981.182-364.2Zm-15.433-9.72a6.7,6.7,0,0,0,6.692,6.692,6.7,6.7,0,0,0,6.693-6.692,6.7,6.7,0,0,0-6.693-6.693A6.7,6.7,0,0,0-2996.615-373.923Z" transform="translate(3001 385)" fill="#262626"/></svg>