<svg xmlns="http://www.w3.org/2000/svg" width="24" height="24" viewBox="0 0 24 24"><rect width="24" height="24" fill="none"/><path d="M-3617.871-275.692v-1.155h-2.322a1.721,1.721,0,0,1-1.807-1.615v-12.923a1.721,1.721,0,0,1,1.807-1.615h11.354a2.7,2.7,0,0,1,2.839,2.538v11.077a2.7,2.7,0,0,1-2.839,2.538h-7.484v1.155a.737.737,0,0,1-.774.692A.737.737,0,0,1-3617.871-275.692Zm1.548-2.539h7.484a1.23,1.23,0,0,0,1.291-1.154v-11.077a1.23,1.23,0,0,0-1.291-1.154h-7.484Zm-4.128-13.154v12.923a.245.245,0,0,0,.258.231h2.322v-13.384h-2.322A.245.245,0,0,0-3620.451-291.384Zm7.483,7.154a.737.737,0,0,1-.774-.692.738.738,0,0,1,.774-.693h2.065a.737.737,0,0,1,.774.693.737.737,0,0,1-.774.692Zm0-3.693a.737.737,0,0,1-.774-.692.737.737,0,0,1,.774-.692h2.065a.737.737,0,0,1,.774.692.737.737,0,0,1-.774.692Z" transform="translate(3626.25 297.25)" fill="#1e2631"/></svg>