<svg xmlns="http://www.w3.org/2000/svg" width="24" height="24" viewBox="0 0 24 24"><path d="M0,0H24V24H0Z" fill="none"/><path d="M-3672.114-406.686v-12.972l-1.573,1.572a.686.686,0,0,1-.969,0,.686.686,0,0,1,0-.97l2.724-2.723a.682.682,0,0,1,.229-.163h0l.01,0,.008,0,.006,0,.012,0h0a.684.684,0,0,1,.714.154l.006.005h0l2.742,2.742a.686.686,0,0,1,0,.97.684.684,0,0,1-.484.2.682.682,0,0,1-.484-.2l-1.573-1.573v12.973a.685.685,0,0,1-.686.686A.685.685,0,0,1-3672.114-406.686Zm-8.441.686h-.1l-.013,0h0l-.014,0h0l-.014,0h0l-.014,0h0l-.014,0h0l-.012,0h-.005l-.011,0-.006,0-.009,0-.007,0-.009,0-.009,0-.005,0-.012,0,0,0-.013-.005h0a.66.66,0,0,1-.168-.1h0l-.011-.009,0,0-.009-.008-.005-.005-.007-.006-.012-.012-2.743-2.743a.685.685,0,0,1,0-.97.685.685,0,0,1,.969,0l1.573,1.572v-12.973a.686.686,0,0,1,.686-.686.686.686,0,0,1,.687.686v12.972l1.571-1.571a.686.686,0,0,1,.97,0,.687.687,0,0,1,0,.97l-2.729,2.729a.616.616,0,0,1-.065.061l0,0-.008.006a.682.682,0,0,1-.217.114h0l-.013,0h-.006l-.009,0-.008,0-.008,0-.009,0h-.007l-.011,0h0l-.012,0h0l-.013,0h0l-.012,0h-.067Z" transform="translate(3688.25 426.25)" fill="#1e2631"/></svg>