<svg xmlns="http://www.w3.org/2000/svg" width="24" height="24" viewBox="0 0 24 24"><rect width="24" height="24" fill="none"/><g transform="translate(-51 -427)"><circle cx="9" cy="9" r="9" transform="translate(54 430)" fill="#ed1c24"/><path d="M-9276.777,16.289l-2.312-2.312-2.311,2.312a.755.755,0,0,1-1.068,0,.753.753,0,0,1,0-1.066l2.313-2.312-2.312-2.312a.753.753,0,0,1,0-1.066.755.755,0,0,1,1.068,0l2.311,2.312,2.313-2.312a.753.753,0,0,1,1.066,0,.757.757,0,0,1,0,1.066l-2.312,2.312,2.313,2.312a.753.753,0,0,1,0,1.066.752.752,0,0,1-.533.221A.749.749,0,0,1-9276.777,16.289Z" transform="translate(9342.11 426.468)" fill="#fff"/></g></svg>