<svg xmlns="http://www.w3.org/2000/svg" width="64" height="64" viewBox="0 0 64 64"><g transform="translate(-2951 -2698)"><rect width="64" height="64" transform="translate(2951 2698)" fill="none"/><g transform="translate(2953.469 2700.439)"><g transform="translate(1.53 1.561)"><path d="M0,0H5.335V39.267H0Z" transform="translate(47.582 36.405) rotate(90)" fill="#ffa14e"/><path d="M22.3,245.394H60.673v5H22.3Z" transform="translate(-13.535 -210.56)" fill="#f26066"/><path d="M9.093,195.039a4.487,4.487,0,0,0,1.717,6.1l14.77,9.742a4.455,4.455,0,0,0,2.18.57H55.4a4.48,4.48,0,0,0,0-8.959H28.924l-13.755-9.172a4.451,4.451,0,0,0-6.077,1.723Z" transform="translate(-5.573 -180.202)" fill="#fff7eb"/><path d="M9.132,36.566a4.491,4.491,0,0,0,1.693,6.151l14.793,9.758a4.462,4.462,0,0,0,2.183.571H55.481a4.477,4.477,0,0,0,4.347-3.426H31.207a9.763,9.763,0,0,1-5.086-1.935Z" transform="translate(-5.579 -21.75)" fill="#ffcf99"/><path d="M61.08,170.834a7.715,7.715,0,1,1-7.715-7.74A7.727,7.727,0,0,1,61.08,170.834Z" transform="translate(-27.035 -163.094)" fill="#e8141b"/><g transform="translate(0 18.836)"><path d="M15.274,83.993v17.673h2.978v-1.9H56.688v1.9h2.978v-1.9h0V96.774h0V83.993H56.688V96.774H18.252V83.993Z" transform="translate(-9.475 -67.939)" fill="#ed9242"/><path d="M15.274,83.993V89h2.978v-5.01Zm41.415,0V89h2.978v-5.01Z" transform="translate(-9.475 -67.939)" fill="#e1721c"/><path d="M4.591,46.063H4.583a1.683,1.683,0,0,0-.894,3.091l13.636,8.92H3.767A2.235,2.235,0,0,0,1.53,60.319v1.57a2.235,2.235,0,0,0,2.236,2.243H55.294a2.235,2.235,0,0,0,2.236-2.243v-1.57a2.235,2.235,0,0,0-2.236-2.243H51.742V48.728a1.68,1.68,0,0,0-1.677-1.682h-19.4A1.677,1.677,0,0,0,29.1,48.138l-3.707,9.937H23.466L5.521,46.337a1.673,1.673,0,0,0-.93-.273ZM31.83,50.41h4.932v7.665H28.971Zm8.286,0h8.273v7.665H40.116Z" transform="translate(-1.53 -46.063)" fill="#ed9242"/></g><path d="M115.181,279.286a4.313,4.313,0,1,1-4.313-4.326A4.32,4.32,0,0,1,115.181,279.286Z" transform="translate(-62.244 -227.612)" fill="#262626"/><path d="M116.264,283.287a1.385,1.385,0,1,1-1.385-1.39A1.387,1.387,0,0,1,116.264,283.287Z" transform="translate(-66.254 -231.614)" fill="#d9d9d9"/><path d="M17.177,279.286a4.313,4.313,0,1,1-4.313-4.326,4.32,4.32,0,0,1,4.313,4.326Z" transform="translate(-5.589 -227.612)" fill="#262626"/><path d="M57.442,9.738a1.117,1.117,0,0,0-1.118,1.122v1.313H55.015A1.117,1.117,0,0,0,53.9,13.295v1.471a1.117,1.117,0,0,0,1.118,1.122h1.309V17.2a1.117,1.117,0,0,0,1.118,1.122h1.466A1.117,1.117,0,0,0,60.026,17.2V15.887h1.309a1.117,1.117,0,0,0,1.118-1.122V13.295a1.117,1.117,0,0,0-1.118-1.122H60.026V10.86a1.117,1.117,0,0,0-1.118-1.122Z" transform="translate(-31.802 -6.277)" fill="#fff"/><path d="M18.261,283.287a1.385,1.385,0,1,1-1.385-1.39A1.387,1.387,0,0,1,18.261,283.287Z" transform="translate(-9.6 -231.614)" fill="#d9d9d9"/><path d="M12.345,198.523l-.244.375.748.49.244-.375Zm1.869,1.225-.244.375.748.49.244-.375Zm1.869,1.225-.244.375.748.49.244-.375Zm1.87,1.225-.244.375.748.49.244-.375Zm1.869,1.225-.244.375.748.49.244-.375Zm1.869,1.225-.244.375.748.49.244-.375Zm1.87,1.225-.244.375.748.49.244-.375Zm1.846,1.209-.244.375.725.475.244-.375Zm1.654,1.084-.244.375.748.49.244-.375Zm1.87,1.225-.244.375.748.49.244-.375Zm1.774,1.162-.244.375.748.49.244-.375Z" transform="translate(-7.641 -183.528)" fill="#ed9242"/></g></g></g></svg>