<svg xmlns="http://www.w3.org/2000/svg" width="24" height="24" viewBox="0 0 24 24"><rect width="24" height="24" fill="none"/><path d="M-4516.25-990.5a.75.75,0,0,1-.75-.75.75.75,0,0,1,.75-.749h12a.749.749,0,0,1,.75.749.75.75,0,0,1-.75.75Zm6-4h-.12l-.01,0h-.008l-.011,0h-.005l-.014,0h0a.75.75,0,0,1-.36-.2l-6-6a.749.749,0,0,1,0-1.061.75.75,0,0,1,1.06,0l4.72,4.72v-10.19a.749.749,0,0,1,.75-.749.751.751,0,0,1,.75.749v10.189l4.719-4.719a.751.751,0,0,1,1.061,0,.751.751,0,0,1,0,1.061l-6,6a.745.745,0,0,1-.379.2h0l-.015,0h0l-.012,0h-.118Z" transform="translate(4522.25 1011.25)" fill="#1e2631"/></svg>