<svg xmlns="http://www.w3.org/2000/svg" width="24" height="24" viewBox="0 0 24 24"><rect width="24" height="24" fill="none"/><path d="M-3054.417-341a.713.713,0,0,1-.713-.714.713.713,0,0,1,.713-.713h5.7a.713.713,0,0,1,.713.713.713.713,0,0,1-.713.714Zm-8.869,0a.713.713,0,0,1-.713-.714v-3.8a.713.713,0,0,1,.209-.5l9.029-9.03,0,0,0,0,.948-.948a3.382,3.382,0,0,1,2.406-1,3.38,3.38,0,0,1,2.405,1,3.405,3.405,0,0,1,0,4.812l-9.983,9.983a.716.716,0,0,1-.5.209Zm.713-4.221v2.795h2.795l8.319-8.319-2.795-2.794Zm12.123-6.533.447-.447a1.979,1.979,0,0,0,0-2.795,1.962,1.962,0,0,0-1.4-.578,1.963,1.963,0,0,0-1.4.578l-.447.447Z" transform="translate(3068.25 360.922)" fill="#1e2631"/></svg>