<svg xmlns="http://www.w3.org/2000/svg" width="24" height="24" viewBox="0 0 24 24"><rect width="24" height="24" fill="none"/><path d="M-2760.125,140.5v-.063a4.225,4.225,0,0,1-3.375-4.211,4.286,4.286,0,0,1,1.591-3.372,3.036,3.036,0,0,1-.033-.445,3.111,3.111,0,0,1,3.029-3.182,2.459,2.459,0,0,1,.337.023,5.561,5.561,0,0,1,1.673-1.835,5.132,5.132,0,0,1,2.922-.915,5.17,5.17,0,0,1,3.609,1.48,5.729,5.729,0,0,1,1.639,3.1,4.8,4.8,0,0,1,3.232,4.6,4.758,4.758,0,0,1-3.894,4.763v.055h-10.731Zm-.433-8.091a1.781,1.781,0,0,0,.093.537l.177.56-.486.3a2.816,2.816,0,0,0-1.342,2.424,2.756,2.756,0,0,0,2.684,2.818l8.654,0,.693,0a3.29,3.29,0,0,0,3.2-3.363,3.323,3.323,0,0,0-2.6-3.3l-.509-.1-.05-.543a4.035,4.035,0,0,0-3.939-3.784,3.984,3.984,0,0,0-3.6,2.431l-.257.582-.581-.195a1.539,1.539,0,0,0-.492-.092A1.69,1.69,0,0,0-2760.558,132.41Zm5.827,4.03v-2.123l-.664.7a.676.676,0,0,1-.489.213.676.676,0,0,1-.49-.213.755.755,0,0,1,0-1.029l1.829-1.92a.674.674,0,0,1,.508-.232.663.663,0,0,1,.307.075l.013.007,0,0,.011.005.006,0,.008.005.008,0,.006,0,.009.005,0,0,.009.007,0,0,.01.007,0,0,.011.008,0,0,.01.008s0,0,0,0l.009.008,0,0,.009.008,0,0,.008.007.006.007.006.005.012.013,1.846,1.939a.753.753,0,0,1,0,1.029.676.676,0,0,1-.49.213.677.677,0,0,1-.489-.213l-.665-.7v2.124a.71.71,0,0,1-.692.727A.71.71,0,0,1-2754.73,136.44Z" transform="translate(2766.5 -121.5)" fill="#262626"/></svg>