<svg xmlns="http://www.w3.org/2000/svg" width="24" height="24" viewBox="0 0 24 24"><rect width="24" height="24" fill="none"/><path d="M-3432.169-276.8a.7.7,0,0,1-.43-.15,9.012,9.012,0,0,1-2.9-10.015A9.01,9.01,0,0,1-3427-293a9.011,9.011,0,0,1,8.5,6.035,9.012,9.012,0,0,1-2.9,10.015.7.7,0,0,1-.43.15Zm-2.021-9.706a7.619,7.619,0,0,0,2.268,8.317h9.845a7.62,7.62,0,0,0,2.268-8.317,7.624,7.624,0,0,0-7.191-5.105A7.623,7.623,0,0,0-3434.191-286.506Zm4.652,2.55A2.543,2.543,0,0,1-3427-286.5a2.522,2.522,0,0,1,1.237.323l1.505-1.5a.691.691,0,0,1,.979,0,.7.7,0,0,1,0,.981l-1.5,1.5a2.527,2.527,0,0,1,.321,1.236,2.542,2.542,0,0,1-2.538,2.54A2.543,2.543,0,0,1-3429.539-283.956Zm1.385,0A1.154,1.154,0,0,0-3427-282.8a1.154,1.154,0,0,0,1.154-1.151,1.154,1.154,0,0,0-1.154-1.152A1.154,1.154,0,0,0-3428.154-283.956Z" transform="translate(3439 297)" fill="#1e2631"/></svg>