<svg width="68" height="70" viewBox="0 0 68 70" fill="none" xmlns="http://www.w3.org/2000/svg">
<g filter="url(#filter0_d_3711_892)">
<path d="M33.9999 57.6001C48.1384 57.6001 59.5999 46.1386 59.5999 32.0001C59.5999 17.8617 48.1384 6.40015 33.9999 6.40015C19.8614 6.40015 8.3999 17.8617 8.3999 32.0001C8.3999 46.1386 19.8614 57.6001 33.9999 57.6001Z" fill="#52C41A"/>
<path d="M31.1553 39.8223C30.8751 39.8224 30.5976 39.7673 30.3387 39.6602C30.0798 39.5531 29.8445 39.396 29.6463 39.1979L23.9574 33.509C23.7537 33.3123 23.5912 33.0769 23.4794 32.8166C23.3675 32.5563 23.3087 32.2764 23.3062 31.9931C23.3038 31.7098 23.3577 31.4289 23.465 31.1667C23.5723 30.9046 23.7307 30.6664 23.931 30.4661C24.1313 30.2658 24.3695 30.1074 24.6317 30.0001C24.8938 29.8928 25.1748 29.8389 25.458 29.8413C25.7413 29.8438 26.0212 29.9026 26.2815 30.0144C26.5418 30.1262 26.7772 30.2888 26.974 30.4925L31.1539 34.6724L41.0227 24.8036C41.2195 24.5999 41.4549 24.4373 41.7151 24.3255C41.9754 24.2137 42.2554 24.1549 42.5386 24.1524C42.8219 24.15 43.1028 24.2039 43.365 24.3112C43.6272 24.4185 43.8654 24.5769 44.0657 24.7772C44.266 24.9775 44.4244 25.2157 44.5316 25.4779C44.6389 25.74 44.6929 26.021 44.6904 26.3042C44.688 26.5875 44.6291 26.8674 44.5173 27.1277C44.4055 27.388 44.243 27.6234 44.0392 27.8202L32.6614 39.1979C32.2619 39.5973 31.7202 39.8218 31.1553 39.8223Z" fill="white"/>
</g>
<defs>
<filter id="filter0_d_3711_892" x="-6" y="-4" width="80" height="80" filterUnits="userSpaceOnUse" color-interpolation-filters="sRGB">
<feFlood flood-opacity="0" result="BackgroundImageFix"/>
<feColorMatrix in="SourceAlpha" type="matrix" values="0 0 0 0 0 0 0 0 0 0 0 0 0 0 0 0 0 0 127 0" result="hardAlpha"/>
<feOffset dy="4"/>
<feGaussianBlur stdDeviation="4"/>
<feComposite in2="hardAlpha" operator="out"/>
<feColorMatrix type="matrix" values="0 0 0 0 0.321569 0 0 0 0 0.768627 0 0 0 0 0.101961 0 0 0 0.24 0"/>
<feBlend mode="normal" in2="BackgroundImageFix" result="effect1_dropShadow_3711_892"/>
<feBlend mode="normal" in="SourceGraphic" in2="effect1_dropShadow_3711_892" result="shape"/>
</filter>
</defs>
</svg>
