<svg xmlns="http://www.w3.org/2000/svg" width="311.482" height="209.859" viewBox="0 0 311.482 209.859"><path d="M129.965,203.359C111.44,191.327,96,176.067,81.06,161.31c-11.973-11.829-23.28-23-35.822-32.335-7.426-5.526-21.078-14.025-31.994-11.487v-39.2c15.96-1.279,33.55,4.947,51.635,18.405,14.542,10.822,27.292,23.419,39.621,35.6,14.282,14.111,27.772,27.441,43.282,37.515A131.076,131.076,0,0,0,230.9,190.375c12.664-1.172,35.787-5.611,48.364-22.157,7.02-9.234,10.658-22.825,10.244-38.266-.292-10.88-13.006-54.462-19.116-75.406-1.92-6.581-8.15-23.858-11.881-34.579h37.636c3.145,8.883,6.471,18.324,7.728,22.632,11.139,38.184,20.393,71.025,20.8,86.2.474,17.69-2.347,43.233-18.48,64.456-15.394,20.251-41.091,33-72.359,35.893q-7.348.68-14.717.678A164.231,164.231,0,0,1,129.965,203.359Z" transform="translate(-13.244 -19.966)" fill="#fff" opacity="0.08"/></svg>