<svg xmlns="http://www.w3.org/2000/svg" width="429" height="429" viewBox="0 0 429 429">
  <g id="pic-default" transform="translate(-16 -705)">
    <rect id="Rectangle_11856" data-name="Rectangle 11856" width="429" height="429" rx="8" transform="translate(16 705)" fill="#f0f0f0"/>
    <g id="icons-ic24px-image" transform="translate(136 825)">
      <path id="Path_133" data-name="Path 133" d="M0,0H192.236V192.236H0Z" fill="none"/>
      <path id="Path_338" data-name="Path 338" d="M-3098.542-292.837A27.492,27.492,0,0,1-3126-320.3v-14.466q-.006-.18,0-.359v-58.408A27.492,27.492,0,0,1-3098.542-421h73.242a27.493,27.493,0,0,1,27.458,27.465v58.407c0,.121,0,.241,0,.361V-320.3a27.494,27.494,0,0,1-27.458,27.465Zm-16.477-27.465a16.5,16.5,0,0,0,16.477,16.478h73.242a16.494,16.494,0,0,0,16.476-16.478v-12.371l-13-13c-4.674-4.475-9.605-4.475-14.277,0l-3.4,3.4,10.765,10.764a5.491,5.491,0,0,1,0,7.765,5.474,5.474,0,0,1-3.89,1.608,5.474,5.474,0,0,1-3.882-1.608l-14.645-14.645-21.93-21.928c-4.669-4.475-9.607-4.475-14.279,0l-27.652,27.643Zm0-73.233V-348.2l19.921-19.923c.025-.026.053-.046.08-.073,4.376-4.211,9.488-6.439,14.787-6.439s10.416,2.228,14.8,6.439a.876.876,0,0,0,.074.073l18.087,18.086,3.439-3.441c.027-.02.051-.046.08-.073,4.377-4.211,9.49-6.439,14.79-6.439s10.413,2.228,14.789,6.439a.629.629,0,0,0,.08.073l5.271,5.275v-45.329a16.494,16.494,0,0,0-16.476-16.478h-73.242A16.5,16.5,0,0,0-3115.019-393.535Zm75.066,12.813a5.49,5.49,0,0,1-5.491-5.49,5.491,5.491,0,0,1,5.491-5.49h.07a5.494,5.494,0,0,1,5.5,5.49,5.494,5.494,0,0,1-5.5,5.49Z" transform="translate(3160.042 455.04)" fill="#d9d9d9"/>
    </g>
  </g>
</svg>
