<svg xmlns="http://www.w3.org/2000/svg" width="24" height="24" viewBox="0 0 24 24"><path d="M0,0H24V24H0Z" fill="none"/><path d="M-2873.542-583.258l-4.242-4.242a.73.73,0,0,1-.216-.521.728.728,0,0,1,.216-.52.731.731,0,0,1,.521-.216.729.729,0,0,1,.52.216l3.722,3.721,7.964-7.964a.729.729,0,0,1,.52-.216.728.728,0,0,1,.52.216.735.735,0,0,1,0,1.041l-8.484,8.484a.729.729,0,0,1-.52.216A.73.73,0,0,1-2873.542-583.258Zm-4.172-4.313,4.243,4.243a.635.635,0,0,0,.451.186.634.634,0,0,0,.449-.186l8.485-8.485a.635.635,0,0,0,.186-.45.635.635,0,0,1-.186.45l-8.485,8.485a.634.634,0,0,1-.449.186.635.635,0,0,1-.451-.186l-4.243-4.243a.635.635,0,0,1-.186-.45A.635.635,0,0,0-2877.714-587.571Z" transform="translate(2883.15 600.15)" fill="#262626"/></svg>