<svg xmlns="http://www.w3.org/2000/svg" width="24" height="24" viewBox="0 0 24 24"><path d="M0,0H24V24H0Z" fill="none"/><path d="M13.252.525a.73.73,0,0,1,1.032,0l3.5,3.5a.73.73,0,0,1-1.032,1.032l-3.5-3.5A.73.73,0,0,1,13.252.525Zm-1.138,3.2L14.584,6.2,5.556,15.225l-.019.019a2.941,2.941,0,0,1-.311.29,1.024,1.024,0,0,1-.159.092,2.932,2.932,0,0,1-.406.127l-.026.007-2.866.782.782-2.866.007-.026a2.939,2.939,0,0,1,.127-.406,1.025,1.025,0,0,1,.092-.159,2.943,2.943,0,0,1,.29-.311l.019-.018ZM11.753,2.2a1.168,1.168,0,0,1,.721,0,.73.73,0,0,1,.1.042,1.817,1.817,0,0,1,.573.453l2.462,2.462a1.817,1.817,0,0,1,.452.573.733.733,0,0,1,.042.1,1.167,1.167,0,0,1,0,.722.733.733,0,0,1-.042.1,1.817,1.817,0,0,1-.452.573L6.6,16.248a4.4,4.4,0,0,1-.476.439l-.025.019a2.482,2.482,0,0,1-.445.258l-.027.012a4.4,4.4,0,0,1-.616.2L.922,18.285a.73.73,0,0,1-.9-.9L1.14,13.3a4.4,4.4,0,0,1,.2-.616l.012-.027a2.483,2.483,0,0,1,.258-.445l.019-.025a4.4,4.4,0,0,1,.439-.476L11.077,2.7a1.818,1.818,0,0,1,.573-.453A.726.726,0,0,1,11.753,2.2Z" transform="translate(2.75 2.439)" fill="#262626" fill-rule="evenodd"/></svg>