<svg xmlns="http://www.w3.org/2000/svg" width="24" height="24" viewBox="0 0 24 24"><rect width="24" height="24" fill="none"/><g transform="translate(-50.998 -427)"><path d="M7.755,1.289a2.374,2.374,0,0,1,4.138,0l6.623,11.775A2.374,2.374,0,0,1,16.447,16.6H3.2a2.374,2.374,0,0,1-2.069-3.538Z" transform="translate(53.176 430.921)" fill="#ffc53d"/><path d="M-9198-8a1,1,0,0,1,1-1,1,1,0,0,1,1,1,1,1,0,0,1-1,1A1,1,0,0,1-9198-8Zm0-3v-3a1,1,0,0,1,1-1,1,1,0,0,1,1,1v3a1,1,0,0,1-1,1A1,1,0,0,1-9198-11Z" transform="translate(9260 451.261)" fill="#fff"/></g></svg>