<svg xmlns="http://www.w3.org/2000/svg" width="24" height="24" viewBox="0 0 24 24"><path d="M0,0H24V24H0Z" fill="none"/><path d="M-3046.807-467h-14.364l-.056,0-.056,0h-.041a2.829,2.829,0,0,1-2.235-1.3,2.829,2.829,0,0,1-.234-2.579.657.657,0,0,1,.047-.1l7.281-12.57A2.822,2.822,0,0,1-3054-485a2.822,2.822,0,0,1,2.466,1.45l7.28,12.57a.822.822,0,0,1,.048.1,2.825,2.825,0,0,1-.271,2.63A2.818,2.818,0,0,1-3046.8-467Zm-8.315-15.8a.076.076,0,0,0-.007.014l-7.254,12.525a1.285,1.285,0,0,0,.123,1.127,1.285,1.285,0,0,0,1.016.592h.016l.057,0h14.361a1.281,1.281,0,0,0,1.055-.569,1.282,1.282,0,0,0,.139-1.15l-7.253-12.524-.009-.014a1.281,1.281,0,0,0-1.122-.662A1.282,1.282,0,0,0-3055.122-482.8Zm.363,10.931v-.01a.77.77,0,0,1,.769-.77.77.77,0,0,1,.77.77v.01a.77.77,0,0,1-.77.771A.77.77,0,0,1-3054.759-471.867Zm-.011-3.09v-3.081a.77.77,0,0,1,.77-.77.77.77,0,0,1,.769.77v3.081a.77.77,0,0,1-.769.77A.77.77,0,0,1-3054.77-474.957Z" transform="translate(3066 488)" fill="#262626"/></svg>