<svg xmlns="http://www.w3.org/2000/svg" width="24" height="24" viewBox="0 0 24 24"><path d="M0,0H24V24H0Z" fill="none"/><path d="M-2990.959-406.091a8.357,8.357,0,0,1-2.838-2.956,8.312,8.312,0,0,1-1.076-4.09,3.173,3.173,0,0,1,3.169-3.17,3.173,3.173,0,0,1,3.169,3.17,1.96,1.96,0,0,0,1.957,1.957,1.96,1.96,0,0,0,1.958-1.957,7.093,7.093,0,0,0-7.083-7.086,7.092,7.092,0,0,0-7.083,7.086,12.26,12.26,0,0,0,.288,2.628.628.628,0,0,1,.014.137.6.6,0,0,1-.477.585.605.605,0,0,1-.722-.463,13.5,13.5,0,0,1-.315-2.888,8.306,8.306,0,0,1,8.295-8.3,8.305,8.305,0,0,1,8.295,8.3,3.174,3.174,0,0,1-3.169,3.17,3.174,3.174,0,0,1-3.169-3.17,1.96,1.96,0,0,0-1.957-1.958,1.959,1.959,0,0,0-1.956,1.958,7.05,7.05,0,0,0,3.342,6.017.608.608,0,0,1,.286.522.6.6,0,0,1-.092.313.607.607,0,0,1-.516.285A.6.6,0,0,1-2990.959-406.091Zm-4.515-.82a10.794,10.794,0,0,1-1.962-6.226,5.74,5.74,0,0,1,5.731-5.735,5.74,5.74,0,0,1,5.732,5.735.607.607,0,0,1-.607.606.606.606,0,0,1-.606-.606,4.525,4.525,0,0,0-4.519-4.522,4.525,4.525,0,0,0-4.519,4.522,9.588,9.588,0,0,0,1.743,5.53.6.6,0,0,1,.109.351.606.606,0,0,1-.258.493.606.606,0,0,1-.348.109A.605.605,0,0,1-2995.475-406.911Zm8.9-.492h0a5.742,5.742,0,0,1-5.551-4.3,5.742,5.742,0,0,1-.181-1.431.606.606,0,0,1,.606-.606.606.606,0,0,1,.606.606,4.5,4.5,0,0,0,.053.688,4.528,4.528,0,0,0,4.467,3.834c.046,0,.1,0,.156-.008l.086-.005h.034a.607.607,0,0,1,.605.573.606.606,0,0,1-.572.639l-.074.005c-.07,0-.149.009-.236.009Zm1.575-12.348a8.936,8.936,0,0,0-6.7-3.037,8.936,8.936,0,0,0-6.7,3.037.6.6,0,0,1-.455.206.6.6,0,0,1-.4-.151.6.6,0,0,1-.206-.46.6.6,0,0,1,.151-.4A10.147,10.147,0,0,1-2991.7-424a10.145,10.145,0,0,1,7.611,3.448.6.6,0,0,1,.151.4.6.6,0,0,1-.206.46.6.6,0,0,1-.4.151A.6.6,0,0,1-2985-419.751Z" transform="translate(3003.998 427)" fill="#262626"/></svg>