<svg xmlns="http://www.w3.org/2000/svg" width="24" height="24" viewBox="0 0 24 24"><rect width="24" height="24" fill="none"/><path d="M-3123.462-341.768a2.541,2.541,0,0,1-2.538-2.539v-10.154a2.541,2.541,0,0,1,2.538-2.539h3.693a.692.692,0,0,1,.489.2l2.566,2.567h6.176a2.54,2.54,0,0,1,2.538,2.538v7.385a2.541,2.541,0,0,1-2.538,2.539Zm-1.154-12.693v10.154a1.156,1.156,0,0,0,1.154,1.154h12.924a1.155,1.155,0,0,0,1.154-1.154v-7.385a1.155,1.155,0,0,0-1.154-1.154H-3117a.689.689,0,0,1-.49-.2l-2.566-2.566h-3.406A1.156,1.156,0,0,0-3124.616-354.461Zm6.693,9a.692.692,0,0,1-.692-.692.692.692,0,0,1,.692-.692h5.539a.692.692,0,0,1,.692.692.692.692,0,0,1-.692.692Z" transform="translate(3129.25 361.25)" fill="#1e2631"/></svg>