<svg xmlns="http://www.w3.org/2000/svg" width="24" height="24" viewBox="0 0 24 24"><path d="M0,0H24V24H0Z" fill="none"/><path d="M-2877.314-472.658a.686.686,0,0,1-.687-.685.687.687,0,0,1,.687-.686h14.627a.686.686,0,0,1,.686.686.685.685,0,0,1-.686.685Zm0-5.486a.686.686,0,0,1-.687-.685.686.686,0,0,1,.687-.685h14.627a.685.685,0,0,1,.686.685.685.685,0,0,1-.686.685Zm0-5.485a.686.686,0,0,1-.687-.686.686.686,0,0,1,.687-.685h14.627a.685.685,0,0,1,.686.685.686.686,0,0,1-.686.686Z" transform="translate(2882.25 491.25)" fill="#1e2631"/></svg>