<svg xmlns="http://www.w3.org/2000/svg" width="24" height="24" viewBox="0 0 24 24"><path d="M0,0H24V24H0Z" fill="none"/><path d="M-3066.343-406a.686.686,0,0,1-.687-.686.686.686,0,0,1,.687-.685h1.828a1.144,1.144,0,0,0,1.143-1.143v-.914a.685.685,0,0,1,.685-.685.686.686,0,0,1,.687.685v.914a2.517,2.517,0,0,1-2.515,2.515Zm-9.143,0a2.517,2.517,0,0,1-2.515-2.515v-.914a.685.685,0,0,1,.685-.685.686.686,0,0,1,.687.685v.914a1.144,1.144,0,0,0,1.143,1.143h1.828a.686.686,0,0,1,.686.685.686.686,0,0,1-.686.686Zm-.914-7.314a.686.686,0,0,1-.687-.686.686.686,0,0,1,.687-.685h12.8a.686.686,0,0,1,.686.685.686.686,0,0,1-.686.686Zm13.028-5.257v-.914a1.144,1.144,0,0,0-1.143-1.143h-1.828a.686.686,0,0,1-.687-.686.686.686,0,0,1,.687-.685h1.828a2.517,2.517,0,0,1,2.515,2.515v.914a.686.686,0,0,1-.687.685A.685.685,0,0,1-3063.372-418.571Zm-14.628,0v-.914a2.5,2.5,0,0,1,.736-1.778,2.5,2.5,0,0,1,1.778-.736h1.828a.686.686,0,0,1,.686.685.686.686,0,0,1-.686.686h-1.828a1.133,1.133,0,0,0-.808.335,1.133,1.133,0,0,0-.335.808v.914a.686.686,0,0,1-.687.685A.685.685,0,0,1-3078-418.571Z" transform="translate(3082 426)" fill="#262626"/></svg>