<svg xmlns="http://www.w3.org/2000/svg" width="24" height="24" viewBox="0 0 24 24"><rect width="24" height="24" fill="none"/><path d="M-2837.25,2.5a.75.75,0,0,1-.75-.751.75.75,0,0,1,.75-.75h12a.75.75,0,0,1,.75.75.75.75,0,0,1-.75.751Zm5.25-4.75V-12.439l-4.719,4.719a.751.751,0,0,1-1.061,0,.751.751,0,0,1,0-1.061l6-6a.746.746,0,0,1,.379-.2h0l.014,0h.005l.012,0,.007,0h.019l.009,0h.157l.011,0h.026l.009,0,.01,0h.007l.012,0h.005l.014,0h0a.747.747,0,0,1,.36.2l6,6a.748.748,0,0,1,0,1.061.75.75,0,0,1-1.06,0l-4.719-4.72V-2.25a.75.75,0,0,1-.75.75A.751.751,0,0,1-2832-2.25Z" transform="translate(2843.25 18.25)" fill="#1e2631"/></svg>