<svg xmlns="http://www.w3.org/2000/svg" width="24" height="24" viewBox="0 0 24 24"><rect width="24" height="24" fill="none"/><path d="M9.263,20.007A6.373,6.373,0,0,1,4.754,9.125L10.559,3.32A4.482,4.482,0,1,1,16.9,9.658l-5.805,5.805A2.587,2.587,0,1,1,7.433,11.8L13.239,6a.692.692,0,1,1,.979.979L8.412,12.784a1.2,1.2,0,0,0,1.7,1.7l5.805-5.805a3.1,3.1,0,1,0-4.38-4.38L5.733,10.1a4.991,4.991,0,0,0,7.059,7.059L18.6,11.358a.692.692,0,0,1,.979.979l-5.805,5.805A6.356,6.356,0,0,1,9.263,20.007Z" transform="translate(0.364 1.243)" fill="#1e2631"/></svg>