<svg xmlns="http://www.w3.org/2000/svg" width="24" height="24" viewBox="0 0 24 24"><path d="M0,0H24V24H0Z" fill="none"/><path d="M-3033.384-444.692v-2.077h-1.184a3.446,3.446,0,0,1-3.115-2.308.691.691,0,0,1,.423-.882.692.692,0,0,1,.883.422,2.066,2.066,0,0,0,1.855,1.384h3.677a2.079,2.079,0,0,0,2.077-2.077,2.08,2.08,0,0,0-2.077-2.077h-3.693a3.465,3.465,0,0,1-3.461-3.461,3.465,3.465,0,0,1,3.461-3.462h1.154v-2.077a.692.692,0,0,1,.692-.692.692.692,0,0,1,.693.692v2.077h1.184a3.446,3.446,0,0,1,3.115,2.308.692.692,0,0,1-.423.882.692.692,0,0,1-.883-.422,2.068,2.068,0,0,0-1.856-1.384h-3.677a2.079,2.079,0,0,0-2.077,2.077,2.08,2.08,0,0,0,2.077,2.077h3.693a3.465,3.465,0,0,1,3.461,3.461,3.465,3.465,0,0,1-3.461,3.462H-3032v2.077a.692.692,0,0,1-.693.692A.692.692,0,0,1-3033.384-444.692Z" transform="translate(3044.25 465.25)" fill="#262626"/></svg>