<svg xmlns="http://www.w3.org/2000/svg" width="24" height="24" viewBox="0 0 24 24"><rect width="24" height="24" fill="none"/><path d="M-3026.493-364.347l-2.555-4.425-2.555,4.425a.7.7,0,0,1-.625.348.693.693,0,0,1-.326-.093.7.7,0,0,1-.277-.294l-1.277-2.584-2.877.185a.7.7,0,0,1-.636-.327.7.7,0,0,1-.011-.716l2.965-5.135a6.227,6.227,0,0,1-.647-2.771,6.273,6.273,0,0,1,6.266-6.266,6.272,6.272,0,0,1,6.266,6.266,6.226,6.226,0,0,1-.646,2.77l2.965,5.135a.7.7,0,0,1-.012.716.7.7,0,0,1-.243.236.7.7,0,0,1-.392.092l-2.876-.185-1.278,2.584a.7.7,0,0,1-.6.387h-.023A.694.694,0,0,1-3026.493-364.347Zm.555-1.823.907-1.834a.7.7,0,0,1,.669-.386l2.041.131-1.967-3.406a6.268,6.268,0,0,1-3.616,2.092Zm-7.127-1.834.906,1.834,1.965-3.4a6.266,6.266,0,0,1-3.616-2.092l-1.967,3.407,2.042-.131h.046A.7.7,0,0,1-3033.065-368Zm-.856-7.73a4.879,4.879,0,0,0,4.873,4.873,4.879,4.879,0,0,0,4.874-4.873,4.879,4.879,0,0,0-4.874-4.874A4.879,4.879,0,0,0-3033.921-375.734Z" transform="translate(3041.084 385)" fill="#262626"/></svg>