<svg xmlns="http://www.w3.org/2000/svg" width="24" height="24" viewBox="0 0 24 24"><path d="M0,0H24V24H0Z" fill="none"/><path d="M-2946.433-444.1l-4.259-2.556-4.259,2.556a.7.7,0,0,1-.7.008.692.692,0,0,1-.351-.6v-11.077a2.541,2.541,0,0,1,2.538-2.539h5.539a2.541,2.541,0,0,1,2.538,2.539v11.077a.692.692,0,0,1-.35.6.7.7,0,0,1-.342.09A.694.694,0,0,1-2946.433-444.1Zm-3.9-3.957,3.567,2.14v-9.854a1.155,1.155,0,0,0-1.154-1.154h-5.539a1.155,1.155,0,0,0-1.154,1.154v9.854l3.567-2.14a.692.692,0,0,1,.356-.1A.694.694,0,0,1-2950.336-448.055Zm7.6.264-.923-.554a.692.692,0,0,1-.238-.95.692.692,0,0,1,.824-.3v-9.871a1.155,1.155,0,0,0-1.154-1.154h-5.538a1.157,1.157,0,0,0-1,.577.693.693,0,0,1-.946.253.694.694,0,0,1-.253-.946,2.544,2.544,0,0,1,2.2-1.269h5.537a2.541,2.541,0,0,1,2.539,2.538v11.078a.693.693,0,0,1-.352.6.691.691,0,0,1-.341.09A.692.692,0,0,1-2942.74-447.791Z" transform="translate(2961 465)" fill="#262626"/></svg>