<svg xmlns="http://www.w3.org/2000/svg" width="24" height="24" viewBox="0 0 24 24"><path d="M0,0H24V24H0Z" fill="none"/><path d="M-3242.922-523.461a3.323,3.323,0,0,1,.109-.864l-4.98-2.565a3.461,3.461,0,0,1-2.742,1.353A3.467,3.467,0,0,1-3254-529a3.467,3.467,0,0,1,3.465-3.462,3.458,3.458,0,0,1,2.742,1.353l4.98-2.565a3.317,3.317,0,0,1-.109-.864,3.467,3.467,0,0,1,3.465-3.462,3.463,3.463,0,0,1,3.457,3.462,3.464,3.464,0,0,1-3.457,3.462,3.455,3.455,0,0,1-2.746-1.354l-4.98,2.566a3.493,3.493,0,0,1,.109.864,3.491,3.491,0,0,1-.109.863l4.98,2.566a3.458,3.458,0,0,1,2.746-1.354,3.464,3.464,0,0,1,3.457,3.462,3.464,3.464,0,0,1-3.457,3.462A3.468,3.468,0,0,1-3242.922-523.461Zm1.387,0a2.077,2.077,0,0,0,2.078,2.076,2.079,2.079,0,0,0,2.074-2.076,2.081,2.081,0,0,0-2.074-2.077,2.077,2.077,0,0,0-1.852,1.134.219.219,0,0,1-.031.06l-.012.025A2.1,2.1,0,0,0-3241.535-523.461ZM-3252.613-529a2.078,2.078,0,0,0,2.078,2.076,2.08,2.08,0,0,0,1.844-1.125c.012-.024.02-.046.031-.069a.183.183,0,0,1,.02-.035,2.044,2.044,0,0,0,.18-.847,2.059,2.059,0,0,0-.18-.851.129.129,0,0,1-.02-.033c-.012-.021-.02-.045-.031-.067a2.081,2.081,0,0,0-1.844-1.126A2.078,2.078,0,0,0-3252.613-529Zm13.156-3.462a2.081,2.081,0,0,0,2.074-2.077,2.079,2.079,0,0,0-2.074-2.077,2.078,2.078,0,0,0-2.078,2.077,2.092,2.092,0,0,0,.184.856l.012.026a.211.211,0,0,1,.031.061A2.077,2.077,0,0,0-3239.457-532.461Z" transform="translate(3257.25 541.25)" fill="#262626"/></svg>