<svg xmlns="http://www.w3.org/2000/svg" width="24" height="24" viewBox="0 0 24 24"><rect width="24" height="24" fill="none"/><path d="M2-.75h8A2.753,2.753,0,0,1,12.75,2v8A2.753,2.753,0,0,1,10,12.75H2A2.753,2.753,0,0,1-.75,10V2A2.753,2.753,0,0,1,2-.75Zm8,12A1.251,1.251,0,0,0,11.25,10V2A1.251,1.251,0,0,0,10,.75H2A1.251,1.251,0,0,0,.75,2v8A1.251,1.251,0,0,0,2,11.25Z" transform="translate(8 8)" fill="#262626"/><path d="M8,16.75H6A2.753,2.753,0,0,1,3.25,14V6A2.753,2.753,0,0,1,6,3.25h8A2.753,2.753,0,0,1,16.75,6V8a.75.75,0,0,1-1.5,0V6A1.251,1.251,0,0,0,14,4.75H6A1.251,1.251,0,0,0,4.75,6v8A1.251,1.251,0,0,0,6,15.25H8a.75.75,0,0,1,0,1.5Z" fill="#262626"/></svg>