<svg xmlns="http://www.w3.org/2000/svg" width="24" height="24" viewBox="0 0 24 24"><rect width="24" height="24" fill="none"/><path d="M-2937.461-342.6a2.55,2.55,0,0,1-2.539-2.555v-9.29a2.55,2.55,0,0,1,2.539-2.555h12.923a2.55,2.55,0,0,1,2.538,2.555v9.29a2.55,2.55,0,0,1-2.538,2.555Zm-1.154-2.555a1.159,1.159,0,0,0,1.154,1.161h12.923a1.159,1.159,0,0,0,1.153-1.161v-7.988l-7.231,4.852a.692.692,0,0,1-.384.117.687.687,0,0,1-.384-.117l-7.232-4.852Zm7.615-4.553,7.565-5.075a1.157,1.157,0,0,0-1.1-.823h-12.923a1.157,1.157,0,0,0-1.1.822Z" transform="translate(2943.25 362.25)" fill="#1e2631"/></svg>