<svg xmlns="http://www.w3.org/2000/svg" width="24" height="24" viewBox="0 0 24 24"><rect width="24" height="24" fill="none"/><path d="M-2871.777-364.724l-3.882-3.822a7.8,7.8,0,0,1,0-11.145A8.017,8.017,0,0,1-2870-382a8.014,8.014,0,0,1,5.659,2.308,7.8,7.8,0,0,1,0,11.145l-3.882,3.822A2.521,2.521,0,0,1-2870-364,2.521,2.521,0,0,1-2871.777-364.724Zm-2.912-14.012a6.466,6.466,0,0,0,0,9.235l3.882,3.821a1.144,1.144,0,0,0,.807.329,1.145,1.145,0,0,0,.809-.329l3.881-3.821a6.467,6.467,0,0,0,0-9.235,6.64,6.64,0,0,0-4.689-1.913A6.637,6.637,0,0,0-2874.689-378.736Zm1.259,4.617A3.408,3.408,0,0,1-2870-377.5a3.408,3.408,0,0,1,3.431,3.377,3.408,3.408,0,0,1-3.431,3.378A3.408,3.408,0,0,1-2873.43-374.119Zm1.372,0a2.044,2.044,0,0,0,2.058,2.027,2.045,2.045,0,0,0,2.058-2.027,2.045,2.045,0,0,0-2.058-2.027A2.045,2.045,0,0,0-2872.058-374.119Z" transform="translate(2882.254 385.25)" fill="#262626"/></svg>