<svg xmlns="http://www.w3.org/2000/svg" width="24" height="24" viewBox="0 0 24 24"><path d="M0,0H24V24H0Z" fill="none"/><path d="M8.844.006a1.613,1.613,0,0,1,.282,0l.024,0a2.612,2.612,0,0,1,.315.059l6.78,1.509a2.848,2.848,0,0,1,.983.324.687.687,0,0,1,.072.046,1.613,1.613,0,0,1,.539.673.679.679,0,0,1,.029.081,2.856,2.856,0,0,1,.1,1.031v.963a2.987,2.987,0,0,1-.135,1.225.7.7,0,0,1-.04.1,1.613,1.613,0,0,1-.7.706.691.691,0,0,1-.1.041,2.978,2.978,0,0,1-.864.148v5.974a2.979,2.979,0,0,1,.865.149.689.689,0,0,1,.1.041,1.614,1.614,0,0,1,.7.706.7.7,0,0,1,.04.1A2.988,2.988,0,0,1,17.97,15.1v.665a2.987,2.987,0,0,1-.135,1.221.7.7,0,0,1-.04.1,1.613,1.613,0,0,1-.7.706.7.7,0,0,1-.1.041,2.977,2.977,0,0,1-1.224.135H2.2a2.977,2.977,0,0,1-1.224-.135.7.7,0,0,1-.1-.041,1.613,1.613,0,0,1-.7-.706.691.691,0,0,1-.04-.1A2.987,2.987,0,0,1,0,15.765V15.1a2.987,2.987,0,0,1,.135-1.223.693.693,0,0,1,.04-.1,1.613,1.613,0,0,1,.7-.706.686.686,0,0,1,.1-.041,2.978,2.978,0,0,1,.865-.149V6.911a2.978,2.978,0,0,1-.865-.149.693.693,0,0,1-.1-.041,1.613,1.613,0,0,1-.7-.706.691.691,0,0,1-.04-.1A2.987,2.987,0,0,1,0,4.694V3.73A2.857,2.857,0,0,1,.1,2.7a.691.691,0,0,1,.029-.08,1.613,1.613,0,0,1,.539-.673A.692.692,0,0,1,.741,1.9a2.85,2.85,0,0,1,.983-.324L8.5.068A2.609,2.609,0,0,1,8.82.009ZM8.815,1.415,1.995,2.933q-.032.007-.065.011a1.467,1.467,0,0,0-.477.144.231.231,0,0,0-.037.047,1.475,1.475,0,0,0-.038.5q0,.033,0,.066V4.73a.691.691,0,0,1,0,.077,1.6,1.6,0,0,0,.051.616.23.23,0,0,0,.046.046,1.6,1.6,0,0,0,.614.05.691.691,0,0,1,.077,0H15.8a.691.691,0,0,1,.078,0,1.6,1.6,0,0,0,.613-.05.23.23,0,0,0,.046-.046,1.605,1.605,0,0,0,.051-.617.7.7,0,0,1,0-.077V3.7q0-.033,0-.067a1.474,1.474,0,0,0-.037-.5.232.232,0,0,0-.037-.046,1.465,1.465,0,0,0-.477-.144c-.022,0-.044-.006-.065-.011L9.155,1.415l-.021,0A1.225,1.225,0,0,0,9,1.383H8.974a1.226,1.226,0,0,0-.138.027ZM14.745,6.9H11.98v6h2.765Zm-4.147,6v-6H7.372v6Zm-4.608,0v-6H3.224v6ZM1.381,15.064V15.8a.69.69,0,0,1,0,.077,1.6,1.6,0,0,0,.051.616.23.23,0,0,0,.046.046,1.6,1.6,0,0,0,.614.05.7.7,0,0,1,.077,0H15.8a.7.7,0,0,1,.077,0,1.6,1.6,0,0,0,.614-.05.232.232,0,0,0,.046-.046,1.607,1.607,0,0,0,.051-.614.682.682,0,0,1,0-.076v-.737a.67.67,0,0,1,0-.077,1.605,1.605,0,0,0-.051-.616.228.228,0,0,0-.046-.046,1.594,1.594,0,0,0-.614-.051.7.7,0,0,1-.077,0H2.165a.7.7,0,0,1-.077,0,1.6,1.6,0,0,0-.614.051.232.232,0,0,0-.046.046,1.6,1.6,0,0,0-.053.6A.7.7,0,0,1,1.381,15.064Z" transform="translate(3.25 3.244)" fill="#262626" fill-rule="evenodd"/></svg>