<svg xmlns="http://www.w3.org/2000/svg" width="24" height="24" viewBox="0 0 24 24"><rect width="24" height="24" fill="none"/><path d="M-2935.6-211a4.4,4.4,0,0,1-4.4-4.385v-3.692a4.4,4.4,0,0,1,3.7-4.33v-1.209a4.4,4.4,0,0,1,4.4-4.384,4.395,4.395,0,0,1,4.4,4.384v1.209a4.4,4.4,0,0,1,3.7,4.33v3.692a4.4,4.4,0,0,1-4.4,4.385Zm-3.008-8.077v3.692a3.008,3.008,0,0,0,3.008,3h7.406a3.008,3.008,0,0,0,3.008-3v-3.692a3.008,3.008,0,0,0-3.008-3h-7.406A3.008,3.008,0,0,0-2938.611-219.077Zm9.72-4.385v-1.154a3.008,3.008,0,0,0-3.009-3,3.008,3.008,0,0,0-3.008,3v1.154Zm-3.7,7.154v-1.846a.693.693,0,0,1,.695-.692.693.693,0,0,1,.694.692v1.846a.693.693,0,0,1-.694.693A.693.693,0,0,1-2932.594-216.308Z" transform="translate(2944 232)" fill="#1e2631"/></svg>