<svg xmlns="http://www.w3.org/2000/svg" width="24" height="24" viewBox="0 0 24 24"><path d="M0,0H24V24H0Z" fill="none"/><path d="M4,21.75A.75.75,0,0,1,3.25,21V8A3.754,3.754,0,0,1,7,4.25H17A3.754,3.754,0,0,1,20.75,8v6A3.754,3.754,0,0,1,17,17.75H8.311L4.53,21.53A.75.75,0,0,1,4,21.75Zm3-16A2.253,2.253,0,0,0,4.75,8V19.189l2.72-2.72A.75.75,0,0,1,8,16.25h9A2.253,2.253,0,0,0,19.25,14V8A2.253,2.253,0,0,0,17,5.75Z" fill="#262626"/><path d="M-3498-528.24v-.01a.75.75,0,0,1,.751-.751.75.75,0,0,1,.75.751v.01a.75.75,0,0,1-.75.75A.75.75,0,0,1-3498-528.24Zm0-3.01v-3a.75.75,0,0,1,.751-.75.75.75,0,0,1,.75.75v3a.751.751,0,0,1-.75.751A.751.751,0,0,1-3498-531.25Z" transform="translate(3509.25 542.25)" fill="#262626"/></svg>