<svg xmlns="http://www.w3.org/2000/svg" width="24" height="24" viewBox="0 0 24 24"><rect width="24" height="24" fill="none"/><g transform="translate(1 1)"><line x2="16.2" y2="16.2" transform="translate(2.9 3)" fill="none" stroke="#1e2631" stroke-linecap="round" stroke-linejoin="round" stroke-width="1.5"/><path d="M10.525,10.587a1.8,1.8,0,1,0,2.545,2.547" transform="translate(-0.8 -0.759)" fill="none" stroke="#1e2631" stroke-linecap="round" stroke-linejoin="round" stroke-width="1.5"/><path d="M8.627,5.328A8.519,8.519,0,0,1,11,5q5.4,0,9,6.3a17.125,17.125,0,0,1-2.253,3.139m-1.926,1.675A8.442,8.442,0,0,1,11,17.6q-5.4,0-9-6.3A14.124,14.124,0,0,1,6.169,6.493" transform="translate(0 -0.2)" fill="none" stroke="#1e2631" stroke-linecap="round" stroke-linejoin="round" stroke-width="1.5"/></g></svg>