<svg xmlns="http://www.w3.org/2000/svg" width="24" height="24" viewBox="0 0 24 24"><rect width="24" height="24" fill="none"/><path d="M9.31,1.459a3.337,3.337,0,0,0-1.923.615A3.614,3.614,0,0,0,6.112,3.712a3.832,3.832,0,0,0-.2,2.108,3.714,3.714,0,0,0,.947,1.868,3.41,3.41,0,0,0,1.772,1,3.3,3.3,0,0,0,2-.208,3.508,3.508,0,0,0,1.553-1.344,3.79,3.79,0,0,0,.583-2.027,3.751,3.751,0,0,0-1.014-2.58A3.374,3.374,0,0,0,9.31,1.459ZM6.618.861A4.671,4.671,0,0,1,9.31,0a4.724,4.724,0,0,1,3.427,1.5,5.251,5.251,0,0,1,1.419,3.612,5.306,5.306,0,0,1-.817,2.838,4.911,4.911,0,0,1-2.175,1.881,4.616,4.616,0,0,1-2.8.291,4.774,4.774,0,0,1-2.481-1.4A5.2,5.2,0,0,1,4.557,6.1a5.365,5.365,0,0,1,.276-2.951A5.06,5.06,0,0,1,6.618.861Zm2.7,11.788h0a11.56,11.56,0,0,1,4.814,1.1,12.123,12.123,0,0,1,4,3.031.758.758,0,0,1-.042,1.031.668.668,0,0,1-.978-.045,10.734,10.734,0,0,0-3.54-2.684,10.234,10.234,0,0,0-4.257-.972,10.235,10.235,0,0,0-4.257.972,10.734,10.734,0,0,0-3.54,2.684.668.668,0,0,1-.978.045.758.758,0,0,1-.042-1.031,12.123,12.123,0,0,1,4-3.031,11.56,11.56,0,0,1,4.814-1.1Z" transform="translate(2.69 3)" fill="#262626" fill-rule="evenodd"/></svg>