<svg xmlns="http://www.w3.org/2000/svg" width="64" height="64" viewBox="0 0 64 64"><g transform="translate(-2951 -2698)"><rect width="64" height="64" transform="translate(2951 2698)" fill="none"/><g transform="translate(2949.262 2700.412)"><g transform="translate(8.785 1.589)"><path d="M12.145,208.432a3.353,3.353,0,0,0-3.36,3.36v16.081a3.353,3.353,0,0,0,3.36,3.36H55.332a3.353,3.353,0,0,0,3.36-3.36v-10.4a3.362,3.362,0,0,0-3.36-3.36H25.146l-.377-2.323a3.481,3.481,0,0,0-3.36-3.36Z" transform="translate(-8.785 -189.252)" fill="#e1721c"/><g transform="translate(5.552)"><path d="M79.725,175.844v39H90.936a3.353,3.353,0,0,0,3.36-3.36V179.2a3.363,3.363,0,0,0-3.36-3.36Z" transform="translate(-55.247 -170.459)" fill="#ffe4c2"/><path d="M90.308,175.844v39h6.435v-39Z" transform="translate(-61.35 -170.458)" fill="#ffcf99"/><path d="M50.8,207.543a3.353,3.353,0,0,0,3.36-3.36v-37.7a3.359,3.359,0,0,0-3.36-3.36H31.773L21.9,172.993v31.189a3.353,3.353,0,0,0,3.36,3.36Z" transform="translate(-21.901 -163.122)" fill="#ffe4c2"/><path d="M31.773,163.122,21.9,172.993h6.511a3.353,3.353,0,0,0,3.36-3.36Z" transform="translate(-21.901 -163.122)" fill="#fff7eb"/></g><path d="M56.8,229.435a.448.448,0,0,0,0,.9h1.849a.448.448,0,1,0,0-.9Z" transform="translate(-36.219 -201.364)" fill="#ed9242"/><path d="M56.8,221.762a.448.448,0,0,0,0,.9h1.849a.448.448,0,1,0,0-.9Z" transform="translate(-36.219 -196.939)" fill="#ed9242"/><path d="M67.388,229.435a.448.448,0,0,0,0,.9h8.569a.448.448,0,1,0,0-.9Z" transform="translate(-42.322 -201.364)" fill="#e1721c"/><path d="M67.388,221.762a.448.448,0,0,0,0,.9h8.569a.448.448,0,1,0,0-.9Z" transform="translate(-42.322 -196.939)" fill="#e1721c"/><path d="M12.145,227.261a3.353,3.353,0,0,0-3.36,3.36V252.75a3.353,3.353,0,0,0,3.36,3.36H55.332a3.353,3.353,0,0,0,3.36-3.36V236.3a3.362,3.362,0,0,0-3.36-3.36H25.146l-.377-2.322a3.481,3.481,0,0,0-3.36-3.36Z" transform="translate(-8.785 -200.11)" fill="#ed9242"/><path d="M23.416,251.834h8.09a1.676,1.676,0,0,1,1.68,1.68v4.724a1.676,1.676,0,0,1-1.68,1.68h-8.09a1.676,1.676,0,0,1-1.68-1.68v-4.724A1.676,1.676,0,0,1,23.416,251.834Z" transform="translate(-16.254 -214.281)" fill="#fff"/><path d="M8.785,278.745v3.695a3.353,3.353,0,0,0,3.36,3.36H55.332a3.353,3.353,0,0,0,3.36-3.36v-3.695Z" transform="translate(-8.785 -229.8)" fill="#e1721c"/><path d="M12.057,270.611v.448h.9v-.448Zm2.24,0v.448h.9v-.448Zm14.98,0v.448h.9v-.448Zm2.24,0v.448h.9v-.448Zm2.24,0v.448h.9v-.448Zm2.24,0v.448h.9v-.448Zm2.24,0v.448h.9v-.448Zm2.24,0v.448h.9v-.448Zm2.24,0v.448h.9v-.448Zm2.24,0v.448h.9v-.448Zm2.24,0v.448h.9v-.448Zm2.24,0v.448h.9v-.448Zm2.24,0v.448h.9v-.448Zm2.241,0v.448h.9v-.448Zm2.212,0v.448H57v-.448Zm1.982,0v.448h.9v-.448Z" transform="translate(-10.672 -225.109)" fill="#e7edfb"/><path d="M56.976,198.154a.452.452,0,0,0-.381.224l-2.947,5.106-1.771-1.771a.448.448,0,0,0-.317-.131H42.543a.448.448,0,0,0,0,.9h8.831l2.053,2.053a.448.448,0,0,0,.7-.093l2.852-4.938,1.591,2.755a.448.448,0,0,0,.389.224h3.854a.448.448,0,1,0,0-.9H59.221l-1.85-3.2A.448.448,0,0,0,56.976,198.154Z" transform="translate(-27.995 -183.324)" fill="#e1721c"/><path d="M32.529,193.969a3.013,3.013,0,0,0-2.947,3.318c0,2.551,3.068,5.934,5.894,6.691,2.826-.757,5.894-4.14,5.894-6.691a2.968,2.968,0,1,0-5.894,0A3.013,3.013,0,0,0,32.529,193.969Z" transform="translate(-20.779 -180.911)" fill="#e8141b"/></g></g></g></svg>