<svg id="icons-ic24px-info" xmlns="http://www.w3.org/2000/svg" width="24" height="24" viewBox="0 0 24 24">
  <rect id="Rectangle_11756" data-name="Rectangle 11756" width="24" height="24" fill="none"/>
  <g id="Group_146" data-name="Group 146" transform="translate(-9974 -15)">
    <circle id="Ellipse_10" data-name="Ellipse 10" cx="9" cy="9" r="9" transform="translate(9977 18)" fill="#bfbfbf"/>
    <path id="Path_346" data-name="Path 346" d="M-9198-14a1,1,0,0,0,1,1,1,1,0,0,0,1-1,1,1,0,0,0-1-1A1,1,0,0,0-9198-14Zm0,3v3a1,1,0,0,0,1,1,1,1,0,0,0,1-1v-3a1,1,0,0,0-1-1A1,1,0,0,0-9198-11Z" transform="translate(19183 38)" fill="#fff"/>
  </g>
</svg>
