<svg xmlns="http://www.w3.org/2000/svg" width="24" height="24" viewBox="0 0 24 24"><rect width="24" height="24" fill="none"/><path d="M-3434.6-213a4.4,4.4,0,0,1-4.4-4.385v-3.692a4.4,4.4,0,0,1,3.7-4.33v-1.209a4.4,4.4,0,0,1,4.4-4.385,4.4,4.4,0,0,1,4.4,4.385v1.209a4.4,4.4,0,0,1,3.7,4.33v3.692a4.4,4.4,0,0,1-4.4,4.385Zm-3.008-8.077v3.692a3.007,3.007,0,0,0,3.008,3h7.406a3.008,3.008,0,0,0,3.009-3v-3.692a3.008,3.008,0,0,0-3.009-3h-7.406A3.007,3.007,0,0,0-3437.611-221.077Zm9.72-4.385v-1.154a3.008,3.008,0,0,0-3.009-3,3.008,3.008,0,0,0-3.009,3v1.154Zm-1.536,8.566-1.361-1.357-1.361,1.357a.693.693,0,0,1-.49.2.692.692,0,0,1-.491-.2.69.69,0,0,1,0-.979l1.361-1.357-1.361-1.357a.69.69,0,0,1,0-.979.694.694,0,0,1,.981,0l1.361,1.357,1.361-1.357a.694.694,0,0,1,.981,0,.689.689,0,0,1,0,.979l-1.361,1.357,1.361,1.357a.689.689,0,0,1,0,.979.692.692,0,0,1-.491.2A.693.693,0,0,1-3429.427-216.9Z" transform="translate(3443 234)" fill="#1e2631"/></svg>