<svg xmlns="http://www.w3.org/2000/svg" width="24" height="24" viewBox="0 0 24 24"><rect width="24" height="24" fill="none"/><path d="M-2997.616-211.375A4.389,4.389,0,0,1-3002-215.76v-3.693a4.391,4.391,0,0,1,3.692-4.329v-1.209a4.367,4.367,0,0,1,.934-2.706l.015-.019a4.405,4.405,0,0,1,.563-.588l.013-.011.021-.018.023-.02.006-.005a4.367,4.367,0,0,1,2.809-1.018h0a4.385,4.385,0,0,1,1.468.253,4.376,4.376,0,0,1,2.129,1.625.692.692,0,0,1-.172.964.693.693,0,0,1-.964-.172,3,3,0,0,0-1.457-1.112,3,3,0,0,0-1-.173h0c-.089,0-.177,0-.263.011l-.023,0h0a3,3,0,0,0-.541.1h0a3,3,0,0,0-.979.488l-.01.008-.012.009a2.994,2.994,0,0,0-1.172,2.379v1.154h6.692a4.389,4.389,0,0,1,4.385,4.384v3.693a4.39,4.39,0,0,1-4.385,4.385Zm-3-8.077v3.693a3,3,0,0,0,3,3h7.385a3,3,0,0,0,3-3v-3.693a3,3,0,0,0-3-3h-7.385A3,3,0,0,0-3000.615-219.452Zm6,2.77v-1.847a.692.692,0,0,1,.693-.692.692.692,0,0,1,.692.692v1.847a.692.692,0,0,1-.692.692A.692.692,0,0,1-2994.616-216.683Z" transform="translate(3006.25 232)" fill="#1e2631"/></svg>