<svg xmlns="http://www.w3.org/2000/svg" width="24" height="24" viewBox="0 0 24 24"><rect width="24" height="24" fill="none"/><path d="M-3002.855-577a1.568,1.568,0,0,1-1.566-1.567v-13.094a.691.691,0,0,1,.2-.513l2.367-2.368a1.559,1.559,0,0,1,1.108-.459h9.769a1.557,1.557,0,0,1,1.108.459l2.368,2.368a.691.691,0,0,1,.2.489h0v13.118a1.569,1.569,0,0,1-1.567,1.567Zm-.182-1.567a.182.182,0,0,0,.182.182h13.992a.182.182,0,0,0,.182-.182v-12.426h-14.356Zm2.165-15-1.186,1.185h12.4l-1.185-1.185a.184.184,0,0,0-.13-.053h-9.769A.178.178,0,0,0-3000.872-593.562Zm.823,7.749v-1.5h1.384v1.5a2.942,2.942,0,0,0,2.806,3.056,2.942,2.942,0,0,0,2.805-3.056v-1.5h1.384v1.5a4.325,4.325,0,0,1-4.189,4.44A4.325,4.325,0,0,1-3000.049-585.813Z" transform="translate(3008.092 598.25)" fill="#262626"/></svg>