<svg xmlns="http://www.w3.org/2000/svg" width="24" height="24" viewBox="0 0 24 24"><path d="M0,0H24V24H0Z" fill="none"/><path d="M-3558-520.25v-2a.75.75,0,0,1,.75-.75.75.75,0,0,1,.75.75v2a.75.75,0,0,1-.75.751A.75.75,0,0,1-3558-520.25Zm0-6v-2a.75.75,0,0,1,.75-.751.75.75,0,0,1,.75.751v2a.75.75,0,0,1-.75.75A.75.75,0,0,1-3558-526.25Zm0-6v-2a.75.75,0,0,1,.75-.75.75.75,0,0,1,.75.75v2a.75.75,0,0,1-.75.75A.75.75,0,0,1-3558-532.25Z" transform="translate(3572.25 539.25)" fill="#262626"/><path d="M19,19.75H5A2.753,2.753,0,0,1,2.25,17V14A.75.75,0,0,1,3,13.25a1.25,1.25,0,0,0,0-2.5A.75.75,0,0,1,2.25,10V7A2.753,2.753,0,0,1,5,4.25H19A2.753,2.753,0,0,1,21.75,7v3a.75.75,0,0,1-.75.75,1.25,1.25,0,0,0,0,2.5.75.75,0,0,1,.75.75v3A2.753,2.753,0,0,1,19,19.75Zm-15.25-5.1V17A1.251,1.251,0,0,0,5,18.25H19A1.251,1.251,0,0,0,20.25,17V14.646a2.75,2.75,0,0,1,0-5.292V7A1.251,1.251,0,0,0,19,5.75H5A1.251,1.251,0,0,0,3.75,7V9.354a2.75,2.75,0,0,1,0,5.292Z" fill="#262626"/></svg>